<svg width="95" height="87" viewBox="0 0 95 87" fill="none" xmlns="http://www.w3.org/2000/svg">
<g clip-path="url(#clip0_52_5126)">
<path d="M19.19 60.2598C19.855 58.565 20.14 56.6819 19.95 55.2695C19.95 54.8929 19.855 54.6104 19.855 54.328C19.855 54.0455 19.855 53.763 19.76 53.5747C19.76 53.1039 19.665 52.8215 19.665 52.8215C19.665 52.8215 18.43 52.9156 17.005 53.4806C16.245 53.763 15.485 54.1397 14.725 54.7046C13.965 55.2695 13.205 55.9286 12.825 56.8702C12.065 58.3767 11.875 60.1656 12.065 61.7663C12.065 61.7663 11.875 61.3897 11.685 60.8247C11.495 60.2598 11.305 59.4124 11.115 58.6591C10.925 57.9059 10.64 57.0585 10.545 56.4935C10.45 55.9286 10.355 55.4578 10.355 55.4578C11.495 55.2695 14.63 54.2338 16.34 51.9741C17.29 50.5617 17.955 48.9611 18.145 47.5487C18.24 46.8897 18.24 46.3247 18.335 45.8539C18.43 45.4773 18.43 45.1948 18.43 45.1948C18.43 45.1948 17.385 45.1007 15.96 45.289C15.295 45.3832 14.44 45.5715 13.68 45.9481C12.92 46.3247 12.16 46.7955 11.59 47.4546C10.64 48.5845 10.07 50.091 9.88 51.4091C9.785 51.4091 9.785 49.7143 9.69 48.0195C9.69 47.1721 9.595 46.3247 9.595 45.6656C9.69 45.0065 9.69 44.6299 9.69 44.6299C10.735 44.7241 13.585 44.5358 15.58 42.841C16.245 42.3702 16.625 41.7111 17.005 41.052C17.48 40.3929 17.765 39.828 17.955 39.263C18.43 38.1332 18.525 37.1916 18.525 37.1916C18.525 37.1916 17.575 36.9091 16.34 36.815C15.105 36.7208 13.49 36.9091 12.16 37.9448C11.21 38.6981 10.355 39.828 9.975 40.9578C9.975 40.9578 9.975 40.4871 10.165 39.9221C10.26 39.263 10.45 38.4156 10.64 37.5682C10.83 36.7208 11.02 35.8734 11.115 35.2143C11.305 34.5552 11.4 34.1786 11.4 34.1786C12.35 34.4611 14.82 34.8377 16.72 33.802C17.385 33.4254 17.86 33.0487 18.335 32.578C18.81 32.1072 19.285 31.6364 19.57 31.1656C20.235 30.2241 20.52 29.4708 20.52 29.4708C20.52 29.4708 19.76 29 18.715 28.7176C17.67 28.4351 16.245 28.2468 14.915 28.9059C13.965 29.3767 13.11 30.0358 12.54 30.8832C12.54 30.8832 12.635 30.6948 12.73 30.4124C12.825 30.1299 13.015 29.7533 13.205 29.4708C13.49 28.7176 13.87 28.0585 13.87 28.0585C14.345 27.776 15.2 27.3052 15.96 26.7403C16.815 26.1754 17.67 25.4221 18.24 24.3864C19 22.9741 19.38 21.5617 19.475 20.3377C19.57 19.1137 19.475 18.1721 19.475 18.1721C19.475 18.1721 18.62 18.2663 17.385 18.8312C16.245 19.3961 14.63 20.2435 13.87 21.75C13.205 22.8799 12.92 24.1039 12.825 25.1397C12.825 26.2695 12.92 27.1169 13.11 27.776C13.11 27.776 12.445 29.1884 11.875 30.6007C11.4 32.1072 10.925 33.5195 10.925 33.5195C11.02 32.4838 10.925 31.3539 10.545 30.3182C9.975 28.8117 9.025 27.776 8.17 27.1169C7.22 26.4578 6.46 26.1754 6.46 26.1754C6.46 26.1754 6.365 26.4578 6.175 26.8345C5.985 27.3052 5.795 27.8702 5.605 28.6234C5.32 30.1299 5.225 32.013 5.7 33.5195C6.745 35.9676 9.12 36.6267 10.07 36.9091C10.07 36.9091 9.69 38.6981 9.31 40.3929C9.12 42.1819 9.025 43.9708 9.025 43.9708C8.835 42.7468 8.455 41.4286 7.695 40.2987C6.65 38.6039 5.32 37.7565 4.085 37.1916C2.945 36.6267 1.995 36.5325 1.995 36.5325C1.995 36.5325 1.615 37.8507 1.615 39.5455C1.71 41.3345 1.995 43.4059 3.04 45.0065C4.75 47.4546 7.695 47.6429 8.74 47.6429C8.74 47.6429 8.835 49.3377 8.835 51.0325C9.12 52.7273 9.31 54.4221 9.31 54.4221C8.835 53.1039 7.885 51.6916 6.935 50.5617C5.605 49.1494 3.895 48.3961 2.47 48.1137C1.045 47.8312 0 47.9254 0 47.9254C0 47.9254 0 49.4319 0.285 51.4091C0.665 53.3864 1.71 55.6461 3.23 57.0585C5.795 59.3182 9.12 58.6591 10.165 58.4708C10.165 58.4708 10.545 60.0715 11.115 61.6721C11.78 63.1786 12.35 64.7793 12.35 64.7793C11.495 63.4611 10.07 62.0487 8.645 61.013C6.935 59.6949 4.845 59.3182 3.23 59.3182C1.615 59.3182 0.475 59.6949 0.475 59.6949C0.475 59.6949 0.855 61.3897 1.71 63.4611C2.565 65.5325 4.37 67.7922 6.365 68.9221C9.88 70.8052 13.205 69.1104 14.25 68.5455C14.25 68.5455 14.44 68.9221 14.82 69.5812C15.01 69.8637 15.2 70.2403 15.39 70.6169C15.675 70.9935 15.96 71.3702 16.245 71.7468C17.385 73.2533 18.525 74.8539 18.525 74.8539L19.19 74.289C19.19 74.289 17.67 72.2176 16.15 70.052C15.485 68.9221 14.915 67.7923 14.44 66.9448C14.155 66.4741 13.965 66.1916 13.87 65.9091C13.775 65.6267 13.68 65.5325 13.68 65.5325C14.725 65.0617 17.955 63.1786 19.19 60.2598Z" fill="#717485" fill-opacity="0.3"/>
<path d="M92.245 55.9285C91.485 56.0226 90.535 56.1168 89.68 56.4934C88.825 56.7759 87.875 57.2466 86.925 57.9057C85.405 59.0356 84.455 60.5421 83.6 61.9544C83.6 61.9544 83.79 61.5778 83.98 61.0129C84.17 60.4479 84.36 59.6005 84.55 58.8473C84.74 57.9999 85.025 57.2466 85.12 56.6817C85.215 56.1168 85.31 55.646 85.31 55.646C86.45 55.8343 89.68 56.3051 92.055 53.7629C93.67 52.2564 94.24 49.9025 94.62 47.9252C94.81 46.9836 94.905 46.0421 94.905 45.4772C94.905 44.8181 94.81 44.4414 94.81 44.4414C94.81 44.4414 93.765 44.4414 92.34 44.8181C91.675 45.0064 90.915 45.2888 90.155 45.7596C89.395 46.2304 88.635 46.7953 87.97 47.5486C86.925 48.7726 86.355 50.1849 85.88 51.5973C85.88 51.5973 85.88 51.5031 85.975 51.3148C85.975 51.1265 85.975 50.844 85.975 50.5616C85.975 49.9025 86.07 49.0551 86.07 48.2077C86.07 47.3603 86.165 46.5129 86.165 45.8538C86.07 45.1947 86.07 44.8181 86.07 44.8181C87.115 44.7239 89.965 44.4414 91.58 41.8051C92.055 40.9577 92.435 40.0161 92.53 39.0746C92.625 38.133 92.625 37.1914 92.53 36.2499C92.435 34.5551 92.055 33.2369 92.055 33.2369C92.055 33.2369 91.105 33.4252 89.965 33.9901C88.825 34.5551 87.495 35.5908 86.64 37.1914C85.975 38.3213 85.88 39.6395 85.69 40.8635C85.69 40.8635 85.69 40.3927 85.5 39.7336C85.405 39.0746 85.215 38.2272 85.025 37.3798C84.835 36.5323 84.645 35.5908 84.55 35.0259C84.36 34.3668 84.17 33.9901 84.17 33.9901C85.12 33.7077 87.4 32.8603 88.255 30.4122C88.54 29.659 88.635 28.7174 88.635 27.9642C88.54 27.1168 88.35 26.2694 88.16 25.6103C87.685 24.1979 87.21 23.1622 87.21 23.1622C87.21 23.1622 86.45 23.4447 85.595 24.1979C84.74 24.9512 83.79 26.081 83.315 27.5875C83.03 28.6233 83.125 29.7531 83.22 30.7888C83.22 30.7888 83.125 30.6005 83.03 30.3181C82.935 30.0356 82.745 29.659 82.555 29.2823C82.27 28.5291 81.89 27.87 81.89 27.87C81.985 27.3051 82.175 26.3635 82.175 25.2336C82.08 24.1979 81.795 22.9739 81.13 21.844C80.275 20.2434 78.755 19.4901 77.615 18.9252C76.475 18.3603 75.525 18.2661 75.525 18.2661C75.525 18.2661 75.43 19.2077 75.525 20.4317C75.62 21.6557 76.095 23.0681 76.76 24.4804C77.33 25.5161 78.185 26.2694 79.04 26.8343C79.8 27.4934 80.56 27.9642 81.13 28.1525C81.13 28.1525 81.795 29.5648 82.365 30.9772C82.84 32.3895 83.315 33.896 83.315 33.896C82.745 33.0486 82.08 32.2012 81.13 31.7304C79.895 30.9772 78.28 31.0713 77.235 31.3538C76.095 31.5421 75.335 31.9187 75.335 31.9187C75.335 31.9187 75.43 32.107 75.525 32.3895C75.715 32.672 75.905 33.1427 76.19 33.6135C76.665 34.5551 77.52 35.7791 78.85 36.4382C80.75 37.6622 83.125 37.3798 84.075 37.1914C84.075 37.1914 84.455 38.8862 84.74 40.581C84.93 42.2759 85.025 44.0648 85.025 44.0648C84.645 42.9349 84.075 41.8051 83.125 40.9577C81.795 39.8278 80.18 39.6395 78.85 39.6395C77.615 39.6395 76.665 39.922 76.665 39.922C76.665 39.922 76.855 40.8635 77.235 41.9934C77.52 43.2174 78.185 44.6297 79.42 45.7596C81.32 47.5486 83.98 47.9252 85.12 47.9252C85.12 47.9252 85.025 49.62 85.025 51.3148C84.74 53.0096 84.55 54.6103 84.55 54.6103C84.455 53.1979 84.17 51.6914 83.22 50.5616C81.985 49.0551 80.275 48.396 78.945 48.1135C77.52 47.831 76.475 47.831 76.475 47.831C76.475 47.831 76.38 48.8668 76.57 50.1849C76.665 51.5031 76.95 53.1979 77.995 54.7044C79.61 57.0583 82.555 58.2824 83.6 58.5648C83.6 58.5648 83.22 60.1655 82.745 61.672C82.08 63.1785 81.51 64.6849 81.51 64.6849C81.7 63.0843 81.985 61.3895 81.13 59.7888C80.18 57.9057 78.565 56.7759 77.14 56.2109C75.715 55.5518 74.575 55.3635 74.575 55.3635C74.575 55.3635 74.195 56.3992 74.1 57.8116C74.1 58.5648 73.91 59.3181 74.005 60.1655C74.005 61.0129 74.195 61.9544 74.575 62.896C75.62 65.8148 78.565 67.8862 79.61 68.5453C79.61 68.5453 79.42 68.922 79.04 69.5811C78.85 69.8635 78.66 70.2401 78.47 70.6168C78.185 70.9934 77.9 71.37 77.71 71.7466C76.57 73.2531 75.525 74.7596 75.525 74.7596L76.19 75.3246C76.19 75.3246 77.805 73.159 79.325 70.9934C79.99 69.8635 80.655 68.6395 81.13 67.7921C81.415 67.3213 81.605 67.0388 81.7 66.7564C81.795 66.4739 81.89 66.3797 81.89 66.3797C83.03 66.8505 86.355 68.2629 89.68 66.1914C91.77 64.9674 93.1 62.5194 93.955 60.4479C94.145 59.883 94.335 59.4122 94.525 58.9414C94.62 58.4707 94.715 58.094 94.81 57.7174C94.905 57.0583 95 56.5875 95 56.5875C95 56.5875 93.86 55.8343 92.245 55.9285Z" fill="#717485" fill-opacity="0.3"/>
<path d="M44.4608 60.6363V41.3344L37.6208 44.0649C36.9558 43.1233 36.2908 42.1818 35.8158 41.2402C35.3408 40.2045 34.9608 39.2629 34.6758 38.1331L50.6358 31.1655H52.1558V60.6363H60.1358C60.2308 61.2954 60.3258 61.8603 60.3258 62.3311C60.3258 62.8019 60.4208 63.3668 60.4208 63.8376C60.4208 64.4025 60.4208 64.9675 60.3258 65.5324C60.3258 66.0032 60.2308 66.6623 60.1358 67.2272H36.3858C36.2908 66.5681 36.1958 66.0032 36.1958 65.5324C36.1958 65.0616 36.1008 64.4967 36.1008 63.8376C36.1008 63.3668 36.1008 62.8019 36.1958 62.3311C36.1958 61.8603 36.2908 61.2012 36.3858 60.6363H44.4608Z" fill="#717485" fill-opacity="0.3"/>
<path d="M55.385 45.4773H57.285C57.285 46.2306 58.33 46.4189 58.805 46.4189C59.09 46.4189 59.47 46.3247 59.47 45.9481C59.47 45.5715 58.425 45.4773 57.38 45.1007C56.43 44.7241 55.48 44.1591 55.48 42.841C55.48 41.4286 57 40.7695 57.95 40.7695C58.9 40.7695 59.755 41.2403 60.04 41.8994L60.135 40.9578H61.845V43.5001H60.04C60.04 42.9351 59.28 42.4643 58.615 42.4643C58.33 42.4643 58.045 42.6526 58.045 42.9351C58.045 43.3117 58.9 43.5001 59.755 43.7825C60.8 44.1591 62.035 44.5358 62.035 46.0423C62.035 47.3604 60.8 48.1137 59.375 48.1137C58.33 48.1137 57.57 47.6429 57.19 47.078V48.0195H55.385V45.4773Z" fill="#717485" fill-opacity="0.3"/>
<path d="M63.4595 40.9578V39.6396L66.1195 38.7922V40.9578H67.4495V42.7468H66.1195V45.289C66.1195 45.7598 66.0245 46.4189 66.5945 46.4189C66.7845 46.4189 67.2595 46.3247 67.4495 46.1364V48.0195C67.0695 48.2078 66.0245 48.302 65.7395 48.302C63.6495 48.302 63.5545 47.1721 63.4595 45.3831V42.8409H62.6995V41.052H63.4595V40.9578Z" fill="#717485" fill-opacity="0.3"/>
<path d="M29.4497 73.9122C32.3947 75.3246 32.5847 76.5486 32.0147 77.9609C31.4447 79.5616 29.3547 79.7499 27.3597 78.8083C26.8847 78.62 26.6947 78.5259 26.3147 78.3376C25.9347 79.0908 25.7447 79.3733 25.4597 80.1265C25.8397 80.3148 26.0297 80.409 26.4097 80.5973C26.1247 81.2564 25.9347 81.5389 25.6497 82.1038C23.6547 81.1622 22.7047 80.6915 20.8047 79.4674C21.1847 78.9025 21.3747 78.62 21.6597 78.0551C21.9447 78.2434 22.1347 78.3376 22.4197 78.5259C23.5597 76.5486 24.1297 75.607 25.2697 73.6298C24.9847 73.4415 24.8897 73.3473 24.6047 73.2532C24.9847 72.6882 25.1747 72.4058 25.4597 71.8408C26.9797 72.6882 27.8347 73.159 29.4497 73.9122ZM26.8847 77.0194C27.1697 77.1135 27.2647 77.2077 27.5497 77.3019C28.3097 77.6785 29.0697 77.5843 29.3547 76.9252C29.6397 76.2661 29.3547 75.6071 28.5947 75.3246C28.3097 75.2304 28.2147 75.1363 27.9297 75.0421C27.4547 75.7954 27.2647 76.2661 26.8847 77.0194Z" fill="#717485" fill-opacity="0.3"/>
<path d="M37.7141 76.7367C37.5241 77.3958 37.4291 77.7724 37.3341 78.4315C37.0491 78.3374 36.8591 78.3374 36.5741 78.2432C36.0041 80.4088 35.7191 81.5387 35.1491 83.7043C36.0041 83.8926 36.3841 83.9867 37.1441 84.175C37.2391 83.5159 37.3341 83.2335 37.5241 82.5744C38.5691 82.7627 39.0441 82.8569 40.0891 83.0452C39.8991 84.3633 39.8041 85.0224 39.5191 86.3406C35.8141 85.7757 34.0091 85.3049 30.4941 84.0809C30.6841 83.4218 30.8741 83.1393 31.0641 82.4802C31.4441 82.5744 31.5391 82.6685 31.9191 82.7627C32.5841 80.5971 32.9641 79.5614 33.7241 77.3958C33.4391 77.3017 33.2491 77.2075 32.9641 77.1133C33.1541 76.4543 33.3441 76.1718 33.5341 75.5127C35.1491 76.0776 36.0041 76.3601 37.7141 76.7367Z" fill="#717485" fill-opacity="0.3"/>
<path d="M46.7405 86.9055C46.7405 86.2464 46.7405 85.8698 46.7405 85.2107C47.3105 85.2107 47.6905 85.2107 48.2605 85.2107C48.1655 84.8341 48.0705 84.6458 47.8805 84.3633C46.5505 84.3633 45.9805 84.3633 44.6505 84.2691C44.4605 84.6458 44.4605 84.7399 44.2705 85.1165C44.7455 85.1165 45.0305 85.1165 45.5055 85.2107C45.5055 85.8698 45.5055 86.2464 45.4105 86.9055C43.3205 86.8113 42.2755 86.7172 40.1855 86.4347C40.2805 85.7756 40.3755 85.399 40.4705 84.7399C40.9455 84.8341 41.1355 84.8341 41.5155 84.8341C42.6555 82.6685 43.1305 81.5386 44.0805 79.373C43.8905 79.373 43.7005 79.373 43.5105 79.373C43.6055 78.7139 43.6055 78.3373 43.7005 77.6782C45.7905 77.8665 46.8355 77.8665 48.9255 77.7724C49.9705 80.6912 50.6355 82.1035 52.0605 84.9282C52.5355 84.9282 52.7255 84.8341 53.2005 84.8341C53.2955 85.4932 53.2955 85.8698 53.3905 86.5289C50.7305 86.9055 49.4005 86.9997 46.7405 86.9055ZM47.3105 82.8568C46.9305 81.7269 46.7405 81.162 46.3605 80.0321C45.9805 81.162 45.7905 81.7269 45.3155 82.7626C46.0755 82.7626 46.5505 82.8568 47.3105 82.8568Z" fill="#717485" fill-opacity="0.3"/>
<path d="M63.9352 82.5745C63.1752 83.7985 61.7502 85.2108 59.6602 85.6816C56.2402 86.529 53.6752 85.0225 53.2952 82.1037C52.9152 79.1849 55.0052 77.0193 56.8102 76.6426C58.1402 76.3602 58.9002 76.831 59.0902 77.0193C59.0902 76.7368 59.1852 76.5485 59.1852 76.266C60.0402 75.9836 60.4202 75.8894 61.2752 75.6069C61.7502 77.0193 62.0352 77.6784 62.5102 79.0907C61.4652 79.4673 60.9902 79.5615 59.9452 79.8439C59.6602 79.0907 58.9952 78.4316 58.0452 78.6199C57.0002 78.9024 56.6202 80.1264 56.9052 81.5387C57.1902 82.7628 58.2352 83.7985 59.6602 83.4219C60.9902 83.1394 61.6552 81.7271 61.7502 81.5387C62.5102 82.0095 62.9852 82.1978 63.9352 82.5745Z" fill="#717485" fill-opacity="0.3"/>
<path d="M69.5401 71.7466C70.1102 72.6881 70.4902 73.2531 71.0602 74.1946C70.2052 74.7596 69.7302 75.042 68.7802 75.5128C68.5902 75.1362 68.4952 74.9479 68.2102 74.4771C67.3552 74.9479 66.9752 75.1362 66.1202 75.5128C66.4052 76.1719 66.5952 76.4544 66.8802 77.1135C67.9252 76.6427 68.4002 76.3602 69.4452 75.7953C69.8252 76.3602 69.9202 76.7368 70.3002 77.3018C69.2552 77.8667 68.6852 78.1492 67.6402 78.62C68.0202 79.3732 68.2101 79.7498 68.5901 80.5031C69.5401 80.0323 70.0152 79.844 70.9651 79.3732C70.7751 78.9024 70.5852 78.7141 70.3952 78.3375C71.3452 77.7726 71.8201 77.5842 72.8651 76.9252C73.5301 77.9609 73.8152 78.4317 74.3852 79.3732C70.8702 81.5388 68.9702 82.3862 65.1702 83.7985C64.8852 83.1394 64.7902 82.857 64.6002 82.1979C64.9802 82.1037 65.1702 82.0096 65.5502 81.8213C64.6952 79.7498 64.3152 78.7141 63.4602 76.5485C63.0802 76.6427 62.9852 76.7368 62.6052 76.831C62.4152 76.1719 62.2252 75.8894 62.0352 75.2304C65.0752 74.1946 66.5951 73.4414 69.5401 71.7466Z" fill="#717485" fill-opacity="0.3"/>
<path d="M72.2 7.90918L71.82 11.9579L74.955 14.6884L70.87 15.5358L69.35 19.3962L67.26 15.8183L63.08 15.5358L65.835 12.4287L64.885 8.37996L68.685 10.0748L72.2 7.90918Z" fill="#717485" fill-opacity="0.3"/>
<path d="M47.4996 0L49.9696 4.99026L55.4796 5.74351L51.4896 9.6039L52.4396 15.0649L47.4996 12.5227L42.5596 15.0649L43.5096 9.6039L39.5196 5.74351L45.0296 4.99026L47.4996 0Z" fill="#717485" fill-opacity="0.3"/>
<path d="M22.8 7.90918L26.315 10.0748L30.115 8.37996L29.165 12.4287L31.92 15.5358L27.74 15.8183L25.65 19.3962L24.13 15.5358L20.045 14.6884L23.18 11.9579L22.8 7.90918Z" fill="#717485" fill-opacity="0.3"/>
</g>
<defs>
<clipPath id="clip0_52_5126">
<rect width="95" height="87" fill="white"/>
</clipPath>
</defs>
</svg>
