<svg width="15" height="15" viewBox="0 0 15 15" fill="none" xmlns="http://www.w3.org/2000/svg">
<g opacity="0.5">
<path d="M13.9333 1.46667H12.4667V0H11V1.46667H3.66667V0H2.2V1.46667H0.733333C0.293333 1.46667 0 1.76 0 2.2V13.9333C0 14.3733 0.293333 14.6667 0.733333 14.6667H13.9333C14.3733 14.6667 14.6667 14.3733 14.6667 13.9333V2.2C14.6667 1.76 14.3733 1.46667 13.9333 1.46667ZM13.2 13.2H1.46667V4.4H13.2V13.2Z" fill="#717485"/>
<path d="M3.66602 9.5332H5.13268V10.9999H3.66602V9.5332Z" fill="#717485"/>
<path d="M6.59961 9.5332H8.06628V10.9999H6.59961V9.5332Z" fill="#717485"/>
<path d="M9.53336 9.5332H11V10.9999H9.53336V9.5332Z" fill="#717485"/>
<path d="M3.66602 6.6001H5.13268V8.06676H3.66602V6.6001Z" fill="#717485"/>
<path d="M6.59961 6.6001H8.06628V8.06676H6.59961V6.6001Z" fill="#717485"/>
<path d="M9.53336 6.6001H11V8.06676H9.53336V6.6001Z" fill="#717485"/>
</g>
</svg>
