<svg width="86" height="86" viewBox="0 0 86 86" fill="none" xmlns="http://www.w3.org/2000/svg">
<g clip-path="url(#clip0_52_5172)">
<path d="M81.7008 47.6374C81.2792 47.6374 80.8577 47.806 80.4361 47.9746C80.0145 48.1433 79.593 48.3962 79.0871 48.7335C78.4126 49.3237 77.9067 50.0825 77.4851 50.757C77.4851 50.757 77.5694 50.5884 77.6538 50.2511C77.7381 49.9139 77.8224 49.5766 77.9067 49.155C77.991 48.7335 78.0753 48.3962 78.1596 48.059C78.2439 47.7217 78.244 47.5531 78.244 47.5531C78.8342 47.6374 80.3518 47.806 81.5322 46.5413C82.291 45.7825 82.544 44.6021 82.6283 43.6746C82.7126 43.1688 82.7126 42.7472 82.7126 42.4943C82.7126 42.157 82.6283 41.9884 82.6283 41.9884C82.6283 41.9884 82.1224 41.9884 81.4479 42.2413C81.1106 42.3256 80.7734 42.4943 80.4361 42.7472C80.0989 43.0001 79.6773 43.2531 79.4243 43.6746C78.9185 44.2648 78.6655 45.0237 78.4969 45.6982C78.4969 45.6982 78.4969 45.6139 78.4969 45.5295C78.4969 45.4452 78.4969 45.2766 78.4969 45.108C78.4969 44.7707 78.4969 44.3492 78.4969 43.9276C78.4969 43.506 78.4969 43.0844 78.4969 42.7472C78.4969 42.4099 78.4126 42.2413 78.4126 42.2413C78.9185 42.157 80.2675 41.9884 81.0263 40.7237C81.2792 40.3021 81.4479 39.8805 81.4479 39.3746C81.4479 38.8688 81.4479 38.4472 81.4479 38.0256C81.3636 37.1825 81.1949 36.508 81.1949 36.508C81.1949 36.508 80.7734 36.5923 80.1832 36.9295C79.6773 37.2668 79.0028 37.7727 78.5812 38.5315C78.3283 39.1217 78.2439 39.7962 78.1596 40.3864C78.1596 40.3864 78.1596 40.1335 78.0753 39.8805C77.991 39.5433 77.9067 39.1217 77.8224 38.7001C77.7381 38.2786 77.6538 37.857 77.5694 37.5197C77.4851 37.1825 77.4008 37.0139 77.4008 37.0139C77.8224 36.8452 78.9185 36.4237 79.34 35.159C79.4243 34.7374 79.5087 34.3158 79.4243 33.8943C79.34 33.4727 79.2557 33.0511 79.1714 32.7139C78.9185 32.0393 78.6655 31.5335 78.6655 31.5335C78.6655 31.5335 78.3283 31.7021 77.9067 32.0393C77.4851 32.3766 77.0636 32.9668 76.8949 33.7256C76.7263 34.2315 76.8106 34.7374 76.8949 35.2433C76.8949 35.2433 76.8949 35.159 76.8106 34.9903C76.7263 34.8217 76.642 34.6531 76.5577 34.4844C76.3891 34.1472 76.2204 33.8099 76.2204 33.8099C76.3047 33.557 76.389 33.0511 76.3047 32.5452C76.2204 32.0393 76.0518 31.4492 75.7145 30.9433C75.293 30.1844 74.5341 29.8472 73.9439 29.5942C73.3538 29.3413 72.9322 29.3413 72.9322 29.3413C72.9322 29.3413 72.9322 29.8472 73.0165 30.4374C73.1008 31.0276 73.3538 31.7021 73.691 32.3766C74.0283 32.8825 74.4498 33.2197 74.8714 33.4727C75.293 33.7256 75.6302 33.9786 75.8832 34.0629C75.8832 34.0629 76.2204 34.7374 76.5577 35.4119C76.8106 36.0864 77.0636 36.8452 77.0636 36.8452C76.8106 36.4237 76.389 36.0864 75.9675 35.8335C75.293 35.4962 74.6185 35.5805 74.1126 35.6648C73.6067 35.8335 73.1851 36.0021 73.1851 36.0021C73.1851 36.0021 73.1851 36.0864 73.2694 36.255C73.3538 36.4237 73.5224 36.5923 73.6067 36.8452C73.8596 37.3511 74.2812 37.857 74.9557 38.1943C75.8832 38.7844 77.0636 38.6158 77.4851 38.4472C77.4851 38.4472 77.6538 39.2903 77.9067 40.1335C77.991 40.9766 78.0753 41.8197 78.0753 41.8197C77.9067 41.2295 77.5694 40.7237 77.1479 40.3021C76.4734 39.7962 75.7145 39.7119 75.04 39.7119C74.4498 39.7119 73.9439 39.8805 73.9439 39.8805C73.9439 39.8805 74.0283 40.3021 74.2812 40.8923C74.4498 41.4825 74.7871 42.157 75.3773 42.6629C76.3047 43.506 77.6538 43.6746 78.1596 43.6746C78.1596 43.6746 78.1596 44.5178 78.1596 45.3609C78.0753 46.2041 77.991 46.9629 77.991 46.9629C77.9067 46.2884 77.7381 45.5295 77.3165 45.0237C76.7263 44.2648 75.8832 44.0119 75.2087 43.9276C74.5341 43.8433 74.0283 43.8433 74.0283 43.8433C74.0283 43.8433 74.0283 44.3492 74.1126 45.0237C74.1969 45.6982 74.3655 46.457 74.8714 47.2158C75.6302 48.3962 77.1479 48.9021 77.6538 48.9864C77.6538 48.9864 77.4851 49.7452 77.2322 50.5041C76.9792 51.2629 76.642 52.0217 76.642 52.0217C76.7263 51.2629 76.8106 50.4197 76.389 49.5766C75.8832 48.6492 75.1243 48.1433 74.3655 47.8903C73.691 47.6374 73.1008 47.5531 73.1008 47.5531C73.1008 47.5531 72.9322 48.059 72.9322 48.7335C72.9322 49.0707 72.8479 49.4923 72.9322 49.9139C72.9322 50.3354 73.1008 50.757 73.2694 51.2629C73.7753 52.6962 75.293 53.6237 75.7989 53.9609C75.7989 53.9609 75.7145 54.1295 75.5459 54.4668C75.4616 54.6354 75.3773 54.8041 75.293 54.9727C75.2087 55.1413 75.04 55.3099 74.9557 55.5629C74.4498 56.3217 73.9439 57.0805 73.9439 57.0805L74.2812 57.3335C74.2812 57.3335 75.04 56.2374 75.7145 55.1413C76.0518 54.5511 76.3047 53.9609 76.5577 53.5393C76.642 53.2864 76.7263 53.1178 76.8106 53.0335C76.8949 52.8648 76.8949 52.8648 76.8949 52.8648C77.4851 53.1178 79.0871 53.708 80.689 52.6119C81.7008 51.9374 82.291 50.757 82.7126 49.7452C82.7969 49.4923 82.8812 49.2393 82.9655 48.9864C83.0498 48.7335 83.0498 48.5648 83.0498 48.3962C83.1341 48.059 83.1341 47.806 83.1341 47.806C83.1341 47.806 82.4596 47.5531 81.7008 47.6374Z" fill="#717485" fill-opacity="0.3"/>
<path d="M4.63808 47.6374C5.05965 47.6374 5.48122 47.806 5.90279 47.9746C6.32436 48.1433 6.74593 48.3962 7.25181 48.7335C7.92632 49.3237 8.4322 50.0825 8.85377 50.757C8.85377 50.757 8.76945 50.5884 8.68514 50.2511C8.60083 49.9139 8.51651 49.5766 8.4322 49.155C8.34789 48.7335 8.26357 48.3962 8.17926 48.059C8.09494 47.7217 8.09494 47.5531 8.09494 47.5531C7.58906 47.6374 5.9871 47.806 4.80671 46.5413C4.04789 45.7825 3.79494 44.6021 3.71063 43.6746C3.62632 43.1688 3.62632 42.7472 3.62632 42.4943C3.62632 42.157 3.71063 41.9884 3.71063 41.9884C3.71063 41.9884 4.21651 41.9884 4.89102 42.2413C5.22828 42.3256 5.56553 42.4943 5.90279 42.7472C6.24004 43.0001 6.66161 43.2531 6.91455 43.6746C7.33612 44.1805 7.58906 44.9393 7.75769 45.5295C7.75769 45.5295 7.75769 45.4452 7.75769 45.3609C7.75769 45.2766 7.75769 45.108 7.75769 44.9393C7.75769 44.6021 7.75769 44.1805 7.75769 43.759C7.75769 43.3374 7.75769 42.9158 7.75769 42.5786C7.75769 42.2413 7.842 42.0727 7.842 42.0727C7.25181 42.157 5.90279 41.9041 5.14396 40.6393C4.89102 40.2178 4.7224 39.7962 4.7224 39.2903C4.7224 38.7844 4.7224 38.3629 4.7224 37.9413C4.80671 37.0982 5.05965 36.508 5.05965 36.508C5.05965 36.508 5.48122 36.5923 6.07141 36.9295C6.5773 37.2668 7.25181 37.7727 7.67338 38.5315C7.92632 39.1217 8.01063 39.7962 8.09494 40.3864C8.09494 40.3864 8.09494 40.1335 8.17926 39.8805C8.26357 39.5433 8.34789 39.1217 8.4322 38.7001C8.51651 38.2786 8.60083 37.857 8.68514 37.5197C8.76945 37.1825 8.85377 37.0139 8.85377 37.0139C8.4322 36.8452 7.33612 36.4237 6.91455 35.159C6.83024 34.7374 6.74593 34.3158 6.83024 33.8943C6.91455 33.4727 6.99887 33.0511 7.08318 32.7139C7.33612 32.0393 7.58906 31.5335 7.58906 31.5335C7.58906 31.5335 7.92632 31.7021 8.34789 32.0393C8.76945 32.3766 9.19102 32.9668 9.35965 33.7256C9.52828 34.2315 9.44396 34.7374 9.35965 35.2433C9.35965 35.2433 9.35965 35.159 9.44396 34.9903C9.52828 34.8217 9.61259 34.6531 9.69691 34.4844C9.86553 34.1472 10.0342 33.8099 10.0342 33.8099C9.94985 33.557 9.86553 33.0511 9.94985 32.5452C10.0342 32.0393 10.2028 31.4492 10.54 30.9433C10.9616 30.1844 11.7204 29.8472 12.3106 29.5942C12.9008 29.3413 13.3224 29.3413 13.3224 29.3413C13.3224 29.3413 13.3224 29.8472 13.3224 30.4374C13.2381 31.0276 12.9851 31.7021 12.6479 32.3766C12.3106 32.8825 11.8891 33.2197 11.4675 33.4727C11.0459 33.7256 10.7087 33.9786 10.4557 34.0629C10.4557 34.0629 10.1185 34.7374 9.78122 35.4119C9.52828 36.0864 9.27534 36.8452 9.27534 36.8452C9.52828 36.4237 9.94985 36.0864 10.3714 35.8335C11.0459 35.4962 11.7204 35.5805 12.2263 35.6648C12.7322 35.8335 13.1538 36.0021 13.1538 36.0021C13.1538 36.0021 13.1538 36.0864 13.0695 36.255C12.9851 36.4237 12.8165 36.5923 12.7322 36.8452C12.4793 37.3511 12.0577 37.857 11.3832 38.1943C10.4557 38.7844 9.27534 38.6158 8.85377 38.4472C8.85377 38.4472 8.68514 39.2903 8.4322 40.1335C8.34789 40.9766 8.26357 41.8197 8.26357 41.8197C8.4322 41.2295 8.76945 40.7237 9.19102 40.3021C9.86553 39.7962 10.6244 39.7119 11.2989 39.7119C11.8891 39.7119 12.3949 39.8805 12.3949 39.8805C12.3949 39.8805 12.3106 40.3021 12.0577 40.8923C11.8891 41.4825 11.5518 42.157 10.9616 42.6629C10.0342 43.506 8.68514 43.6746 8.17926 43.6746C8.17926 43.6746 8.17926 44.5178 8.17926 45.3609C8.26357 46.2041 8.34789 46.9629 8.34789 46.9629C8.4322 46.2884 8.60083 45.5295 9.0224 45.0237C9.61259 44.2648 10.4557 44.0119 11.1302 43.9276C11.8047 43.8433 12.3106 43.8433 12.3106 43.8433C12.3106 43.8433 12.3106 44.3492 12.2263 45.0237C12.142 45.6982 11.9734 46.457 11.4675 47.2158C10.6244 48.3962 9.19102 48.9021 8.68514 48.9864C8.68514 48.9864 8.85377 49.7452 9.10671 50.5041C9.35965 51.2629 9.69691 52.0217 9.69691 52.0217C9.61259 51.2629 9.52828 50.4197 9.94985 49.5766C10.4557 48.6492 11.2146 48.1433 11.9734 47.8903C12.6479 47.6374 13.2381 47.5531 13.2381 47.5531C13.2381 47.5531 13.4067 48.059 13.4067 48.7335C13.4067 49.0707 13.491 49.4923 13.4067 49.9139C13.4067 50.3354 13.2381 50.757 13.0695 51.2629C12.5636 52.6962 11.0459 53.6237 10.54 53.9609C10.54 53.9609 10.6244 54.1295 10.793 54.4668C10.8773 54.6354 10.9616 54.8041 11.0459 54.9727C11.1302 55.1413 11.2989 55.3099 11.3832 55.5629C11.8891 56.3217 12.3949 57.0805 12.3949 57.0805L12.0577 57.3335C12.0577 57.3335 11.2989 56.2374 10.6244 55.1413C10.2871 54.5511 10.0342 53.9609 9.78122 53.5393C9.69691 53.2864 9.61259 53.1178 9.52828 53.0335C9.44396 52.8648 9.44396 52.8648 9.44396 52.8648C8.85377 53.1178 7.25181 53.708 5.64985 52.6119C4.63808 51.9374 4.04789 50.757 3.62632 49.7452C3.542 49.4923 3.45769 49.2393 3.37338 48.9864C3.37338 48.6492 3.37338 48.3962 3.37338 48.2276C3.28906 47.8903 3.28906 47.6374 3.28906 47.6374C3.28906 47.6374 3.87926 47.5531 4.63808 47.6374Z" fill="#717485" fill-opacity="0.3"/>
<path d="M42.9991 72.2569C26.8108 72.2569 13.7422 59.104 13.7422 43C13.7422 26.8961 26.8108 13.7432 42.9991 13.7432C59.1873 13.7432 72.2559 26.8118 72.2559 43C72.2559 59.1883 59.1873 72.2569 42.9991 72.2569ZM42.9991 14.5863C27.3167 14.5863 14.5853 27.3177 14.5853 43C14.5853 58.6824 27.3167 71.4137 42.9991 71.4137C58.6814 71.4137 71.4128 58.6824 71.4128 43C71.4128 27.3177 58.6814 14.5863 42.9991 14.5863Z" fill="#717485" fill-opacity="0.3"/>
<path d="M20.0659 19.6452C20.2345 20.7413 20.0659 22.0903 19.1385 23.1864C17.7051 24.957 15.5973 25.2099 13.6581 23.6923C11.7188 22.0903 11.7188 19.7295 12.6463 18.6334C13.3208 17.7903 14.0796 17.7903 14.2483 17.7903L13.911 17.2001L15.0071 15.8511L17.3679 17.7903L16.1032 19.3079C15.513 18.8864 14.8384 18.7177 14.3326 19.3079C13.8267 19.8981 14.2483 20.9099 15.1757 21.6687C16.0188 22.3432 17.1149 22.5119 17.7894 21.753C18.3796 21.0785 18.0424 19.8981 18.0424 19.7295L20.0659 19.6452Z" fill="#717485" fill-opacity="0.3"/>
<path d="M19.3061 12.3097L20.1493 13.4901L19.6434 13.9116L20.6551 15.2607L22.3414 13.996L21.3296 12.6469L20.8238 13.0685L19.9806 11.8881L22.763 9.78027L23.6061 10.9607L23.1002 11.3822L25.9669 15.1764L26.4728 14.7548L27.3159 15.9352L24.4493 17.8744L23.6061 16.694L24.112 16.2724L23.1002 14.9234L21.414 16.1881L22.4257 17.5371L22.9316 17.1156L23.7747 18.296L21.0767 20.4881L20.2336 19.3077L20.7395 18.9705L17.7885 15.1764L17.2826 15.5136L16.4395 14.3332L19.3061 12.3097Z" fill="#717485" fill-opacity="0.3"/>
<path d="M31.1959 14.0803L30.69 12.7312L31.6174 12.3097L31.1959 11.8038L29.088 12.6469L29.1723 13.4058L29.9312 13.0685L30.437 14.4175L27.2331 15.6822L26.7272 14.3332L27.4018 14.0803L26.9802 9.10575L26.5586 9.27438L26.0527 8.00968L29.9312 6.40771L34.0625 11.3822L34.737 11.1293L35.2429 12.4783L31.1959 14.0803ZM30.2684 10.7077L28.7508 8.7685L29.0037 11.2136L30.2684 10.7077Z" fill="#717485" fill-opacity="0.3"/>
<path d="M42.2409 6.07057C42.1566 6.57646 42.0723 7.33528 42.0723 7.58822L41.3135 11.8039L39.037 11.9725L37.435 7.75685C37.3507 7.58822 37.1821 6.99803 37.0978 6.49214H37.0135L37.3507 10.7921L37.9409 10.7078L38.0252 12.1412L35.0742 12.3941V10.9608L35.6644 10.8765L35.2429 6.07057L34.6527 6.15489L34.5684 4.72156L38.6997 4.3843L40.1331 8.34705L40.8076 4.21567L44.9389 3.87842L45.0233 5.31175L44.4331 5.39607L44.8546 10.2019L45.4448 10.1176L45.5291 11.551L42.1566 11.8039L42.0723 10.3706L42.6625 10.2863L42.3252 6.66077L42.2409 6.07057Z" fill="#717485" fill-opacity="0.3"/>
<path d="M50.5875 4.89009C53.0326 5.39597 53.3698 6.49205 53.1169 7.75675C52.8639 9.19009 51.4306 9.61165 49.913 9.35871L49.0698 9.19009L48.7326 10.8764L49.4071 10.9607L49.1541 12.394L45.6973 11.7195L45.9502 10.2862L46.5404 10.3705L47.3835 5.73322L46.7933 5.64891L47.0463 4.21558L50.5875 4.89009ZM49.2384 8.09401L49.7443 8.17832C50.3345 8.26263 50.8404 8.09401 50.9247 7.50381C51.009 6.91361 50.7561 6.49205 50.0816 6.32342L49.5757 6.23911L49.2384 8.09401Z" fill="#717485" fill-opacity="0.3"/>
<path d="M58.26 7.25103L57.7542 8.60005L57.0796 8.34711L55.3934 12.8157L56.0679 13.0687L55.562 14.4177L52.1895 13.153L52.6953 11.804L53.3698 12.0569L55.0561 7.58829L54.3816 7.33535L54.8875 5.98633L58.26 7.25103Z" fill="#717485" fill-opacity="0.3"/>
<path d="M57.7547 10.961C58.9351 8.93744 61.1272 8.34725 63.0665 9.52764C65.3429 10.8767 65.5959 12.9002 64.3312 15.008C63.0665 17.1159 61.1272 17.7061 59.0194 16.4414C57.0802 15.261 56.3214 13.3218 57.7547 10.961ZM61.9704 13.659C62.6449 12.5629 62.8978 11.4669 62.139 11.0453C61.5488 10.708 60.7057 11.2982 60.0312 12.3943C59.2723 13.5747 59.2723 14.6708 59.8625 15.008C60.4527 15.3453 61.2959 14.7551 61.9704 13.659Z" fill="#717485" fill-opacity="0.3"/>
<path d="M72.171 19.3919L67.7024 23.6919L66.1004 22.0056L67.1122 17.1154L65.173 19.0546L65.7632 19.6448L64.7514 20.6566L62.3906 18.2115L63.4024 17.1997L63.824 17.6213L67.2808 14.2488L66.8593 13.8272L67.871 12.8154L70.0632 15.0919L69.0514 19.8135L70.9063 18.0429L70.4004 17.537L71.4122 16.5252L73.6887 18.886L72.6769 19.8978L72.171 19.3919Z" fill="#717485" fill-opacity="0.3"/>
<path d="M17.6206 72.0039C16.4402 72.0039 15.1755 71.6666 14.1638 70.6549C12.5618 68.8843 12.5618 66.6921 14.4167 65.0058C16.2716 63.2352 18.801 63.5725 19.8128 64.6686C20.5716 65.5117 20.4873 66.2705 20.4873 66.4392L21.1618 66.1862L22.3422 67.4509L19.9814 69.6431L18.6324 68.2098C19.1383 67.7039 19.3912 66.945 18.8853 66.3549C18.2951 65.7647 17.1991 66.1019 16.3559 66.9451C15.5128 67.7039 15.1755 68.8 15.9344 69.5588C16.6089 70.2333 17.7893 70.149 17.9579 70.0647L17.6206 72.0039Z" fill="#717485" fill-opacity="0.3"/>
<path d="M25.1245 69.3901L24.2814 70.6549L23.6912 70.2333L22.8481 71.6666L24.6187 72.847L25.5461 71.4137L24.9559 71.0764L25.799 69.8117L28.8343 71.8352L27.9912 73.0999L27.4853 72.7627L24.7873 76.8097L25.2932 77.147L24.45 78.4117L21.4147 76.3882L22.2579 75.1235L22.8481 75.4607L23.7755 74.0274L22.0049 72.847L21.0775 74.3647L21.6677 74.7862L20.8245 76.0509L17.7892 74.0274L18.6324 72.7627L19.1383 73.0999L21.8363 69.0529L21.3304 68.7156L22.1736 67.4509L25.1245 69.3901Z" fill="#717485" fill-opacity="0.3"/>
<path d="M30.1825 80.6041L30.6884 79.1707L31.7001 79.508V78.7492L29.508 78.0746L29.0021 78.7492L29.8452 79.0021L29.3393 80.4354L25.9668 79.255L26.4727 77.8217L27.2315 78.0746L30.2668 73.859L29.8452 73.6903L30.3511 72.3413L34.4825 73.6903L34.3139 80.3511L35.0727 80.6041L34.5668 82.0374L30.1825 80.6041ZM31.7844 77.4001L31.8688 74.8707L30.3511 76.8942L31.7844 77.4001Z" fill="#717485" fill-opacity="0.3"/>
<path d="M44.3477 76.8943C44.2634 77.4002 44.0948 78.159 44.0104 78.412L42.6614 82.712L40.3006 82.6276L39.2046 78.0747C39.1202 77.9061 39.0359 77.2316 39.0359 76.6414H38.9516L38.783 81.1943H39.4575L39.3732 82.6276L36.3379 82.5433L36.4222 81.11H37.0124L37.181 76.1355H36.5908L36.6751 74.7021L40.8908 74.8708L41.9026 79.0865L43.083 74.9551L47.383 75.1237L47.2987 76.5571H46.7085L46.5399 81.5316H47.13L47.0457 82.9649L43.5046 82.8806L43.5889 81.4472H44.1791L44.2634 77.7374L44.3477 76.8943Z" fill="#717485" fill-opacity="0.3"/>
<path d="M50.672 73.9429C53.2014 73.3527 53.9603 74.3645 54.2132 75.5449C54.5505 76.9782 53.3701 77.99 51.8524 78.4115L51.0093 78.5802L51.4309 80.2664L52.1054 80.0978L52.4426 81.5311L48.9014 82.3743L48.5642 80.9409L49.1544 80.7723L48.0583 76.0507L47.4681 76.2194L47.1309 74.786L50.672 73.9429ZM50.7563 77.3998L51.2622 77.3155C51.9367 77.1468 52.274 76.7253 52.1054 76.1351C51.9367 75.4606 51.5152 75.2076 50.8407 75.3762L50.3348 75.5449L50.7563 77.3998Z" fill="#717485" fill-opacity="0.3"/>
<path d="M56.9959 71.6665L57.5861 73.0155L56.9959 73.3528L58.8508 77.8214L59.5253 77.5685L60.1155 78.9175L56.6587 80.3508L56.0685 79.0018L56.743 78.7489L54.8038 74.1959L54.1293 74.4489L53.5391 73.0998L56.9959 71.6665Z" fill="#717485" fill-opacity="0.3"/>
<path d="M59.1867 75.1237C57.8377 73.1002 58.2593 70.8237 60.2828 69.559C62.5593 68.0414 64.5828 68.7159 65.9318 70.8237C67.2808 72.9316 66.9436 75.0394 64.8357 76.3884C62.8965 77.7375 60.7044 77.4845 59.1867 75.1237ZM63.571 72.4257C62.8122 71.2453 61.8847 70.5708 61.2102 71.0767C60.62 71.4139 60.7887 72.51 61.5475 73.6904C62.3906 74.9551 63.3181 75.3767 63.9083 75.0394C64.4985 74.6179 64.3298 73.5218 63.571 72.4257Z" fill="#717485" fill-opacity="0.3"/>
<path d="M69.8958 62.9823L74.6174 67.2823L73.0154 69.0529L67.9566 68.2941L70.0644 70.2333L70.6546 69.5588L71.7507 70.5706L69.3899 73.1L68.2938 72.0882L68.7154 71.5823L65.0899 68.2098L64.6683 68.7157L63.5723 67.7039L65.7644 65.3431L70.6546 66.1019L68.7154 64.247L68.1252 64.9215L67.0291 63.9098L69.3056 61.3804L70.4017 62.3921L69.8958 62.9823Z" fill="#717485" fill-opacity="0.3"/>
<path d="M43 86C19.3078 86 0 66.6922 0 43C0 19.3078 19.3078 0 43 0C66.6922 0 86 19.3078 86 43C86 66.6922 66.6922 86 43 86ZM43 1.68627C20.2353 1.68627 1.68627 20.2353 1.68627 43C1.68627 65.7647 20.2353 84.3137 43 84.3137C65.7647 84.3137 84.3137 65.7647 84.3137 43C84.3137 20.2353 65.7647 1.68627 43 1.68627Z" fill="#717485" fill-opacity="0.3"/>
<path d="M55.7313 40.5547C54.7195 40.7234 53.7078 40.8077 52.7803 40.8077C51.7686 40.8077 50.9254 40.7234 50.0823 40.5547C50.0823 40.7234 50.1666 40.892 50.2509 40.9763L54.2137 50.0822L47.9744 55.9842H37.2666L32.7137 50.5038L33.894 41.5665C34.0627 40.1332 33.0509 38.7841 31.6176 38.6155C30.1842 38.4469 28.8352 39.4587 28.6666 40.892V41.2292L27.3176 51.0096C27.2333 51.7685 27.4019 52.5273 27.9078 53.0332L34.6529 61.043V69.1371C37.2666 69.9802 40.049 70.4018 42.9156 70.4018C46.0352 70.4018 48.9862 69.8959 51.7686 68.9685V59.6096L59.1038 52.6959C59.947 51.9371 60.1156 50.7567 59.694 49.7449L55.7313 40.5547Z" fill="#717485" fill-opacity="0.3"/>
<path d="M27.4868 42.4942L27.7398 40.7236C27.9927 38.953 29.5103 37.604 31.2809 37.604C31.4496 37.604 31.6182 37.604 31.7868 37.604C33.3888 37.8569 34.5692 39.0373 34.8221 40.4707C35.328 40.302 35.6652 39.7962 35.4966 39.2903L32.7986 29.2569C32.63 28.7511 32.1241 28.4138 31.6182 28.5824C31.1123 28.7511 30.7751 29.2569 30.9437 29.7628L25.8849 31.1119C25.7162 30.606 25.2103 30.2687 24.7045 30.4373L23.8613 30.6903L26.9809 42.6628L27.4868 42.4942Z" fill="#717485" fill-opacity="0.3"/>
<path d="M42.3255 40.8076C38.8686 40.8076 36.002 43.59 36.002 47.1311C36.002 50.588 38.7843 53.4547 42.3255 53.4547C45.7823 53.4547 48.649 50.6723 48.649 47.1311C48.649 43.59 45.7823 40.8076 42.3255 40.8076Z" fill="#717485" fill-opacity="0.3"/>
<path d="M40.4703 30.6059L36.4233 31.702C36.1703 31.2804 35.7488 30.9431 35.2429 30.9431C34.9899 30.5216 34.5684 30.2686 34.0625 30.1L36.1703 37.9412C36.5076 37.6039 36.7605 37.1823 36.7605 36.6765C37.1821 36.4235 37.435 35.9176 37.435 35.4118L41.4821 34.3157C41.735 34.8216 42.4096 35.1588 42.9998 34.9902C43.7586 35.5804 44.7703 36.0019 45.9507 36.3392C46.7939 39.3745 52.0213 40.5549 57.7547 39.0372L58.2605 38.8686L57.586 36.2549C58.0076 36.1706 58.3448 36.0863 58.7664 36.002L54.5507 20.4039C54.1292 20.4882 53.7919 20.6569 53.4547 20.7412L52.7801 18.1274L52.2743 18.2961C46.4566 19.8137 42.5782 23.4392 43.337 26.5588C42.4939 27.402 41.9037 28.3294 41.4821 29.2569C40.8076 29.4255 40.386 30.0157 40.4703 30.6059ZM56.5743 36.5921L56.9958 38.2784C52.4429 39.3745 48.2272 38.7 47.1311 36.7608C49.7449 37.351 53.0331 37.2667 56.5743 36.5921ZM51.937 19.3921L52.3586 21.0784C48.986 22.2588 46.1194 23.8608 44.0958 25.6314C44.1801 23.4392 47.4684 20.7412 51.937 19.3921Z" fill="#717485" fill-opacity="0.3"/>
</g>
<defs>
<clipPath id="clip0_52_5172">
<rect width="86" height="86" fill="white"/>
</clipPath>
</defs>
</svg>
