<svg width="16" height="16" viewBox="0 0 16 16" fill="none" xmlns="http://www.w3.org/2000/svg">
<path d="M7.87497 14.875C7.77162 14.875 7.66806 14.8494 7.57422 14.7978C7.37428 14.6881 7.25 14.4781 7.25 14.25V13C7.25 12.6554 6.96962 12.375 6.625 12.375H5.625C2.52338 12.375 0 9.85166 0 6.75003C0 3.64841 2.52338 1.12503 5.625 1.12503H10.375C13.4766 1.12503 16 3.64841 16 6.75003C16 6.77587 15.9998 6.80159 15.9996 6.82725C15.9848 8.34234 15.5246 9.47784 14.5072 10.5091C13.5764 11.4527 12.2162 12.2917 10.3335 13.4528C9.69953 13.8439 8.98097 14.2871 8.21047 14.7773C8.10837 14.8422 7.99178 14.875 7.87497 14.875ZM5.625 2.37503C3.21263 2.37503 1.25 4.33766 1.25 6.75003C1.25 9.16241 3.21263 11.125 5.625 11.125H6.625C7.65887 11.125 8.5 11.9662 8.5 13V13.118C8.91675 12.8581 9.31112 12.6148 9.67734 12.3889C11.4856 11.2736 12.7922 10.4678 13.6174 9.63128C14.4099 8.82787 14.738 8.01197 14.7497 6.81512C14.7499 6.79353 14.75 6.77181 14.75 6.75003C14.75 4.33766 12.7874 2.37503 10.375 2.37503H5.625Z" fill="#717485"/>
<path d="M10.375 6.12503H5.625C5.27981 6.12503 5 5.84522 5 5.50003C5 5.15484 5.27981 4.87503 5.625 4.87503H10.375C10.7202 4.87503 11 5.15484 11 5.50003C11 5.84522 10.7202 6.12503 10.375 6.12503Z" fill="#717485"/>
<path d="M10.375 8.62503H5.625C5.27981 8.62503 5 8.34522 5 8.00003C5 7.65484 5.27981 7.37503 5.625 7.37503H10.375C10.7202 7.37503 11 7.65484 11 8.00003C11 8.34522 10.7202 8.62503 10.375 8.62503Z" fill="#717485"/>
</svg>
