<svg width="86" height="81" viewBox="0 0 86 81" fill="none" xmlns="http://www.w3.org/2000/svg">
<g clip-path="url(#clip0_209_444)">
<path d="M20.124 74.421C19.78 74.0792 19.522 73.7375 19.264 73.5666C19.092 73.3102 19.006 73.2248 19.006 73.2248C19.952 72.4558 22.532 69.8071 23.048 66.6457C23.22 64.7659 23.048 62.8862 22.532 61.5191C22.446 61.1773 22.274 60.8356 22.188 60.5792C22.102 60.3229 22.016 60.0666 21.93 59.8102C21.758 59.383 21.672 59.1267 21.672 59.1267C21.672 59.1267 20.554 59.5539 19.264 60.4938C18.576 60.921 17.888 61.5191 17.286 62.2881C16.684 63.0571 16.168 63.9115 15.996 64.8514C15.652 66.4748 15.91 68.3545 16.512 69.8071C16.512 69.8071 16.254 69.4653 15.91 68.9526C15.566 68.44 15.136 67.671 14.792 66.9875C14.362 66.3039 13.932 65.5349 13.674 65.0223C13.416 64.5096 13.244 64.0824 13.244 64.0824C14.276 63.5697 17.114 61.8609 18.146 59.1267C18.748 57.5033 18.834 55.709 18.748 54.4273C18.662 53.7438 18.49 53.2311 18.49 52.8039C18.404 52.3767 18.404 52.1204 18.404 52.1204C18.404 52.1204 17.286 52.2913 15.996 52.8039C15.308 53.0602 14.62 53.4875 13.932 54.0001C13.244 54.5128 12.728 55.1963 12.298 56.0508C11.696 57.3324 11.524 58.9558 11.696 60.4083C11.61 60.4083 11.18 58.7849 10.664 57.1615C10.406 56.3071 10.148 55.5381 9.976 54.94C9.89 54.3419 9.804 53.9147 9.804 53.9147C10.836 53.6583 13.588 52.8039 15.05 50.6678C15.566 49.9843 15.738 49.3008 15.996 48.6172C16.254 47.9337 16.426 47.1647 16.512 46.5666C16.684 45.2849 16.512 44.3451 16.512 44.3451C16.512 44.3451 15.566 44.2596 14.276 44.5159C13.072 44.7723 11.524 45.2849 10.492 46.652C9.718 47.6773 9.202 48.959 9.116 50.1552C9.116 50.1552 9.03 49.728 9.03 49.0444C9.03 48.3609 8.944 47.5064 8.858 46.652C8.772 45.7976 8.772 44.8577 8.686 44.2596C8.686 43.5761 8.772 43.1489 8.772 43.1489C9.718 43.1489 12.212 42.8925 13.932 41.3546C14.448 40.8419 14.792 40.3292 15.136 39.7311C15.48 39.133 15.738 38.5349 15.996 38.0223C16.34 36.997 16.426 36.1425 16.426 36.1425C16.426 36.1425 15.566 35.8862 14.448 35.8862C13.33 35.8862 11.954 36.0571 10.75 37.0824C9.976 37.7659 9.288 38.7058 8.944 39.6457C8.944 39.6457 8.944 39.4748 8.944 39.133C9.03 38.8767 9.03 38.4495 9.116 38.0223C9.202 37.2533 9.374 36.4843 9.374 36.4843C9.804 36.0571 10.406 35.459 11.008 34.6046C11.696 33.8356 12.298 32.8102 12.642 31.6995C12.986 30.1615 13.072 28.709 12.814 27.4273C12.642 26.2311 12.298 25.2913 12.298 25.2913C12.298 25.2913 11.438 25.633 10.492 26.4875C9.546 27.3419 8.17 28.5381 7.826 30.247C7.482 31.5286 7.482 32.8102 7.654 33.8356C7.912 34.9463 8.342 35.8008 8.6 36.3134C8.6 36.3134 8.342 37.8514 8.17 39.3894C8.084 40.9273 7.998 42.5508 7.998 42.5508C7.826 41.5254 7.396 40.5001 6.794 39.5602C5.848 38.2786 4.73 37.5096 3.612 37.0824C2.58 36.6552 1.72 36.5697 1.72 36.5697C1.72 36.5697 1.634 36.8261 1.634 37.3387C1.548 37.8514 1.462 38.4495 1.548 39.2185C1.634 40.7564 1.978 42.6362 2.924 43.9178C4.558 45.9685 7.052 46.0539 8.084 46.0539C8.084 46.0539 8.17 47.8482 8.342 49.6425C8.686 51.4368 8.944 53.1457 8.944 53.1457C8.428 52.0349 7.74 50.8387 6.708 49.8989C5.504 48.6172 3.87 48.1045 2.666 47.8482C0.946 47.7628 0 47.8482 0 47.8482C0 47.8482 0 49.2153 0.43 50.9242C0.946 52.633 1.806 54.5982 3.268 55.8799C5.59 57.8451 8.514 57.247 9.546 56.9906C9.546 56.9906 10.062 58.614 10.578 60.3229C11.266 61.9463 11.954 63.4843 11.954 63.4843C11.094 62.2881 9.89 61.1773 8.6 60.3229C6.966 59.2121 5.074 59.0413 3.612 59.0413C2.15 59.1267 1.118 59.4685 1.118 59.4685C1.118 59.4685 1.548 61.0064 2.322 62.8008C3.268 64.5951 4.816 66.5602 6.622 67.5856C9.718 69.1235 12.814 67.671 13.76 67.1583C13.76 67.1583 14.62 68.6109 15.48 70.0634C16.512 71.4305 17.544 72.7121 17.544 72.7121C16.34 71.6014 14.62 70.6615 12.986 69.978C10.922 69.209 8.772 69.3799 7.224 69.8071C5.676 70.2343 4.644 70.8324 4.644 70.8324C4.644 70.8324 5.504 72.3704 6.88 74.1647C8.256 75.959 10.578 77.6678 12.814 78.3514C16.77 79.2058 19.522 76.728 20.382 75.959C20.382 75.959 20.726 76.3008 21.242 76.8134C21.5 77.0697 21.758 77.4115 22.102 77.6678C22.446 77.9242 22.79 78.2659 23.22 78.5223C24.682 79.7185 26.23 80.9147 26.23 80.9147L26.746 80.2311C26.746 80.2311 24.682 78.6077 22.704 76.8989C21.758 76.0444 20.812 75.1045 20.124 74.421Z" fill="#717485" fill-opacity="0.3"/>
<path d="M75.508 59.6393C75.68 59.0412 75.938 58.1868 76.196 57.3324C76.454 56.478 76.712 55.709 76.884 55.0254C76.97 54.4273 77.056 54.0001 77.056 54.0001C78.088 54.171 80.926 54.5982 83.162 52.4621C83.85 51.7786 84.452 51.0096 84.796 50.0697C85.14 49.1299 85.398 48.19 85.57 47.3356C85.914 45.6267 85.914 44.2596 85.914 44.2596C85.914 44.2596 84.968 44.1742 83.678 44.5159C82.388 44.7723 80.84 45.4558 79.636 46.8229C78.69 47.7628 78.174 49.0444 77.744 50.1552C77.744 50.1552 77.83 49.728 77.83 49.0444C77.83 48.3609 77.916 47.5064 78.002 46.5666C78.088 45.6267 78.088 44.7723 78.174 44.0887C78.174 43.4052 78.088 42.978 78.088 42.978C79.034 42.8925 81.528 42.6362 82.99 40.5001C83.42 39.8166 83.764 38.9621 83.936 38.1931C84.108 37.3387 84.108 36.4843 84.108 35.7153C84.108 34.1773 83.85 33.0666 83.85 33.0666C83.85 33.0666 82.99 33.152 81.958 33.6647C80.926 34.1773 79.636 35.0318 78.862 36.3134C78.26 37.2533 78.088 38.364 77.916 39.3893C77.916 39.3893 77.916 39.2185 77.916 38.8767C77.83 38.5349 77.83 38.1931 77.744 37.7659C77.572 36.9969 77.486 36.1425 77.486 36.1425C77.744 35.6299 78.174 34.7754 78.432 33.6647C78.604 32.6393 78.604 31.3577 78.26 30.0761C77.83 28.3672 76.54 27.0856 75.594 26.3166C74.562 25.4621 73.788 25.1204 73.788 25.1204C73.788 25.1204 73.444 26.0602 73.272 27.2564C73.014 28.5381 73.1 29.9906 73.444 31.5286C73.702 32.6393 74.39 33.5792 75.078 34.4337C75.68 35.2881 76.282 35.8862 76.712 36.3134C76.712 36.3134 76.97 37.8514 77.142 39.3893C77.228 40.9273 77.314 42.4653 77.314 42.4653C76.97 41.5254 76.54 40.5001 75.766 39.8166C74.734 38.7912 73.186 38.4495 72.068 38.4495C70.95 38.364 70.09 38.5349 70.09 38.5349C70.09 38.5349 70.09 38.7058 70.176 39.133C70.262 39.4748 70.348 39.9875 70.52 40.5001C70.778 41.6109 71.294 42.8925 72.326 44.0033C73.788 45.6267 76.282 46.0539 77.228 46.1393C77.228 46.1393 77.142 47.9336 77.056 49.6425C76.712 51.3514 76.454 53.1457 76.454 53.1457C76.368 51.9495 76.11 50.6678 75.422 49.6425C74.39 48.19 72.842 47.5919 71.638 47.2501C70.434 46.9083 69.402 46.9083 69.402 46.9083C69.402 46.9083 69.316 47.8482 69.402 49.1299C69.402 50.3261 69.66 51.9495 70.52 53.3166C71.896 55.5381 74.39 56.5634 75.508 56.9052C75.508 56.9052 74.992 58.5286 74.476 60.152C73.788 61.69 73.1 63.3134 73.1 63.3134C73.358 61.9463 73.53 60.4083 72.842 58.9558C72.068 57.1615 70.606 56.1362 69.316 55.4526C68.026 54.8545 66.994 54.5982 66.994 54.5982C66.994 54.5982 66.65 55.5381 66.478 56.9052C66.306 58.1014 66.134 59.8102 66.736 61.5191C67.596 64.2533 70.176 66.133 71.208 66.7311C71.208 66.7311 70.348 68.1837 69.488 69.5507C68.456 70.8324 67.51 72.1995 67.51 72.1995C68.198 70.6615 68.8 69.0381 68.456 67.3292C68.026 65.1931 66.736 63.7406 65.532 62.8007C64.328 61.7754 63.21 61.2628 63.21 61.2628C63.21 61.2628 62.608 62.2026 62.092 63.5697C61.92 64.2533 61.576 64.9368 61.404 65.7912C61.232 66.6457 61.146 67.5855 61.232 68.6109C61.49 71.7723 63.812 74.5919 64.672 75.3609C64.672 75.3609 64.328 75.7026 63.812 76.2153C63.554 76.4716 63.296 76.7279 62.952 77.0697C62.608 77.326 62.264 77.6678 61.92 77.9242C60.458 79.1204 58.996 80.3166 58.996 80.3166L59.512 81.0001C59.512 81.0001 61.576 79.2912 63.64 77.5824C64.586 76.6425 65.532 75.6172 66.22 74.9336C66.564 74.5919 66.908 74.2501 67.08 74.0792C67.252 73.8229 67.338 73.7374 67.338 73.7374C68.284 74.5064 71.208 76.728 74.992 75.5317C77.4 74.8482 79.292 72.7976 80.668 71.0033C81.012 70.576 81.356 70.1488 81.614 69.7216C81.872 69.2944 82.044 68.9526 82.216 68.6109C82.56 67.9273 82.732 67.5855 82.732 67.5855C82.732 67.5855 81.7 66.9874 80.066 66.7311C79.292 66.5602 78.346 66.4748 77.4 66.5602C76.454 66.6457 75.422 66.8166 74.39 67.2438C72.67 67.9273 71.294 69.1235 70.09 70.3197C70.09 70.3197 70.348 69.978 70.692 69.4653C71.036 68.9526 71.466 68.1836 71.896 67.5001C72.326 66.8166 72.756 66.0476 73.1 65.5349C73.358 64.9368 73.53 64.595 73.53 64.595C74.562 65.0223 77.572 66.3039 80.668 64.5096C82.646 63.4843 83.85 61.2628 84.624 59.4685C85.054 58.5286 85.398 57.7596 85.484 57.0761C85.656 56.478 85.656 56.0507 85.656 56.0507C85.656 56.0507 84.624 55.709 83.162 55.7944C82.474 55.7944 81.614 55.8798 80.84 56.1362C79.98 56.3925 79.12 56.7343 78.26 57.3324C76.97 58.2723 76.024 59.5539 75.25 60.7501C75.25 60.7501 75.336 60.6647 75.336 60.4938C75.336 60.2374 75.422 59.9811 75.508 59.6393Z" fill="#717485" fill-opacity="0.3"/>
<path d="M53.148 77.3259H32.852C31.82 77.3259 30.874 78.1804 30.874 79.2911V81H55.126V79.2911C55.126 78.1804 54.266 77.3259 53.148 77.3259Z" fill="#717485" fill-opacity="0.3"/>
<path d="M53.234 68.269H32.852V76.3007H53.234V68.269Z" fill="#717485" fill-opacity="0.3"/>
<path d="M53.148 63.3132H32.852C31.82 63.3132 30.874 64.1677 30.874 65.2784C30.874 66.3037 31.734 67.2436 32.852 67.2436H53.234C54.266 67.2436 55.212 66.3892 55.212 65.2784C55.126 64.1677 54.266 63.3132 53.148 63.3132Z" fill="#717485" fill-opacity="0.3"/>
<path d="M63.984 19.481H58.738C58.738 18.712 58.824 17.9431 58.824 17.1741H27.262C27.262 17.9431 27.262 18.712 27.348 19.481H22.102V20.4209C22.102 32.1266 26.918 41.269 33.11 41.269C34.142 42.9779 35.346 44.4304 36.636 45.5412V46.0538C36.722 47.5064 37.754 48.788 39.216 49.0443H39.302V55.538H39.216C37.754 55.8798 36.722 57.076 36.636 58.5285V58.8703C35.432 59.5538 34.658 60.75 34.658 62.2026H51.6C51.6 60.75 50.826 59.5538 49.622 58.8703V58.5285C49.536 57.076 48.504 55.7943 47.042 55.538H46.956V49.2152H47.042H47.128C48.59 48.8734 49.622 47.6772 49.708 46.2247V45.712C50.998 44.6013 52.116 43.1488 53.234 41.4399C59.426 41.4399 64.242 32.2975 64.242 20.5918V19.481H63.984ZM23.908 21.4462H27.348C27.864 28.3671 29.412 34.519 31.82 39.2184C27.606 37.9367 24.166 30.4177 23.908 21.4462ZM48.246 58.0158H37.754C38.012 57.3323 38.528 56.8196 39.302 56.6488H46.784C47.472 56.8196 48.074 57.3323 48.246 58.0158ZM46.784 48.1045H39.302C38.614 47.9336 38.012 47.4209 37.754 46.7374H48.332C48.074 47.3355 47.472 47.8481 46.784 48.1045ZM54.18 39.2184C56.502 34.519 58.136 28.3671 58.652 21.4462H62.092C61.834 30.4177 58.394 37.9367 54.18 39.2184Z" fill="#717485" fill-opacity="0.3"/>
<path d="M7.74001 12.3893C8.68601 13.671 9.11601 14.3545 10.062 15.7216C9.89001 15.8925 9.71801 15.9779 9.54601 16.0634C9.80401 16.4906 9.97601 16.6615 10.32 17.0887C11.61 16.1488 12.212 15.7216 13.502 14.9526C13.244 14.5254 13.072 14.3545 12.814 13.9273C12.47 14.1836 12.298 14.2691 11.868 14.5254C11.61 14.0982 11.438 13.9273 11.18 13.5001C11.868 13.0729 12.212 12.8165 12.9 12.3893C12.642 11.9621 12.556 11.7912 12.298 11.364C11.61 11.7912 11.266 12.0476 10.492 12.4748C10.148 11.9621 9.97601 11.6203 9.63201 11.1077C10.234 10.7659 10.492 10.595 11.094 10.1678C11.266 10.4241 11.352 10.595 11.524 10.8514C12.212 10.4241 12.556 10.2533 13.244 9.82604C12.814 9.1425 12.642 8.71528 12.212 8.03174C9.80401 9.39883 8.68601 10.0824 6.45001 11.7058C6.70801 12.2184 6.88001 12.3893 7.13801 12.8165C7.39601 12.6457 7.48201 12.5602 7.74001 12.3893Z" fill="#717485" fill-opacity="0.3"/>
<path d="M13.846 8.62971C14.62 10.0822 15.05 10.7658 15.824 12.2183C15.566 12.3038 15.48 12.3892 15.222 12.5601C15.48 12.9873 15.566 13.2436 15.824 13.6708C17.028 12.9873 17.63 12.731 18.834 12.1329C18.576 11.7057 18.49 11.4493 18.318 11.0221C18.06 11.1076 17.974 11.193 17.716 11.2784C17.028 9.82591 16.598 9.14237 15.91 7.68984C16.168 7.60439 16.254 7.51895 16.512 7.34806C16.254 6.92085 16.168 6.66452 15.996 6.2373C14.62 6.92085 13.932 7.26262 12.642 7.94617C12.9 8.37338 12.986 8.62971 13.244 9.05692C13.502 8.8006 13.588 8.71515 13.846 8.62971Z" fill="#717485" fill-opacity="0.3"/>
<path d="M17.544 6.74999C18.232 8.20252 18.576 8.97151 19.264 10.424C19.092 10.5095 18.92 10.5949 18.748 10.6804C18.92 11.1076 19.092 11.3639 19.264 11.7911C20.468 11.2785 21.07 10.9367 22.274 10.5095C22.102 10.0823 22.016 9.82594 21.844 9.39872C21.586 9.48417 21.5 9.56961 21.242 9.65505C20.984 9.1424 20.898 8.88607 20.726 8.28796C21.586 7.94619 21.758 8.11708 22.102 8.88607C22.532 9.91138 23.306 10.2532 24.596 9.82594C25.628 9.48417 25.714 8.71518 25.542 7.94619C25.456 7.77531 25.456 7.68986 25.37 7.43353C25.112 7.51898 24.94 7.51898 24.682 7.68986C24.682 7.77531 24.768 7.86075 24.768 7.94619C24.854 8.11708 24.768 8.28796 24.682 8.28796C24.51 8.37341 24.338 8.11708 24.252 7.77531C23.994 7.17721 22.532 7.00632 22.532 7.00632C22.532 7.00632 23.822 5.89556 23.564 5.21202C23.22 4.1867 22.446 3.50316 20.038 4.44303C18.662 4.95569 17.974 5.29746 16.684 5.89556C16.856 6.32278 17.028 6.5791 17.2 7.00632C17.286 6.83543 17.372 6.83543 17.544 6.74999ZM20.21 5.63923C20.812 5.3829 21.242 5.55379 21.414 6.06645C21.586 6.49366 21.328 6.92088 20.726 7.17721C20.554 7.26265 20.468 7.26265 20.296 7.34809C20.038 6.74999 19.952 6.49366 19.694 5.89556C19.866 5.72467 19.952 5.63923 20.21 5.63923Z" fill="#717485" fill-opacity="0.3"/>
<path d="M29.584 6.23742C29.67 6.57919 29.154 6.83552 28.81 6.92097C28.38 7.00641 27.52 7.09185 27.348 6.32287C26.574 6.49375 26.23 6.66464 25.456 6.83552C25.714 7.68995 25.886 8.20261 26.144 9.05704C26.832 8.88616 27.176 8.71527 27.778 8.54438C27.778 8.28805 27.692 8.11717 27.692 7.86084C28.208 8.20261 28.982 8.3735 29.928 8.20261C31.046 7.94628 32.422 7.17729 32.164 5.72476C31.82 3.50324 27.778 4.69945 27.52 3.75957C27.434 3.4178 27.778 3.16147 28.122 3.07603C28.896 2.90514 29.584 3.16147 29.756 3.84502C30.53 3.67413 30.874 3.58869 31.648 3.4178C31.476 2.47793 31.39 2.05071 31.218 1.11084C30.444 1.28173 30.1 1.36717 29.326 1.53806C29.326 1.87983 29.326 2.05071 29.412 2.30704C28.724 1.70894 27.778 1.70894 26.832 1.96527C25.8 2.2216 24.51 3.24692 24.94 4.614C25.628 6.83552 29.412 5.46843 29.584 6.23742Z" fill="#717485" fill-opacity="0.3"/>
<path d="M33.798 3.1614C33.712 2.64875 33.712 2.47786 33.626 1.9652C33.97 1.87976 34.142 1.87976 34.572 1.79432C34.83 3.41773 34.916 4.18672 35.174 5.81014C34.83 5.89558 34.658 5.89558 34.314 5.89558C34.4 6.40824 34.4 6.66457 34.486 7.09178C35.948 6.83546 36.722 6.75001 38.184 6.66457C38.098 6.15191 38.098 5.89558 38.098 5.46837C37.754 5.46837 37.582 5.55381 37.238 5.55381C37.066 3.93039 36.98 3.1614 36.808 1.53799C37.152 1.53799 37.324 1.45254 37.754 1.45254C37.754 1.9652 37.84 2.13609 37.84 2.64875C38.356 2.5633 38.7 2.5633 39.302 2.5633C39.216 1.62343 39.216 1.11077 39.13 0.170898C36.12 0.341785 34.658 0.512671 31.734 1.02533C31.906 1.9652 31.992 2.47786 32.164 3.41773C32.852 3.24685 33.196 3.24685 33.798 3.1614Z" fill="#717485" fill-opacity="0.3"/>
<path d="M47.386 5.46835C47.128 5.46835 47.042 5.46835 46.784 5.38291C46.784 4.78481 46.87 4.52848 46.87 3.93038C47.214 3.93038 47.386 3.93038 47.644 4.01582C49.106 4.10127 50.482 3.67405 50.568 2.47785C50.74 1.45253 50.31 0.427215 47.73 0.170886C46.354 0.085443 45.666 0 44.204 0C44.204 0.512658 44.204 0.768987 44.204 1.1962C44.462 1.1962 44.548 1.1962 44.806 1.1962C44.72 2.90506 44.72 3.67405 44.72 5.29747C44.462 5.29747 44.376 5.29747 44.118 5.29747C44.118 5.81013 44.118 6.06646 44.118 6.49367C45.408 6.49367 46.01 6.57911 47.3 6.66456C47.3 6.1519 47.3 5.89557 47.386 5.46835ZM47.042 1.36709C47.3 1.36709 47.386 1.36709 47.558 1.36709C48.16 1.45253 48.59 1.70886 48.504 2.30696C48.418 2.81962 47.988 3.07595 47.386 2.99051C47.214 2.99051 47.128 2.99051 46.87 2.99051C46.956 2.30696 46.956 1.96519 47.042 1.36709Z" fill="#717485" fill-opacity="0.3"/>
<path d="M51.17 5.81016C50.912 5.81016 50.826 5.72471 50.654 5.72471C50.568 6.23737 50.568 6.4937 50.482 6.92092C52.718 7.17725 53.75 7.43357 55.986 7.94623C56.244 7.00636 56.33 6.4937 56.588 5.55383C55.9 5.38294 55.556 5.2975 54.868 5.21206C54.782 5.63927 54.696 5.8956 54.61 6.40826C54.094 6.32282 53.836 6.23737 53.32 6.15193C53.578 4.52851 53.75 3.75952 54.094 2.13611C54.352 2.13611 54.438 2.22155 54.696 2.22155C54.782 1.70889 54.868 1.53801 54.954 1.02535C53.578 0.769018 52.89 0.683575 51.514 0.427246C51.428 0.939904 51.428 1.19623 51.342 1.62345C51.6 1.62345 51.686 1.70889 51.944 1.70889C51.514 3.41775 51.342 4.27218 51.17 5.81016Z" fill="#717485" fill-opacity="0.3"/>
<path d="M59.34 8.97144C59.512 8.54422 59.512 8.28789 59.684 7.77523C59.34 7.68979 59.254 7.60435 58.91 7.5189C59.082 7.26258 59.168 7.17713 59.34 7.00625C60.114 7.26257 60.544 7.34802 61.404 7.60435C61.404 7.86068 61.404 8.03156 61.404 8.28789C61.06 8.20245 60.888 8.11701 60.458 7.94612C60.286 8.37333 60.2 8.62966 60.114 9.14232C61.662 9.65498 62.436 9.91131 63.898 10.5094C64.07 10.0822 64.156 9.82587 64.328 9.39865C64.07 9.31321 63.898 9.22777 63.64 9.14232C63.726 6.9208 63.726 5.81004 63.726 3.50308C62.092 2.90498 61.318 2.64865 59.598 2.22144C59.426 2.64865 59.426 2.90498 59.254 3.41764C59.426 3.41764 59.512 3.41764 59.684 3.50308C58.652 4.95561 58.136 5.63916 57.19 7.09169C56.932 7.00625 56.76 7.00625 56.502 6.9208C56.416 7.43346 56.33 7.60435 56.244 8.11701C57.534 8.37333 58.136 8.54422 59.34 8.97144ZM61.318 4.35751C61.318 5.21194 61.318 5.63916 61.404 6.49359C60.888 6.3227 60.63 6.23726 60.114 6.06637C60.544 5.38283 60.802 5.04106 61.318 4.35751Z" fill="#717485" fill-opacity="0.3"/>
<path d="M67.338 12.2185C68.542 12.8166 69.746 12.7311 70.692 12.4748C70.52 11.7912 70.434 11.5349 70.176 10.8514C70.09 10.8514 69.058 11.2786 68.284 10.9368C67.424 10.5096 67.252 9.56973 67.682 8.71529C68.112 7.77542 68.972 7.26276 69.66 7.60453C70.348 7.94631 70.434 8.62985 70.176 9.14251C70.864 9.48428 71.208 9.65517 71.896 10.0824C72.412 9.14251 72.67 8.7153 73.186 7.77542C72.584 7.43365 72.24 7.26276 71.638 6.92099C71.466 7.09188 71.38 7.09188 71.208 7.26276C71.208 7.09188 70.95 6.40833 69.918 5.89567C68.456 5.29757 66.134 5.72479 65.36 7.68998C64.586 9.56973 65.36 11.2786 67.338 12.2185Z" fill="#717485" fill-opacity="0.3"/>
<path d="M73.702 9.48426C72.842 10.8514 72.498 11.6203 71.638 12.9874C71.38 12.8165 71.294 12.8165 71.036 12.6457C70.778 13.0729 70.692 13.3292 70.434 13.7564C72.584 14.9526 73.616 15.6362 75.68 17.0887C76.196 16.4051 76.454 16.0634 76.97 15.3798C76.368 14.9526 76.024 14.6963 75.422 14.3545C75.25 14.6108 75.164 14.7817 74.906 15.0381C74.304 14.6963 74.046 14.44 73.53 14.0982C73.874 13.5855 74.046 13.3292 74.39 12.8165C75.078 13.2438 75.422 13.5001 76.11 13.9273C76.368 13.5001 76.54 13.3292 76.798 12.902C76.11 12.3893 75.766 12.2184 75.078 11.7058C75.336 11.2786 75.508 11.0222 75.766 10.595C76.368 11.0222 76.712 11.1931 77.314 11.6203C77.142 11.8767 77.056 12.0476 76.884 12.3039C77.486 12.7311 77.83 12.9874 78.518 13.4146C79.034 12.7311 79.206 12.3893 79.722 11.7058C77.486 10.0824 76.282 9.31338 73.874 7.94629C73.616 8.3735 73.53 8.54439 73.272 9.05705C73.358 9.22793 73.444 9.31338 73.702 9.48426Z" fill="#717485" fill-opacity="0.3"/>
</g>
<defs>
<clipPath id="clip0_209_444">
<rect width="86" height="81" fill="white"/>
</clipPath>
</defs>
</svg>
