<svg width="15" height="12" viewBox="0 0 15 12" fill="none" xmlns="http://www.w3.org/2000/svg">
<path d="M13.7949 1.17587C12.1635 -0.391745 9.5096 -0.391745 7.87867 1.17587L7.49986 1.53977L7.12127 1.17587C5.49034 -0.391957 2.83622 -0.391957 1.20529 1.17587C-0.39252 2.71166 -0.402896 5.14605 1.18123 6.83864C2.62606 8.38186 6.88727 11.7159 7.06807 11.857C7.19081 11.9529 7.33849 11.9996 7.48529 11.9996C7.49015 11.9996 7.49501 11.9996 7.49964 11.9994C7.65152 12.0062 7.8045 11.9561 7.93122 11.857C8.11201 11.7159 12.3737 8.38186 13.8189 6.83843C15.4028 5.14605 15.3925 2.71166 13.7949 1.17587ZM12.8344 5.98694C11.7079 7.18981 8.61136 9.67067 7.49964 10.551C6.38793 9.67088 3.29208 7.19023 2.16579 5.98715C1.0607 4.80656 1.05033 3.12521 2.14173 2.07617C2.69913 1.54062 3.43115 1.27263 4.16317 1.27263C4.89519 1.27263 5.62721 1.5404 6.18461 2.07617L7.01729 2.87653C7.11641 2.9718 7.24136 3.02866 7.37249 3.04861C7.58529 3.09253 7.8162 3.03545 7.98177 2.87674L8.81489 2.07617C9.92992 1.00485 11.7436 1.00506 12.858 2.07617C13.9494 3.12521 13.939 4.80656 12.8344 5.98694Z" fill="#717485"/>
</svg>
