<svg width="97" height="50" viewBox="0 0 97 50" fill="none" xmlns="http://www.w3.org/2000/svg">
<path d="M88.0492 0.0515137V14.7778H67.3501C65.5479 14.7778 63.8744 14.3144 62.3812 13.4133C60.8622 12.5122 59.6522 11.3279 58.7511 9.80897C57.8501 8.31574 57.4124 6.6423 57.4124 4.81439V0.0515137H49.1482V7.80084C49.6631 10.7615 50.7701 13.3876 52.4693 15.7046C54.1942 18.0217 56.3311 19.8754 58.9314 21.2399C61.5059 22.6044 64.3121 23.2737 67.3501 23.2737H87.7918C87.0194 25.1274 85.8094 26.5949 84.1617 27.7534C82.514 28.8862 80.6604 29.4526 78.6007 29.4526C73.6834 29.4526 68.766 29.4526 63.8487 29.4784C58.9571 29.4784 54.6272 29.4784 49.7356 29.4784C49.7356 29.4784 48.5608 31.7816 46.0152 34.009C43.4697 36.2363 41.5117 38 41.5117 38C46.3518 38 58.8284 38 63.617 37.9743C68.4314 37.9743 73.2715 37.9485 78.1116 37.9485C82.6685 37.8713 86.6333 36.4553 89.9544 33.7521C93.3013 31.0488 95.5154 27.5475 96.5709 23.2737V0.0515137H88.0492Z" fill="white"/>
<path d="M29.2209 37.897C32.5935 37.897 35.6829 37.0732 38.4634 35.3997C41.2697 33.7263 43.5095 31.5122 45.1572 28.706C46.8306 25.9255 47.6545 22.8361 47.6545 19.4377V18.4594C47.6545 15.0867 46.8306 11.9973 45.1572 9.19106C43.5095 6.41057 41.2697 4.17073 38.4634 2.49729C35.6829 0.823849 32.5935 0 29.2209 0H0V37.897H29.2209ZM29.2209 29.4011H8.49594V8.49594H29.2209C31.023 8.49594 32.6965 8.95935 34.2155 9.86044C35.7087 10.7615 36.9187 11.9458 37.8198 13.4648C38.7209 14.958 39.1585 16.6314 39.1585 18.4594V19.4377C39.1585 21.2656 38.7209 22.939 37.8198 24.4323C36.9187 25.9512 35.7087 27.1355 34.2155 28.0366C32.6965 28.9377 31.023 29.4011 29.2209 29.4011Z" fill="white"/>
<path d="M27.9804 46.025C28.0795 46.025 28.1505 46.0466 28.1936 46.0896C28.241 46.1327 28.2647 46.1887 28.2647 46.2576C28.2647 46.3696 28.2302 46.4687 28.1613 46.5548C28.0967 46.641 27.9933 46.6862 27.8512 46.6905C27.5109 46.6948 27.2051 46.669 26.9337 46.613C26.6322 47.2548 26.2682 47.7889 25.8418 48.2153C25.4197 48.6374 25.0019 48.8485 24.5884 48.8485C24.2093 48.8485 23.9251 48.6482 23.7355 48.2476C23.546 47.8427 23.4383 47.3021 23.4125 46.6259C23.1541 47.3754 22.8612 47.9332 22.5338 48.2993C22.2108 48.6654 21.8662 48.8485 21.5 48.8485C21.0865 48.8485 20.7743 48.5922 20.5632 48.0796C20.3521 47.5627 20.2466 46.8693 20.2466 45.9992C20.2466 45.366 20.3026 44.6704 20.4146 43.9123C20.4448 43.6969 20.4986 43.5483 20.5761 43.4665C20.658 43.3803 20.785 43.3373 20.9573 43.3373C21.0865 43.3373 21.1856 43.3653 21.2545 43.4213C21.3278 43.4773 21.3644 43.5806 21.3644 43.7314C21.3644 43.7615 21.3601 43.8197 21.3514 43.9058C21.2222 44.7888 21.1576 45.5405 21.1576 46.1607C21.1576 46.7379 21.2072 47.1837 21.3062 47.4981C21.4053 47.8126 21.5388 47.9698 21.7068 47.9698C21.8576 47.9698 22.0385 47.8126 22.2495 47.4981C22.4649 47.1794 22.6781 46.7099 22.8892 46.0896C23.1002 45.4651 23.279 44.7221 23.4254 43.8606C23.4599 43.6625 23.5223 43.5268 23.6128 43.4536C23.7075 43.376 23.8346 43.3373 23.994 43.3373C24.1275 43.3373 24.2244 43.3674 24.2847 43.4277C24.3493 43.4837 24.3816 43.5699 24.3816 43.6862C24.3816 43.7551 24.3773 43.8089 24.3687 43.8477C24.2481 44.5498 24.1878 45.2519 24.1878 45.954C24.1878 46.4321 24.2029 46.8133 24.233 47.0975C24.2675 47.3818 24.33 47.5993 24.4204 47.7501C24.5152 47.8966 24.6508 47.9698 24.8274 47.9698C25.0342 47.9698 25.2646 47.8147 25.5188 47.5046C25.7729 47.1902 26.0055 46.8003 26.2166 46.3352C25.9538 46.1715 25.7557 45.9604 25.6221 45.702C25.4886 45.4392 25.4219 45.1377 25.4219 44.7974C25.4219 44.4572 25.4735 44.1707 25.5769 43.9381C25.6846 43.7012 25.8289 43.5246 26.0098 43.4083C26.195 43.292 26.3996 43.2339 26.6236 43.2339C26.8993 43.2339 27.1168 43.333 27.2762 43.5311C27.4398 43.7292 27.5217 44.0006 27.5217 44.3452C27.5217 44.8319 27.4161 45.3725 27.2051 45.9669C27.4248 46.0056 27.6832 46.025 27.9804 46.025ZM26.0744 44.7522C26.0744 45.1743 26.2101 45.4866 26.4815 45.6891C26.6494 45.2066 26.7334 44.8082 26.7334 44.4938C26.7334 44.3129 26.7097 44.1815 26.6624 44.0997C26.615 44.0135 26.5504 43.9704 26.4685 43.9704C26.3522 43.9704 26.2575 44.0394 26.1842 44.1772C26.111 44.3107 26.0744 44.5024 26.0744 44.7522ZM32.4565 43.376C32.5685 43.376 32.6633 43.404 32.7408 43.46C32.8183 43.5117 32.8571 43.5763 32.8571 43.6539C32.8571 43.7917 32.814 43.9037 32.7279 43.9898C32.6417 44.0717 32.519 44.1126 32.3596 44.1126C32.1098 44.1126 31.9203 44.1147 31.7911 44.119C31.7824 44.1707 31.7437 44.4033 31.6748 44.8168C31.5972 45.2777 31.5498 45.5598 31.5326 45.6632L31.3969 46.5096C31.3022 47.1428 31.2268 47.6726 31.1708 48.099C31.2613 48.0947 31.384 48.0925 31.5391 48.0925C31.7674 48.0925 31.9224 48.1227 32.0043 48.183C32.0861 48.2433 32.127 48.3337 32.127 48.4543C32.127 48.5663 32.0818 48.6611 31.9913 48.7386C31.9052 48.8162 31.7824 48.8549 31.6231 48.8549C31.5154 48.8549 31.3452 48.8506 31.1127 48.842C30.8973 48.8334 30.7551 48.8291 30.6862 48.8291C30.4149 48.8291 30.1177 48.8528 29.7946 48.9002C29.6525 48.9217 29.5513 48.9325 29.4909 48.9325C29.3962 48.9325 29.3165 48.9066 29.2519 48.8549C29.1873 48.8032 29.155 48.7279 29.155 48.6288C29.155 48.4737 29.2239 48.3531 29.3617 48.267C29.4996 48.1808 29.6934 48.1356 29.9432 48.1313L30.2469 48.1248L30.2663 47.9827C30.3696 47.2935 30.445 46.8068 30.4924 46.5225L30.6345 45.6761C30.7207 45.1765 30.7982 44.6618 30.8671 44.132L30.3244 44.1384C30.1694 44.1384 30.0617 44.1147 30.0014 44.0674C29.9454 44.0157 29.9174 43.9446 29.9174 43.8541C29.9174 43.5612 30.1284 43.404 30.5505 43.3825C30.7487 43.3739 30.9899 43.3696 31.2742 43.3696L32.4565 43.376ZM39.8357 43.4536C39.9692 43.4794 40.0683 43.5246 40.1329 43.5892C40.2018 43.6539 40.2363 43.7292 40.2363 43.8154C40.2363 43.9575 40.1954 44.0609 40.1135 44.1255C40.036 44.1901 39.9111 44.216 39.7388 44.203C39.3511 44.1729 39.0475 44.1535 38.8278 44.1449C38.6124 44.132 38.3282 44.1233 37.975 44.119C37.8156 44.9116 37.6691 45.7084 37.5356 46.5096C37.4882 46.8025 37.4387 47.1428 37.387 47.5304C37.3353 47.9138 37.3009 48.2239 37.2836 48.4608C37.275 48.5857 37.2233 48.6826 37.1286 48.7516C37.0338 48.8162 36.9197 48.8485 36.7861 48.8485C36.644 48.8485 36.5342 48.814 36.4566 48.7451C36.3791 48.6762 36.3403 48.5857 36.3403 48.4737C36.3403 48.3704 36.3554 48.2002 36.3856 47.9633C36.42 47.7221 36.4588 47.4701 36.5019 47.2074C36.5492 46.9446 36.5858 46.7163 36.6117 46.5225C36.6591 46.1952 36.7129 45.87 36.7732 45.5469C36.8335 45.2239 36.8938 44.918 36.9541 44.6295C36.967 44.5648 36.9821 44.4916 36.9993 44.4098C37.0166 44.3236 37.036 44.2289 37.0575 44.1255C36.6354 44.1384 36.3037 44.1729 36.0625 44.2289C35.8213 44.2849 35.649 44.3646 35.5456 44.4679C35.4466 44.567 35.397 44.6962 35.397 44.8556C35.397 45.002 35.4401 45.142 35.5262 45.2756C35.5435 45.3057 35.5521 45.338 35.5521 45.3725C35.5521 45.4543 35.5026 45.5318 35.4035 45.6051C35.3087 45.674 35.2097 45.7084 35.1063 45.7084C35.0331 45.7084 34.9728 45.6869 34.9254 45.6438C34.8392 45.5706 34.7682 45.4672 34.7122 45.3337C34.6562 45.1959 34.6282 45.0408 34.6282 44.8685C34.6282 44.5024 34.7466 44.2095 34.9835 43.9898C35.2247 43.7658 35.5887 43.6022 36.0754 43.4988C36.5665 43.3954 37.1953 43.3437 37.962 43.3437C38.4358 43.3437 38.8127 43.3523 39.0927 43.3696C39.377 43.3868 39.6247 43.4148 39.8357 43.4536ZM47.1383 47.3754C47.1943 47.3754 47.2374 47.4012 47.2675 47.4529C47.302 47.5046 47.3192 47.5757 47.3192 47.6661C47.3192 47.8341 47.2783 47.9676 47.1965 48.0667C46.77 48.5879 46.3156 48.8485 45.8332 48.8485C45.4154 48.8485 45.0816 48.6869 44.8318 48.3639C44.5819 48.0408 44.457 47.5778 44.457 46.9748C44.457 46.8283 44.4635 46.6819 44.4764 46.5354C44.1921 46.5871 43.882 46.6259 43.546 46.6517C43.322 46.669 43.1691 46.6797 43.0873 46.684C43.0011 47.1234 42.8805 47.6618 42.7255 48.2993C42.635 48.674 42.4627 48.8614 42.2086 48.8614C41.9329 48.8614 41.7951 48.7365 41.7951 48.4867C41.7951 48.4307 41.8059 48.3531 41.8274 48.2541C41.9739 47.664 42.0902 47.1643 42.1763 46.7551L41.8662 46.768C41.724 46.768 41.6207 46.7443 41.556 46.697C41.4914 46.6453 41.4591 46.5634 41.4591 46.4514C41.4591 46.3093 41.5001 46.2059 41.5819 46.1413C41.6637 46.0724 41.7994 46.0336 41.9889 46.025L42.3314 46.0121C42.4434 45.4048 42.4993 44.9417 42.4993 44.623C42.4993 44.4206 42.4692 44.2827 42.4089 44.2095C42.3486 44.1363 42.2689 44.0997 42.1698 44.0997C41.8683 44.0997 41.528 44.3516 41.149 44.8556C41.093 44.9288 41.0306 44.9654 40.9616 44.9654C40.9013 44.9654 40.8496 44.9374 40.8066 44.8814C40.7635 44.8254 40.742 44.7544 40.742 44.6682C40.742 44.5347 40.7958 44.3926 40.9035 44.2418C41.093 43.9791 41.3321 43.7637 41.6207 43.5957C41.9092 43.4234 42.2021 43.3373 42.4993 43.3373C42.7793 43.3373 42.9947 43.4342 43.1454 43.628C43.3005 43.8175 43.378 44.1147 43.378 44.5196C43.378 44.8771 43.3263 45.3617 43.223 45.9733L43.8561 45.941C44.1275 45.9281 44.3601 45.9066 44.5539 45.8764C44.6315 45.4026 44.7499 44.959 44.9093 44.5455C45.0687 44.132 45.2668 43.796 45.5037 43.5376C45.7406 43.2791 46.0055 43.1499 46.2984 43.1499C46.5138 43.1499 46.6839 43.236 46.8088 43.4083C46.9337 43.5763 46.9962 43.7981 46.9962 44.0738C46.9962 45.142 46.4513 45.8829 45.3616 46.2964C45.3486 46.4687 45.3422 46.6474 45.3422 46.8326C45.3422 47.2849 45.3982 47.6058 45.5102 47.7953C45.6221 47.9849 45.7794 48.0796 45.9818 48.0796C46.1584 48.0796 46.3199 48.0344 46.4664 47.9439C46.6128 47.8492 46.7787 47.6898 46.9639 47.4658C47.0156 47.4055 47.0737 47.3754 47.1383 47.3754ZM46.2661 43.712C46.1713 43.712 46.0701 43.7981 45.9624 43.9704C45.859 44.1427 45.76 44.3775 45.6652 44.6747C45.5705 44.9719 45.4951 45.2971 45.4391 45.6503C45.7837 45.5081 46.0378 45.3057 46.2015 45.043C46.3652 44.7802 46.447 44.4421 46.447 44.0286C46.447 43.9295 46.4298 43.852 46.3953 43.796C46.3608 43.74 46.3178 43.712 46.2661 43.712ZM57.0733 47.3754C57.1293 47.3754 57.1724 47.4012 57.2025 47.4529C57.237 47.5046 57.2542 47.5757 57.2542 47.6661C57.2542 47.8341 57.2133 47.9676 57.1315 48.0667C56.8903 48.3553 56.6555 48.5577 56.4272 48.674C56.2032 48.7903 55.9319 48.8485 55.6131 48.8485C55.3892 48.8485 55.1824 48.8205 54.9929 48.7645C54.8034 48.7085 54.5729 48.6245 54.3016 48.5125C54.056 48.4048 53.8191 48.3165 53.5909 48.2476C53.3712 48.6482 53.0417 48.8485 52.6023 48.8485C52.3611 48.8485 52.1694 48.7946 52.0273 48.6869C51.8809 48.575 51.8076 48.4328 51.8076 48.2605C51.8076 48.0495 51.9089 47.875 52.1113 47.7372C52.3137 47.595 52.5829 47.524 52.9189 47.524H53.0029L53.1192 45.6438C53.145 45.2131 53.2226 44.8577 53.3518 44.5778C53.481 44.2978 53.6598 44.0587 53.8881 43.8606C54.0862 43.6883 54.3123 43.5591 54.5665 43.4729C54.8206 43.3825 55.0898 43.3373 55.3741 43.3373C55.8393 43.3373 56.1968 43.4579 56.4466 43.6991C56.6964 43.9403 56.8213 44.2547 56.8213 44.6424C56.8213 44.9051 56.774 45.1183 56.6792 45.282C56.5844 45.4414 56.4531 45.5211 56.2851 45.5211C56.1645 45.5211 56.0697 45.4931 56.0008 45.4371C55.9319 45.3768 55.8974 45.2928 55.8974 45.1851C55.8974 45.1463 55.906 45.0753 55.9233 44.9719C55.9491 44.8513 55.962 44.7436 55.962 44.6488C55.962 44.4679 55.9082 44.3258 55.8005 44.2224C55.6971 44.1147 55.5378 44.0609 55.3224 44.0609C54.9434 44.0609 54.6505 44.1858 54.4437 44.4356C54.237 44.6811 54.1056 45.0688 54.0496 45.5986L53.901 47.0652C53.8794 47.272 53.8514 47.4507 53.817 47.6015C54.0927 47.6489 54.4372 47.7243 54.8507 47.8276C55.092 47.8879 55.2772 47.931 55.4064 47.9569C55.5356 47.9827 55.6497 47.9956 55.7488 47.9956C55.9986 47.9956 56.2119 47.9547 56.3885 47.8729C56.5694 47.7867 56.7395 47.651 56.8989 47.4658C56.9506 47.4055 57.0087 47.3754 57.0733 47.3754ZM60.8133 48.8485C60.4299 48.8485 60.0832 48.7623 59.773 48.59C59.4672 48.4177 59.2239 48.1658 59.0429 47.8341C58.862 47.4981 58.7716 47.0975 58.7716 46.6324C58.7716 45.9776 58.89 45.4005 59.1269 44.9008C59.3681 44.4012 59.6934 44.0157 60.1025 43.7443C60.516 43.4729 60.9726 43.3373 61.4723 43.3373C61.8556 43.3373 62.2002 43.4234 62.506 43.5957C62.8162 43.768 63.0617 44.0221 63.2426 44.3581C63.4235 44.6898 63.5139 45.0882 63.5139 45.5534C63.5139 46.2081 63.3933 46.7853 63.1521 47.2849C62.9152 47.7846 62.59 48.1701 62.1765 48.4414C61.7673 48.7128 61.3129 48.8485 60.8133 48.8485ZM60.8779 48.0861C61.2138 48.0861 61.5089 47.9827 61.763 47.7759C62.0215 47.5692 62.2196 47.2828 62.3574 46.9166C62.4953 46.5462 62.5642 46.1284 62.5642 45.6632C62.5642 45.1506 62.4565 44.763 62.2411 44.5002C62.0258 44.2332 61.7479 44.0997 61.4077 44.0997C61.076 44.0997 60.7831 44.203 60.529 44.4098C60.2748 44.6122 60.0767 44.8987 59.9346 45.2691C59.7924 45.6352 59.7213 46.053 59.7213 46.5225C59.7213 47.0351 59.829 47.4249 60.0444 47.692C60.2598 47.9547 60.5376 48.0861 60.8779 48.0861ZM71.1534 46.025C71.2525 46.025 71.3236 46.0466 71.3666 46.0896C71.414 46.1327 71.4377 46.1887 71.4377 46.2576C71.4377 46.3696 71.4032 46.4687 71.3343 46.5548C71.2697 46.641 71.1663 46.6862 71.0242 46.6905C70.6796 46.6991 70.3738 46.6733 70.1067 46.613C69.8009 47.2548 69.4305 47.7889 68.9955 48.2153C68.5647 48.6374 68.1318 48.8485 67.6968 48.8485C67.2488 48.8485 66.915 48.5879 66.6954 48.0667C66.4757 47.5455 66.3658 46.8413 66.3658 45.954C66.3658 45.1959 66.4197 44.5153 66.5274 43.9123C66.5661 43.6883 66.62 43.5376 66.6889 43.46C66.7621 43.3782 66.8849 43.3373 67.0572 43.3373C67.3415 43.3373 67.4836 43.46 67.4836 43.7055C67.4836 43.7314 67.4793 43.7788 67.4707 43.8477C67.3415 44.623 67.2768 45.3251 67.2768 45.954C67.2768 46.613 67.3307 47.1148 67.4384 47.4594C67.5504 47.7996 67.7162 47.9698 67.9359 47.9698C68.1598 47.9698 68.4032 47.8147 68.666 47.5046C68.9287 47.1945 69.1699 46.8046 69.3896 46.3352C69.1268 46.1715 68.9287 45.9604 68.7952 45.702C68.6616 45.4392 68.5949 45.1377 68.5949 44.7974C68.5949 44.4572 68.6466 44.1707 68.7499 43.9381C68.8576 43.7012 69.0019 43.5246 69.1828 43.4083C69.368 43.292 69.5726 43.2339 69.7966 43.2339C70.0723 43.2339 70.2898 43.333 70.4492 43.5311C70.6129 43.7292 70.6947 44.0006 70.6947 44.3452C70.6947 44.8405 70.587 45.3811 70.3716 45.9669C70.5999 46.0056 70.8605 46.025 71.1534 46.025ZM69.2474 44.7522C69.2474 45.1743 69.3831 45.4866 69.6545 45.6891C69.8225 45.2066 69.9065 44.8082 69.9065 44.4938C69.9065 44.3129 69.8828 44.1815 69.8354 44.0997C69.788 44.0135 69.7234 43.9704 69.6416 43.9704C69.5253 43.9704 69.4305 44.0394 69.3573 44.1772C69.284 44.3107 69.2474 44.5024 69.2474 44.7522ZM77.3152 47.6403C77.3798 47.6144 77.4337 47.6015 77.4767 47.6015C77.5457 47.6015 77.5973 47.6273 77.6318 47.679C77.6663 47.7307 77.6835 47.7975 77.6835 47.8793C77.6835 48.0085 77.6512 48.1184 77.5866 48.2088C77.5263 48.2993 77.4207 48.3811 77.27 48.4543C77.0159 48.575 76.6863 48.6719 76.2815 48.7451C75.8766 48.814 75.4781 48.8485 75.0862 48.8485C74.5435 48.8485 74.089 48.7882 73.7229 48.6676C73.3568 48.5426 73.0833 48.3725 72.9024 48.1571C72.7258 47.9418 72.6375 47.6984 72.6375 47.4271C72.6375 47.0566 72.7559 46.7422 72.9928 46.4838C73.234 46.221 73.5872 46.0315 74.0524 45.9152C73.7983 45.842 73.6023 45.7127 73.4645 45.5275C73.331 45.3423 73.2642 45.1356 73.2642 44.9073C73.2642 44.5972 73.3611 44.3236 73.5549 44.0867C73.7531 43.8455 74.018 43.6603 74.3496 43.5311C74.6813 43.4019 75.0453 43.3373 75.4415 43.3373C75.9756 43.3373 76.3762 43.4536 76.6433 43.6862C76.9103 43.9144 77.0439 44.2116 77.0439 44.5778C77.0439 44.8319 76.9965 45.0387 76.9017 45.198C76.8113 45.3531 76.6799 45.4306 76.5076 45.4306C76.387 45.4306 76.2922 45.4048 76.2233 45.3531C76.1544 45.2971 76.1199 45.2153 76.1199 45.1076C76.1199 45.0343 76.1307 44.9547 76.1522 44.8685C76.1738 44.7264 76.1845 44.6295 76.1845 44.5778C76.1845 44.4227 76.1264 44.2978 76.0101 44.203C75.8938 44.104 75.7 44.0544 75.4286 44.0544C75.0625 44.0544 74.7696 44.132 74.5499 44.287C74.3303 44.4421 74.2204 44.651 74.2204 44.9137C74.2204 45.1162 74.3023 45.2842 74.4659 45.4177C74.6339 45.5469 74.9053 45.618 75.28 45.6309C75.3748 45.6352 75.4415 45.6568 75.4803 45.6955C75.5191 45.7343 75.5385 45.7989 75.5385 45.8893C75.5385 46.1736 75.4092 46.3179 75.1508 46.3222C74.7933 46.3308 74.4961 46.3804 74.2592 46.4708C74.0266 46.5613 73.8564 46.6776 73.7488 46.8197C73.6454 46.9576 73.5937 47.1062 73.5937 47.2655C73.5937 47.5326 73.7186 47.735 73.9684 47.8729C74.2183 48.0064 74.6145 48.0732 75.1573 48.0732C75.5148 48.0732 75.8916 48.0322 76.2879 47.9504C76.6885 47.8642 77.0309 47.7609 77.3152 47.6403Z" fill="white"/>
</svg>
