<svg width="603" height="221" viewBox="0 0 603 221" fill="none" xmlns="http://www.w3.org/2000/svg">
<mask id="mask0_52_4445" style="mask-type:alpha" maskUnits="userSpaceOnUse" x="0" y="0" width="603" height="221">
<rect width="603" height="221" fill="#D9D9D9"/>
</mask>
<g mask="url(#mask0_52_4445)">
<g opacity="0.4">
<path opacity="0.38" d="M460.558 -1157.77L353.997 -857.71C353.263 -855.644 350.762 -854.847 348.968 -856.108L83.3651 -1042.9C80.6016 -1044.84 82.1778 -1049.19 85.5448 -1048.91L570.047 -1008.79C573.612 -1008.49 574.245 -1003.54 570.868 -1002.36L-307.304 -695.058C-309.355 -694.34 -311.531 -695.758 -311.702 -697.925L-323.704 -850.451C-323.973 -853.866 -319.516 -855.395 -317.633 -852.533L-214.357 -695.618C-213.578 -694.433 -212.13 -693.876 -210.757 -694.233L-0.832817 -748.705C0.685857 -749.099 1.72001 -750.504 1.64475 -752.071L-14.5204 -1088.71C-14.6895 -1092.23 -19.5095 -1093.09 -20.8823 -1089.84L-323.577 -373.982C-324.227 -372.443 -323.631 -370.661 -322.186 -369.824L-235.25 -319.458C-232.47 -317.848 -229.255 -320.738 -230.562 -323.673L-297.347 -473.707C-298.27 -475.78 -296.883 -478.146 -294.623 -478.354L-211.084 -486.037C-208.978 -486.23 -207.231 -484.427 -207.492 -482.328L-265.412 -16.1481C-265.784 -13.155 -269.636 -12.1747 -271.394 -14.626L-345.707 -118.286C-347.18 -120.34 -345.904 -123.219 -343.393 -123.508L-163.679 -144.213C-161.597 -144.452 -159.818 -142.724 -159.998 -140.636L-168.804 -38.423C-169.036 -35.7317 -172.218 -34.4337 -174.266 -36.1947L-207.709 -64.9484C-209.836 -66.777 -208.871 -70.2562 -206.106 -70.7275L-114.462 -86.3498C-113.852 -86.4537 -113.225 -86.3849 -112.653 -86.1511L234.788 55.6883C236.537 56.4027 238.53 55.511 239.162 53.7299L274.502 -45.7308C275.268 -47.8879 273.668 -50.1539 271.379 -50.1539H170.881C167.18 -50.1539 166.264 -45.008 169.737 -43.7303L266.838 -8.01155C267.324 -7.83283 267.845 -7.77043 268.359 -7.82936L637.76 -50.1539" stroke="url(#paint0_linear_52_4445)" stroke-opacity="0.47" stroke-width="9.94098"/>
<path opacity="0.38" d="M508 222L261.141 -109.639C259.875 -111.34 257.359 -111.431 255.974 -109.825L-236.997 461.509C-239.427 464.325 -236.088 468.391 -232.853 466.556L476.884 63.9227C479.351 62.5232 479.034 58.8732 476.363 57.9197L-539.241 -304.62C-541.297 -305.353 -543.488 -303.935 -543.659 -301.759L-558.436 -114.086C-558.705 -110.671 -554.249 -109.142 -552.365 -112.003L-425.864 -304.095C-425.084 -305.279 -423.637 -305.836 -422.265 -305.48L-167.656 -239.452C-166.137 -239.058 -165.102 -237.652 -165.178 -236.085L-184.877 173.913C-185.046 177.434 -189.865 178.291 -191.239 175.045L-558.307 -692.551C-558.958 -694.09 -558.362 -695.872 -556.916 -696.71L-449.534 -758.885C-446.754 -760.495 -443.54 -757.604 -444.847 -754.669L-526.776 -570.721C-527.699 -568.648 -526.312 -566.281 -524.052 -566.073L-421.328 -556.632C-419.222 -556.439 -417.476 -558.241 -417.737 -560.341L-488.026 -1125.75C-488.398 -1128.75 -492.249 -1129.73 -494.007 -1127.28L-585.486 -999.747C-586.959 -997.693 -585.683 -994.812 -583.172 -994.523L-364.077 -969.297C-361.995 -969.057 -360.217 -970.786 -360.397 -972.873L-371.222 -1098.45C-371.454 -1101.14 -374.635 -1102.44 -376.683 -1100.68L-419.211 -1064.14C-421.339 -1062.31 -420.374 -1058.83 -417.608 -1058.36L-305.469 -1039.25C-304.734 -1039.13 -303.978 -1039.25 -303.324 -1039.61L-43.3781 -1181.62C-42.4438 -1182.13 -41.3212 -1182.17 -40.3607 -1181.71L153.114 -1089.25C156.298 -1087.73 155.214 -1082.95 151.685 -1082.95H35.373C31.6717 -1082.95 30.7556 -1088.1 34.2296 -1089.37L155.303 -1133.89C155.789 -1134.06 156.31 -1134.13 156.824 -1134.07L603.223 -1082.95" stroke="url(#paint1_linear_52_4445)" stroke-opacity="0.47" stroke-width="9.94098"/>
<path opacity="0.38" d="M-944 -97.0158L-528.424 -244.732C-526.36 -245.466 -525.563 -247.966 -526.823 -249.759L-788.167 -621.712C-790.11 -624.477 -794.46 -622.901 -794.181 -619.534L-737.952 60.09C-737.657 63.6557 -732.702 64.2878 -731.521 60.9105L-305.025 -1158.98C-304.308 -1161.03 -305.727 -1163.21 -307.893 -1163.38L-524.86 -1180.47C-528.274 -1180.74 -529.803 -1176.28 -526.943 -1174.4L-305.586 -1028.58C-304.402 -1027.8 -303.845 -1026.35 -304.201 -1024.98L-379.844 -733.204C-380.238 -731.685 -381.643 -730.65 -383.211 -730.725L-854.243 -753.364C-857.763 -753.533 -858.621 -758.352 -855.375 -759.726L138.466 -1180.34C140.005 -1180.99 141.788 -1180.39 142.625 -1178.95L214.625 -1054.56C216.235 -1051.78 213.343 -1048.56 210.409 -1049.87L-1.75504 -1144.4C-3.82837 -1145.32 -6.19568 -1143.93 -6.40336 -1141.67L-17.3078 -1022.99C-17.5014 -1020.88 -15.6984 -1019.14 -13.5991 -1019.4L634.372 -1099.98C637.364 -1100.35 638.345 -1104.2 635.895 -1105.96L485.799 -1213.66C484.675 -1214.47 483.168 -1214.49 482.019 -1213.72L250.257 -1058.04C247.417 -1056.13 248.98 -1051.7 252.39 -1051.99L395.106 -1064.3L195.845 -1038.68C193.066 -1038.32 191.957 -1034.89 194.002 -1032.97L263.461 -967.902C265.77 -965.739 264.025 -961.881 260.877 -962.185L-258.296 -1012.42" stroke="url(#paint2_linear_52_4445)" stroke-opacity="0.47" stroke-width="9.94098"/>
</g>
</g>
<defs>
<linearGradient id="paint0_linear_52_4445" x1="144.385" y1="32.2508" x2="144.385" y2="-1157.77" gradientUnits="userSpaceOnUse">
<stop stop-color="white"/>
<stop offset="1" stop-color="white" stop-opacity="0"/>
</linearGradient>
<linearGradient id="paint1_linear_52_4445" x1="7.2262" y1="-1182.44" x2="7.2262" y2="254.27" gradientUnits="userSpaceOnUse">
<stop stop-color="white"/>
<stop offset="1" stop-color="white" stop-opacity="0"/>
</linearGradient>
<linearGradient id="paint2_linear_52_4445" x1="697.951" y1="-569.687" x2="-943.999" y2="-569.687" gradientUnits="userSpaceOnUse">
<stop stop-color="white"/>
<stop offset="1" stop-color="white" stop-opacity="0"/>
</linearGradient>
</defs>
</svg>
