<svg width="98" height="80" viewBox="0 0 98 80" fill="none" xmlns="http://www.w3.org/2000/svg">
<g clip-path="url(#clip0_52_5208)">
<path d="M95.941 46.9904C94.863 46.9904 93.491 47.2816 92.217 48.1554C91.335 48.835 90.649 49.7088 90.159 50.5826C90.159 50.5826 90.355 50.2913 90.453 49.7088C90.551 49.1263 90.747 48.4467 90.943 47.7671C91.139 47.0875 91.335 46.3108 91.433 45.8253C91.531 45.2428 91.531 44.9515 91.531 44.9515C92.315 45.0486 94.373 45.2428 95.941 43.6894C96.431 43.204 96.823 42.6214 97.117 41.9418C97.411 41.2622 97.509 40.5826 97.607 40.0001C97.803 38.7379 97.803 37.7671 97.803 37.7671C97.803 37.7671 97.117 37.7671 96.137 37.9612C95.255 38.1554 94.079 38.6409 93.197 39.6117C92.609 40.2913 92.217 41.1651 91.923 41.9418C91.923 41.9418 91.923 41.7477 92.021 41.5535C92.021 41.2622 92.021 40.971 92.021 40.6797C92.021 40.0001 92.119 39.3205 92.119 39.3205C92.413 38.9321 92.903 38.3496 93.295 37.4758C93.589 36.6991 93.883 35.6311 93.785 34.5632C93.785 33.1069 92.903 31.8447 92.217 31.068C91.531 30.2913 90.943 29.8059 90.943 29.8059C90.943 29.8059 90.551 30.4855 90.159 31.4564C89.767 32.4273 89.571 33.6894 89.571 34.9515C89.669 35.9224 89.963 36.7962 90.355 37.5729C90.747 38.3496 91.139 38.9321 91.433 39.3205C91.433 39.3205 91.433 40.5826 91.335 41.8447C91.139 43.1069 90.943 44.369 90.943 44.369C90.845 43.4952 90.649 42.6214 90.159 41.9418C89.473 40.971 88.297 40.4855 87.415 40.1943C86.533 39.8059 85.847 39.8059 85.847 39.8059C85.847 39.8059 85.847 40.0001 85.847 40.2913C85.847 40.5826 85.847 40.971 85.847 41.4564C85.847 42.4273 86.043 43.5923 86.729 44.5632C87.709 46.1166 89.571 46.8933 90.355 47.0875C90.355 47.0875 89.963 48.5438 89.571 49.903C89.081 51.2622 88.493 52.6214 88.493 52.6214C88.591 51.6506 88.591 50.4855 88.297 49.6117C87.709 48.2525 86.533 47.4758 85.651 47.0875C84.671 46.602 83.887 46.4078 83.887 46.4078C83.887 46.4078 83.691 47.1845 83.593 48.1554C83.397 49.1263 83.299 50.4855 83.789 51.7477C84.475 53.7865 86.435 55.0486 87.219 55.437C87.219 55.437 86.533 56.6991 85.847 57.9612C85.063 59.1263 84.181 60.2913 84.181 60.2913C84.573 59.2234 84.965 57.9612 84.671 56.7962C84.377 55.2428 83.299 54.0778 82.417 53.3981C81.437 52.7185 80.653 52.3302 80.653 52.3302C80.653 52.3302 80.163 53.0098 79.869 54.1748C79.477 55.2428 78.987 56.5049 79.281 58.0583C79.575 60.3884 81.339 62.3302 82.025 63.0098C82.025 63.0098 81.143 64.0778 80.163 65.0486C79.085 65.9224 78.105 66.8933 78.105 66.8933C78.889 65.8253 79.673 64.5632 79.673 63.1069C79.673 61.3593 78.889 59.903 78.007 58.9321C77.223 57.9612 76.341 57.3787 76.341 57.3787C76.341 57.3787 75.655 57.9612 75.067 59.0292C74.773 59.6117 74.381 60.0972 74.087 60.7768C73.793 61.4564 73.597 62.136 73.499 63.0098C73.205 65.6312 74.577 68.2525 75.165 69.0292C75.165 69.0292 74.871 69.2234 74.381 69.6117C74.185 69.8059 73.891 70.0001 73.597 70.1943C73.303 70.3884 72.911 70.5826 72.617 70.7768C71.245 71.4564 69.873 72.2331 69.873 72.2331L70.167 72.9127C70.167 72.9127 72.127 71.9418 74.087 70.8739C74.969 70.2913 75.949 69.6117 76.635 69.1263C77.027 68.9321 77.223 68.7379 77.517 68.5438C77.713 68.4467 77.811 68.2525 77.811 68.2525C78.497 69.0292 80.457 71.3593 83.789 70.971C85.847 70.7768 87.709 69.4176 89.179 68.2525C89.571 67.9613 89.865 67.67 90.159 67.3787C90.453 67.0875 90.649 66.7962 90.845 66.602C91.237 66.1166 91.433 65.8253 91.433 65.8253C91.433 65.8253 90.649 65.1457 89.473 64.6603C88.885 64.369 88.101 64.1748 87.317 64.0778C86.533 63.9807 85.651 63.9807 84.671 64.1748C83.103 64.4661 81.829 65.2428 80.653 65.9224C80.653 65.9224 80.947 65.7282 81.241 65.3399C81.633 64.9515 82.025 64.4661 82.515 63.8836C83.005 63.3981 83.495 62.8156 83.789 62.4273C84.083 62.0389 84.279 61.7477 84.279 61.7477C85.063 62.3302 87.317 63.7865 90.061 62.9127C91.825 62.3302 93.197 60.7768 94.177 59.4176C94.667 58.7379 95.059 58.1554 95.255 57.67C95.451 57.1845 95.549 56.8933 95.549 56.8933C95.549 56.8933 94.765 56.5049 93.589 56.3108C93.001 56.2137 92.315 56.1166 91.629 56.2137C90.845 56.3108 90.061 56.4078 89.277 56.7962C88.003 57.2816 87.121 58.2525 86.239 59.0292C86.239 59.0292 86.337 58.9321 86.337 58.835C86.435 58.7379 86.533 58.5438 86.631 58.2525C86.925 57.7671 87.219 57.1845 87.611 56.5049C87.905 55.8253 88.297 55.2428 88.591 54.7574C88.787 54.2719 88.885 53.8836 88.885 53.8836C89.669 54.1748 91.923 55.0486 94.079 53.6894C94.765 53.3011 95.353 52.7185 95.843 52.0389C96.333 51.3593 96.627 50.6797 96.921 50.0001C97.509 48.6409 97.705 47.5729 97.705 47.5729C97.705 47.5729 97.019 46.8933 95.941 46.9904Z" fill="#717485" fill-opacity="0.3"/>
<path d="M2.058 46.9903C3.136 46.9903 4.508 47.2816 5.782 48.1553C6.664 48.835 7.35 49.7087 7.84 50.5825C7.84 50.5825 7.644 50.2913 7.546 49.7087C7.448 49.1262 7.252 48.4466 7.056 47.767C6.86 47.0874 6.664 46.3107 6.566 45.8252C6.468 45.2427 6.468 44.9515 6.468 44.9515C5.684 45.0485 3.626 45.2427 2.058 43.6893C1.568 43.2039 1.176 42.6214 0.882 41.9418C0.588 41.2621 0.49 40.5825 0.392 40C0 38.6408 0 37.6699 0 37.6699C0 37.6699 0.686 37.6699 1.666 37.8641C2.548 38.0583 3.724 38.5437 4.606 39.5146C5.194 40.1942 5.586 41.068 5.88 41.8447C5.88 41.8447 5.88 41.6505 5.782 41.4563C5.782 41.1651 5.782 40.8738 5.782 40.5825C5.782 39.9029 5.684 39.2233 5.684 39.2233C5.39 38.835 4.9 38.2524 4.508 37.3786C4.214 36.6019 3.92 35.534 4.018 34.466C4.018 33.0097 4.9 31.7476 5.586 30.9709C6.272 30.1942 6.86 29.7087 6.86 29.7087C6.86 29.7087 7.252 30.3884 7.644 31.3592C8.036 32.3301 8.232 33.5922 8.232 34.8544C8.134 35.8252 7.84 36.699 7.448 37.4757C7.056 38.2524 6.664 38.835 6.37 39.2233C6.37 39.2233 6.37 40.4854 6.468 41.7476C6.664 43.0097 6.86 44.2718 6.86 44.2718C6.958 43.3981 7.154 42.5243 7.644 41.8447C8.33 40.8738 9.506 40.3884 10.388 40.0971C11.27 39.9029 12.054 39.9029 12.054 39.9029C12.054 39.9029 12.054 40.0971 12.054 40.3883C12.054 40.6796 12.054 41.068 12.054 41.5534C12.054 42.5243 11.858 43.6893 11.172 44.6602C10.192 46.2136 8.33 46.9903 7.546 47.1845C7.546 47.1845 7.938 48.6408 8.33 50C8.82 51.3592 9.408 52.7184 9.408 52.7184C9.31 51.7476 9.31 50.5825 9.604 49.7087C10.192 48.3495 11.368 47.5728 12.25 47.1845C13.23 46.699 14.014 46.5049 14.014 46.5049C14.014 46.5049 14.21 47.2816 14.308 48.2524C14.504 49.2233 14.602 50.5825 14.112 51.8447C13.426 53.8835 11.466 55.1456 10.682 55.534C10.682 55.534 11.368 56.7961 12.054 58.0583C12.838 59.2233 13.72 60.3884 13.72 60.3884C13.328 59.3204 12.936 58.0583 13.23 56.8932C13.524 55.3398 14.602 54.1748 15.484 53.4951C16.464 52.8155 17.248 52.4272 17.248 52.4272C17.248 52.4272 17.738 53.1068 18.032 54.2718C18.424 55.3398 18.914 56.6019 18.62 58.1553C18.326 60.4854 16.562 62.4272 15.876 63.1068C15.876 63.1068 16.758 64.1748 17.738 65.1456C18.816 66.0194 19.796 66.9903 19.796 66.9903C19.012 65.9223 18.228 64.6602 18.228 63.2039C18.228 61.4563 19.012 60 19.894 59.0291C20.678 58.0583 21.56 57.4757 21.56 57.4757C21.56 57.4757 22.246 58.0583 22.834 59.1262C23.128 59.7087 23.52 60.1942 23.814 60.8738C24.108 61.5534 24.304 62.233 24.402 63.1068C24.696 65.7282 23.324 68.3495 22.736 69.1262C22.736 69.1262 23.03 69.3204 23.52 69.7087C23.716 69.9029 24.01 70.0971 24.304 70.2913C24.598 70.4854 24.99 70.6796 25.284 70.8738C26.656 71.5534 28.028 72.3301 28.028 72.3301L27.734 73.0097C27.734 73.0097 25.774 72.0388 23.814 70.9709C22.932 70.3884 21.952 69.7087 21.266 69.2233C20.874 69.0291 20.678 68.835 20.384 68.6408C20.188 68.5437 20.09 68.3495 20.09 68.3495C19.404 69.1262 17.444 71.4563 14.112 71.068C12.054 70.8738 10.192 69.5146 8.722 68.3495C8.33 68.0583 8.036 67.767 7.742 67.4757C7.448 67.1845 7.252 66.8932 7.056 66.699C6.664 66.2136 6.468 65.9223 6.468 65.9223C6.468 65.9223 7.252 65.2427 8.428 64.7573C9.016 64.466 9.8 64.2718 10.584 64.1748C11.368 64.0777 12.25 64.0777 13.23 64.2718C14.798 64.5631 16.072 65.3398 17.248 66.0194C17.248 66.0194 16.954 65.8252 16.66 65.4369C16.268 65.0485 15.876 64.5631 15.386 63.9806C14.896 63.4952 14.406 62.9126 14.112 62.5243C13.818 62.1359 13.622 61.8447 13.622 61.8447C12.838 62.4272 10.584 63.8835 7.84 63.0097C6.076 62.4272 4.704 60.8738 3.724 59.5146C3.332 58.4466 2.94 57.767 2.646 57.2816C2.45 56.7961 2.352 56.5049 2.352 56.5049C2.352 56.5049 3.136 56.1165 4.312 55.9223C4.9 55.8252 5.586 55.7282 6.272 55.8252C7.056 55.9223 7.84 56.0194 8.624 56.4078C9.898 56.8932 10.78 57.8641 11.662 58.6408C11.662 58.6408 11.564 58.5437 11.564 58.4466C11.466 58.3495 11.368 58.1553 11.27 57.8641C10.976 57.3786 10.682 56.7961 10.29 56.1165C9.996 55.4369 9.604 54.8544 9.31 54.3689C9.114 53.8835 9.016 53.4951 9.016 53.4951C8.232 53.7864 5.978 54.6602 3.822 53.301C3.136 52.9126 2.548 52.3301 2.058 51.6505C1.568 50.9709 1.274 50.2913 0.98 49.6117C0.392 48.2524 0.196 47.1845 0.196 47.1845C0.196 47.1845 0.98 46.8932 2.058 46.9903Z" fill="#717485" fill-opacity="0.3"/>
<path d="M49.0017 69.709L50.6677 73.107L54.4897 73.6896L51.7457 76.3109L52.3337 80.0002L49.0017 78.2527L45.6697 80.0002L46.2577 76.3109L43.5137 73.6896L47.3357 73.107L49.0017 69.709Z" fill="#717485" fill-opacity="0.3"/>
<path d="M36.9468 70.7769L38.3188 73.4953L41.3568 73.8836L39.2008 76.0196L39.6908 79.0293L36.9468 77.573L34.3008 79.0293L34.7908 76.0196L32.6348 73.8836L35.6728 73.4953L36.9468 70.7769Z" fill="#717485" fill-opacity="0.3"/>
<path d="M61.0548 70.7769L62.3288 73.4953L65.3668 73.8836L63.2108 76.0196L63.7008 79.0293L61.0548 77.573L58.3108 79.0293L58.8008 76.0196L56.6448 73.8836L59.6828 73.4953L61.0548 70.7769Z" fill="#717485" fill-opacity="0.3"/>
<path d="M49.0002 68.4466C29.8902 68.4466 14.4062 53.1068 14.4062 34.1748C14.4062 15.3398 29.9882 0 49.0002 0C68.0122 0 83.5943 15.3398 83.5943 34.2718C83.5943 53.1068 68.1102 68.4466 49.0002 68.4466ZM49.0002 1.94175C31.0662 1.94175 16.3663 16.4078 16.3663 34.2718C16.3663 52.0388 30.9682 66.6019 49.0002 66.6019C66.9342 66.6019 81.6343 52.1359 81.6343 34.2718C81.6343 16.4078 66.9342 1.94175 49.0002 1.94175Z" fill="#717485" fill-opacity="0.3"/>
<path d="M49.0003 65.2429C31.7523 65.2429 17.7383 51.3594 17.7383 34.2721C17.7383 17.1847 31.7523 3.2041 49.0003 3.2041C66.2483 3.2041 80.2623 17.0876 80.2623 34.175C80.2623 51.3594 66.2483 65.2429 49.0003 65.2429ZM49.0003 4.17498C32.2423 4.17498 18.7183 17.6701 18.7183 34.175C18.7183 50.7769 32.3403 64.175 49.0003 64.175C65.6603 64.175 79.2823 50.6798 79.2823 34.175C79.2823 17.6701 65.7583 4.17498 49.0003 4.17498Z" fill="#717485" fill-opacity="0.3"/>
<path d="M34.692 38.1553L34.496 39.4174H36.26L35.77 42.0388H33.908L33.516 43.9806H30.87L31.262 42.0388H29.988L29.596 43.9806H26.95L27.342 42.0388H25.088L25.578 39.4174H27.832L28.028 38.1553H25.774L26.264 35.534H28.518L28.91 33.4951H31.556L31.164 35.534H32.438L32.83 33.4951H35.476L35.084 35.534H36.946L36.456 38.1553H34.692ZM32.144 38.1553H30.87L30.674 39.4174H31.948L32.144 38.1553Z" fill="#717485" fill-opacity="0.3"/>
<path d="M36.26 23.1069C39.494 21.5535 42.042 20.5826 46.256 15.7283H56.35V47.5729H61.74V55.0487H38.906V47.5729H44.59V26.6991L38.906 29.3205L36.26 23.1069Z" fill="#717485" fill-opacity="0.3"/>
</g>
<defs>
<clipPath id="clip0_52_5208">
<rect width="98" height="80" fill="white"/>
</clipPath>
</defs>
</svg>
