<svg width="1708" height="16" viewBox="0 0 1708 16" fill="none" xmlns="http://www.w3.org/2000/svg">
<path d="M5.80801 0.734169L6.51202 0.932169C6.68802 1.0055 6.74668 1.1375 6.68802 1.32817L1.51802 15.0122C1.44468 15.1882 1.32002 15.2395 1.14402 15.1662L0.440015 14.9682C0.264015 14.8948 0.212682 14.7702 0.286015 14.5942L5.43402 0.910169C5.52202 0.719502 5.64668 0.660836 5.80801 0.734169Z" fill="#1F202A"/>
<path d="M17.8551 8.65417H19.3291L19.5711 6.98217H18.0751C17.8844 6.98217 17.7891 6.88684 17.7891 6.69617V6.05817C17.7891 5.8675 17.8844 5.77217 18.0751 5.77217H19.7691L20.0111 4.16617C20.0844 3.99017 20.2017 3.91684 20.3631 3.94617L21.0451 4.05617C21.2357 4.11484 21.3017 4.2395 21.2431 4.43017L21.0231 5.77217H22.7611L23.0251 4.16617C23.0984 3.99017 23.2157 3.91684 23.3771 3.94617L24.0591 4.05617C24.2497 4.11484 24.3157 4.2395 24.2571 4.43017L24.0371 5.77217H25.3571C25.5624 5.77217 25.6651 5.8675 25.6651 6.05817V6.69617C25.6651 6.88684 25.5624 6.98217 25.3571 6.98217H23.8391L23.5751 8.65417H25.1371C25.3424 8.65417 25.4451 8.7495 25.4451 8.94017V9.57817C25.4451 9.76884 25.3424 9.86417 25.1371 9.86417H23.3771L23.1131 11.4922C23.0544 11.6828 22.9371 11.7488 22.7611 11.6902L22.1231 11.6022C21.9324 11.5435 21.8664 11.4262 21.9251 11.2502L22.1451 9.86417H20.3851L20.1211 11.4922C20.0624 11.6828 19.9451 11.7488 19.7691 11.6902L19.1311 11.6022C18.9404 11.5435 18.8744 11.4262 18.9331 11.2502L19.1311 9.86417H17.8551C17.6644 9.86417 17.5691 9.76884 17.5691 9.57817V8.94017C17.5691 8.7495 17.6644 8.65417 17.8551 8.65417ZM20.8251 6.98217L20.5611 8.65417H22.3211L22.5851 6.98217H20.8251Z" fill="#1F202A"/>
<path d="M26.4021 2.01017H36.4781C36.6834 2.01017 36.7861 2.11284 36.7861 2.31817V3.02217C36.7861 3.2275 36.6834 3.33017 36.4781 3.33017H32.1661V13.6922C32.1661 13.8975 32.0634 14.0002 31.8581 14.0002H31.0221C30.8167 14.0002 30.7141 13.8975 30.7141 13.6922V3.33017L26.4021 3.33017C26.1967 3.33017 26.0941 3.2275 26.0941 3.02217V2.31817C26.0941 2.11284 26.1967 2.01017 26.4021 2.01017Z" fill="#1F202A"/>
<path d="M38.4002 2.01017L46.9362 2.01017C47.1268 2.01017 47.2222 2.1055 47.2222 2.29617V3.04417C47.2222 3.23484 47.1268 3.33017 46.9362 3.33017H39.5662V7.02617H46.5182C46.7088 7.02617 46.8042 7.1215 46.8042 7.31217V8.06017C46.8042 8.25084 46.7088 8.34617 46.5182 8.34617H39.5662V12.6802H47.1562C47.3468 12.6802 47.4422 12.7682 47.4422 12.9442V13.7142C47.4422 13.9048 47.3468 14.0002 47.1562 14.0002H38.4002C38.2095 14.0002 38.1142 13.9048 38.1142 13.7142V2.29617C38.1142 2.1055 38.2095 2.01017 38.4002 2.01017Z" fill="#1F202A"/>
<path d="M59.9861 14.0002H58.9741C58.7981 14.0002 58.6661 13.9342 58.5781 13.8022L54.5081 8.67617L50.9221 3.92417L50.7681 3.96817L50.8781 8.41217V13.7142C50.8781 13.9048 50.7754 14.0002 50.5701 14.0002H49.7121C49.5214 14.0002 49.4261 13.8975 49.4261 13.6922V2.29617C49.4261 2.1055 49.5214 2.01017 49.7121 2.01017H50.6801C50.8854 2.01017 51.0468 2.09084 51.1641 2.25217L55.5201 7.68617L58.7761 12.0422L58.9301 12.0202L58.8201 7.57617V2.29617C58.8201 2.1055 58.9154 2.01017 59.1061 2.01017H59.9861C60.1768 2.01017 60.2721 2.1055 60.2721 2.29617V13.7142C60.2721 13.9048 60.1768 14.0002 59.9861 14.0002Z" fill="#1F202A"/>
<path d="M73.0383 14.0002H72.0263C71.8503 14.0002 71.7183 13.9342 71.6303 13.8022L67.5603 8.67617L63.9743 3.92417L63.8203 3.96817L63.9303 8.41217V13.7142C63.9303 13.9048 63.8276 14.0002 63.6223 14.0002H62.7643C62.5736 14.0002 62.4783 13.8975 62.4783 13.6922V2.29617C62.4783 2.1055 62.5736 2.01017 62.7643 2.01017L63.7323 2.01017C63.9376 2.01017 64.099 2.09084 64.2163 2.25217L68.5723 7.68617L71.8283 12.0422L71.9823 12.0202L71.8723 7.57617V2.29617C71.8723 2.1055 71.9676 2.01017 72.1583 2.01017H73.0383C73.229 2.01017 73.3243 2.1055 73.3243 2.29617V13.7142C73.3243 13.9048 73.229 14.0002 73.0383 14.0002Z" fill="#1F202A"/>
<path d="M75.8165 2.01017H76.6965C76.8872 2.01017 76.9825 2.1055 76.9825 2.29617V13.7142C76.9825 13.9048 76.8872 14.0002 76.6965 14.0002H75.8165C75.6258 14.0002 75.5305 13.9048 75.5305 13.7142V2.29617C75.5305 2.1055 75.6258 2.01017 75.8165 2.01017Z" fill="#1F202A"/>
<path d="M83.8365 1.83417C85.8312 1.83417 87.4739 2.40617 88.7645 3.55017C88.8965 3.68217 88.9038 3.81417 88.7865 3.94617L88.2365 4.58417C88.1192 4.71617 87.9872 4.7235 87.8405 4.60617C86.7258 3.6235 85.3765 3.13217 83.7925 3.13217C81.5779 3.13217 80.4705 3.7555 80.4705 5.00217C80.4705 5.6035 80.7492 6.02884 81.3065 6.27817C81.8785 6.5275 82.8099 6.73284 84.1005 6.89417C84.9512 7.0115 85.6625 7.1435 86.2345 7.29017C86.8065 7.43684 87.3418 7.6495 87.8405 7.92817C88.3538 8.19217 88.7352 8.54417 88.9845 8.98417C89.2339 9.4095 89.3585 9.93017 89.3585 10.5462C89.3585 11.7048 88.8525 12.5995 87.8405 13.2302C86.8432 13.8608 85.5745 14.1762 84.0345 14.1762C81.8785 14.1762 80.0672 13.5308 78.6005 12.2402C78.4832 12.1228 78.4832 11.9908 78.6005 11.8442L79.1285 11.1182C79.2605 10.9715 79.3925 10.9642 79.5245 11.0962C80.7565 12.2695 82.2672 12.8562 84.0565 12.8562C85.3032 12.8562 86.2565 12.6508 86.9165 12.2402C87.5912 11.8148 87.9285 11.2502 87.9285 10.5462C87.9285 9.8275 87.5985 9.31417 86.9385 9.00617C86.2932 8.6835 85.2812 8.4415 83.9025 8.28017C83.3452 8.2215 82.8538 8.1555 82.4285 8.08217C82.0178 7.99417 81.5852 7.8695 81.1305 7.70817C80.6758 7.54684 80.3092 7.35617 80.0305 7.13617C79.7519 6.91617 79.5172 6.62284 79.3265 6.25617C79.1358 5.8895 79.0405 5.4715 79.0405 5.00217C79.0405 4.04884 79.4732 3.28617 80.3385 2.71417C81.2185 2.1275 82.3845 1.83417 83.8365 1.83417Z" fill="#1F202A"/>
<path d="M105.329 0.734169L106.033 0.932169C106.209 1.0055 106.267 1.1375 106.209 1.32817L101.039 15.0122C100.965 15.1882 100.841 15.2395 100.665 15.1662L99.9608 14.9682C99.7848 14.8948 99.7335 14.7702 99.8068 14.5942L104.955 0.91017C105.043 0.719503 105.167 0.660836 105.329 0.734169Z" fill="#1F202A"/>
<path d="M116.98 2.01017H117.97C118.175 2.01017 118.315 2.12017 118.388 2.34017L121.534 12.5482H121.666L124.702 2.25217C124.746 2.09084 124.871 2.01017 125.076 2.01017H126.044C126.22 2.01017 126.33 2.09084 126.374 2.25217L129.476 12.5482H129.652L132.798 2.27417C132.857 2.09817 132.989 2.01017 133.194 2.01017H134.162C134.25 2.01017 134.309 2.0395 134.338 2.09817C134.382 2.15684 134.389 2.22284 134.36 2.29617L130.664 13.6262C130.591 13.8755 130.444 14.0002 130.224 14.0002H128.816C128.611 14.0002 128.479 13.8828 128.42 13.6482L125.582 4.29817H125.45L122.722 13.6482C122.663 13.8828 122.524 14.0002 122.304 14.0002H120.918C120.698 14.0002 120.559 13.8902 120.5 13.6702L116.782 2.27417C116.738 2.09817 116.804 2.01017 116.98 2.01017Z" fill="#1F202A"/>
<path d="M136.32 2.01017H137.2C137.391 2.01017 137.486 2.1055 137.486 2.29617V13.7142C137.486 13.9048 137.391 14.0002 137.2 14.0002H136.32C136.129 14.0002 136.034 13.9048 136.034 13.7142V2.29617C136.034 2.1055 136.129 2.01017 136.32 2.01017Z" fill="#1F202A"/>
<path d="M139.104 2.01017H149.18C149.385 2.01017 149.488 2.11284 149.488 2.31817V3.02217C149.488 3.2275 149.385 3.33017 149.18 3.33017H144.868V13.6922C144.868 13.8975 144.765 14.0002 144.56 14.0002H143.724C143.519 14.0002 143.416 13.8975 143.416 13.6922V3.33017H139.104C138.899 3.33017 138.796 3.2275 138.796 3.02217V2.31817C138.796 2.11284 138.899 2.01017 139.104 2.01017Z" fill="#1F202A"/>
<path d="M151.102 2.01017H151.96C152.165 2.01017 152.268 2.1055 152.268 2.29617V7.09217H159.748V2.29617C159.748 2.1055 159.851 2.01017 160.056 2.01017H160.892C161.097 2.01017 161.2 2.1055 161.2 2.29617V13.7142C161.2 13.9048 161.097 14.0002 160.892 14.0002H160.056C159.851 14.0002 159.748 13.9048 159.748 13.7142V8.41217H152.268V13.7142C152.268 13.9048 152.165 14.0002 151.96 14.0002H151.102C150.911 14.0002 150.816 13.9048 150.816 13.7142V2.29617C150.816 2.1055 150.911 2.01017 151.102 2.01017Z" fill="#1F202A"/>
<path d="M168.656 2.01017H169.536C169.726 2.01017 169.822 2.1055 169.822 2.29617V12.6802H177.5C177.705 12.6802 177.808 12.7828 177.808 12.9882V13.6922C177.808 13.8975 177.705 14.0002 177.5 14.0002H168.678C168.472 14.0002 168.37 13.8975 168.37 13.6922V2.29617C168.37 2.1055 168.465 2.01017 168.656 2.01017Z" fill="#1F202A"/>
<path d="M184.65 3.15417C183.271 3.15417 182.142 3.61617 181.262 4.54017C180.382 5.46417 179.942 6.62284 179.942 8.01617C179.942 9.39484 180.382 10.5462 181.262 11.4702C182.142 12.3942 183.271 12.8562 184.65 12.8562C186.043 12.8562 187.18 12.3942 188.06 11.4702C188.94 10.5462 189.38 9.39484 189.38 8.01617C189.38 6.62284 188.94 5.46417 188.06 4.54017C187.18 3.61617 186.043 3.15417 184.65 3.15417ZM180.25 12.4382C179.062 11.2648 178.468 9.79084 178.468 8.01617C178.468 6.2415 179.062 4.7675 180.25 3.59417C181.438 2.42084 182.905 1.83417 184.65 1.83417C186.425 1.83417 187.899 2.42084 189.072 3.59417C190.26 4.75284 190.854 6.22684 190.854 8.01617C190.854 9.79084 190.26 11.2648 189.072 12.4382C187.899 13.5968 186.425 14.1762 184.65 14.1762C182.905 14.1762 181.438 13.5968 180.25 12.4382Z" fill="#1F202A"/>
<path d="M198.016 14.0002H196.586C196.425 14.0002 196.315 13.9268 196.256 13.7802L191.218 2.31817C191.13 2.11284 191.181 2.01017 191.372 2.01017H192.472C192.619 2.01017 192.729 2.07617 192.802 2.20817L195.178 7.77417L197.224 12.6362H197.422L199.49 7.68617L201.844 2.20817C201.903 2.07617 202.013 2.01017 202.174 2.01017H203.296C203.369 2.01017 203.421 2.04684 203.45 2.12017C203.479 2.17884 203.479 2.24484 203.45 2.31817L198.346 13.7802C198.287 13.9268 198.177 14.0002 198.016 14.0002Z" fill="#1F202A"/>
<path d="M205.213 2.01017H213.749C213.939 2.01017 214.035 2.1055 214.035 2.29617V3.04417C214.035 3.23484 213.939 3.33017 213.749 3.33017L206.379 3.33017V7.02617H213.331C213.521 7.02617 213.617 7.1215 213.617 7.31217V8.06017C213.617 8.25084 213.521 8.34617 213.331 8.34617H206.379V12.6802H213.969C214.159 12.6802 214.255 12.7682 214.255 12.9442V13.7142C214.255 13.9048 214.159 14.0002 213.969 14.0002H205.213C205.022 14.0002 204.927 13.9048 204.927 13.7142V2.29617C204.927 2.1055 205.022 2.01017 205.213 2.01017Z" fill="#1F202A"/>
<path d="M230.675 0.73417L231.379 0.93217C231.555 1.0055 231.613 1.1375 231.555 1.32817L226.385 15.0122C226.311 15.1882 226.187 15.2395 226.011 15.1662L225.307 14.9682C225.131 14.8948 225.079 14.7702 225.153 14.5942L230.301 0.91017C230.389 0.719503 230.513 0.660837 230.675 0.73417Z" fill="#1F202A"/>
<path d="M244.108 3.33017V12.6582H247.408C248.772 12.6582 249.894 12.2255 250.774 11.3602C251.668 10.4802 252.116 9.35817 252.116 7.99417C252.116 6.63017 251.668 5.5155 250.774 4.65017C249.894 3.77017 248.772 3.33017 247.408 3.33017H244.108ZM242.942 2.01017L247.408 2.01017C249.182 2.01017 250.656 2.57484 251.83 3.70417C253.018 4.81884 253.612 6.24884 253.612 7.99417C253.612 9.75417 253.018 11.1988 251.83 12.3282C250.656 13.4428 249.182 14.0002 247.408 14.0002H242.942C242.751 14.0002 242.656 13.9048 242.656 13.7142V2.31817C242.656 2.11284 242.751 2.01017 242.942 2.01017Z" fill="#1F202A"/>
<path d="M259.604 2.01017H261.32C261.496 2.01017 261.613 2.0835 261.672 2.23017L266.666 13.6922C266.695 13.7655 266.695 13.8388 266.666 13.9122C266.637 13.9708 266.585 14.0002 266.512 14.0002H265.478C265.317 14.0002 265.207 13.9268 265.148 13.7802L264.158 11.4482H256.744L255.732 13.7802C255.688 13.9268 255.578 14.0002 255.402 14.0002H254.346C254.155 14.0002 254.104 13.8975 254.192 13.6922L259.252 2.25217C259.325 2.09084 259.443 2.01017 259.604 2.01017ZM260.242 3.24217L257.294 10.1282H263.608L260.66 3.24217H260.242Z" fill="#1F202A"/>
<path d="M272.79 11.0522V13.6922C272.79 13.8975 272.694 14.0002 272.504 14.0002H271.624C271.433 14.0002 271.338 13.8975 271.338 13.6922V11.0742L266.278 2.29617C266.19 2.1055 266.241 2.01017 266.432 2.01017H267.576C267.722 2.01017 267.832 2.06884 267.906 2.18617L271.998 9.57817H272.196L276.222 2.18617C276.295 2.06884 276.398 2.01017 276.53 2.01017H277.696C277.886 2.01017 277.93 2.1055 277.828 2.29617L272.79 11.0522Z" fill="#1F202A"/>
<path d="M282.873 2.01017H284.589C284.765 2.01017 284.882 2.0835 284.941 2.23017L289.935 13.6922C289.964 13.7655 289.964 13.8388 289.935 13.9122C289.905 13.9708 289.854 14.0002 289.781 14.0002H288.747C288.585 14.0002 288.475 13.9268 288.417 13.7802L287.427 11.4482H280.013L279.001 13.7802C278.957 13.9268 278.847 14.0002 278.671 14.0002H277.615C277.424 14.0002 277.373 13.8975 277.461 13.6922L282.521 2.25217C282.594 2.09084 282.711 2.01017 282.873 2.01017ZM283.511 3.24217L280.563 10.1282H286.877L283.929 3.24217H283.511Z" fill="#1F202A"/>
<path d="M302.159 14.0002H301.147C300.971 14.0002 300.839 13.9342 300.751 13.8022L296.681 8.67617L293.095 3.92417L292.941 3.96817L293.051 8.41217V13.7142C293.051 13.9048 292.948 14.0002 292.743 14.0002H291.885C291.694 14.0002 291.599 13.8975 291.599 13.6922V2.29617C291.599 2.1055 291.694 2.01017 291.885 2.01017H292.853C293.058 2.01017 293.22 2.09084 293.337 2.25217L297.693 7.68617L300.949 12.0422L301.103 12.0202L300.993 7.57617V2.29617C300.993 2.1055 301.088 2.01017 301.279 2.01017H302.159C302.35 2.01017 302.445 2.1055 302.445 2.29617V13.7142C302.445 13.9048 302.35 14.0002 302.159 14.0002Z" fill="#1F202A"/>
<path d="M309.557 2.01017H311.273C311.449 2.01017 311.566 2.0835 311.625 2.23017L316.619 13.6922C316.648 13.7655 316.648 13.8388 316.619 13.9122C316.59 13.9708 316.538 14.0002 316.465 14.0002H315.431C315.27 14.0002 315.16 13.9268 315.101 13.7802L314.111 11.4482H306.697L305.685 13.7802C305.641 13.9268 305.531 14.0002 305.355 14.0002H304.299C304.108 14.0002 304.057 13.8975 304.145 13.6922L309.205 2.25217C309.278 2.09084 309.396 2.01017 309.557 2.01017ZM310.195 3.24217L307.247 10.1282H313.561L310.613 3.24217H310.195Z" fill="#1F202A"/>
<path d="M329.263 11.0522V13.6922C329.263 13.8975 329.168 14.0002 328.977 14.0002H328.097C327.907 14.0002 327.811 13.8975 327.811 13.6922V11.0742L322.751 2.29617C322.663 2.1055 322.715 2.01017 322.905 2.01017H324.049C324.196 2.01017 324.306 2.06884 324.379 2.18617L328.471 9.57817H328.669L332.695 2.18617C332.769 2.06884 332.871 2.01017 333.003 2.01017H334.169C334.36 2.01017 334.404 2.1055 334.301 2.29617L329.263 11.0522Z" fill="#1F202A"/>
<path d="M339.346 2.01017H341.062C341.238 2.01017 341.356 2.0835 341.414 2.23017L346.408 13.6922C346.438 13.7655 346.438 13.8388 346.408 13.9122C346.379 13.9708 346.328 14.0002 346.254 14.0002H345.22C345.059 14.0002 344.949 13.9268 344.89 13.7802L343.9 11.4482H336.486L335.474 13.7802C335.43 13.9268 335.32 14.0002 335.144 14.0002H334.088C333.898 14.0002 333.846 13.8975 333.934 13.6922L338.994 2.25217C339.068 2.09084 339.185 2.01017 339.346 2.01017ZM339.984 3.24217L337.036 10.1282H343.35L340.402 3.24217H339.984Z" fill="#1F202A"/>
<path d="M352.737 1.83417C354.731 1.83417 356.374 2.40617 357.665 3.55017C357.797 3.68217 357.804 3.81417 357.687 3.94617L357.137 4.58417C357.019 4.71617 356.887 4.7235 356.741 4.60617C355.626 3.6235 354.277 3.13217 352.693 3.13217C350.478 3.13217 349.371 3.7555 349.371 5.00217C349.371 5.6035 349.649 6.02884 350.207 6.27817C350.779 6.5275 351.71 6.73284 353.001 6.89417C353.851 7.0115 354.563 7.1435 355.135 7.29017C355.707 7.43684 356.242 7.6495 356.741 7.92817C357.254 8.19217 357.635 8.54417 357.885 8.98417C358.134 9.4095 358.259 9.93017 358.259 10.5462C358.259 11.7048 357.753 12.5995 356.741 13.2302C355.743 13.8608 354.475 14.1762 352.935 14.1762C350.779 14.1762 348.967 13.5308 347.501 12.2402C347.383 12.1228 347.383 11.9908 347.501 11.8442L348.029 11.1182C348.161 10.9715 348.293 10.9642 348.425 11.0962C349.657 12.2695 351.167 12.8562 352.957 12.8562C354.203 12.8562 355.157 12.6508 355.817 12.2402C356.491 11.8148 356.829 11.2502 356.829 10.5462C356.829 9.8275 356.499 9.31417 355.839 9.00617C355.193 8.6835 354.181 8.4415 352.803 8.28017C352.245 8.2215 351.754 8.1555 351.329 8.08217C350.918 7.99417 350.485 7.8695 350.031 7.70817C349.576 7.54684 349.209 7.35617 348.931 7.13617C348.652 6.91617 348.417 6.62284 348.227 6.25617C348.036 5.8895 347.941 5.4715 347.941 5.00217C347.941 4.04884 348.373 3.28617 349.239 2.71417C350.119 2.1275 351.285 1.83417 352.737 1.83417Z" fill="#1F202A"/>
<path d="M359.221 2.01017L369.297 2.01017C369.502 2.01017 369.605 2.11284 369.605 2.31817V3.02217C369.605 3.2275 369.502 3.33017 369.297 3.33017H364.985V13.6922C364.985 13.8975 364.882 14.0002 364.677 14.0002H363.841C363.635 14.0002 363.533 13.8975 363.533 13.6922V3.33017H359.221C359.015 3.33017 358.913 3.2275 358.913 3.02217V2.31817C358.913 2.11284 359.015 2.01017 359.221 2.01017Z" fill="#1F202A"/>
<path d="M371.219 2.01017H376.719C377.995 2.01017 379.058 2.4135 379.909 3.22017C380.76 4.02684 381.185 5.02417 381.185 6.21217C381.185 7.09217 380.958 7.8695 380.503 8.54417C380.048 9.21884 379.425 9.7175 378.633 10.0402L380.679 13.6922C380.723 13.7802 380.723 13.8535 380.679 13.9122C380.635 13.9708 380.569 14.0002 380.481 14.0002H379.425C379.278 14.0002 379.146 13.9122 379.029 13.7362L377.269 10.3922C377.152 10.4068 376.968 10.4142 376.719 10.4142H372.385V13.7142C372.385 13.9048 372.29 14.0002 372.099 14.0002H371.219C371.028 14.0002 370.933 13.9048 370.933 13.7142V2.29617C370.933 2.1055 371.028 2.01017 371.219 2.01017ZM372.385 9.09417H376.719C377.672 9.09417 378.413 8.83017 378.941 8.30217C379.469 7.75951 379.733 7.06284 379.733 6.21217C379.733 5.3615 379.462 4.67217 378.919 4.14417C378.391 3.6015 377.658 3.33017 376.719 3.33017H372.385V9.09417Z" fill="#1F202A"/>
<path d="M383.455 2.01017L391.991 2.01017C392.181 2.01017 392.277 2.1055 392.277 2.29617V3.04417C392.277 3.23484 392.181 3.33017 391.991 3.33017H384.621V7.02617H391.573C391.763 7.02617 391.859 7.12151 391.859 7.31217V8.06017C391.859 8.25084 391.763 8.34617 391.573 8.34617H384.621V12.6802H392.211C392.401 12.6802 392.497 12.7682 392.497 12.9442V13.7142C392.497 13.9048 392.401 14.0002 392.211 14.0002H383.455C383.264 14.0002 383.169 13.9048 383.169 13.7142V2.29617C383.169 2.1055 383.264 2.01017 383.455 2.01017Z" fill="#1F202A"/>
<path d="M405.987 2.01017H407.593C407.783 2.01017 407.879 2.1055 407.879 2.29617V13.6922C407.879 13.8975 407.783 14.0002 407.593 14.0002H406.735C406.529 14.0002 406.427 13.8975 406.427 13.6922V7.99417L406.515 3.57217L406.405 3.55017L404.557 7.92817L401.873 13.7142C401.785 13.9048 401.66 14.0002 401.499 14.0002H400.883C400.707 14.0002 400.575 13.9048 400.487 13.7142L397.759 7.77417L395.933 3.55017L395.845 3.57217L395.933 7.75217V13.6922C395.933 13.8975 395.837 14.0002 395.647 14.0002H394.767C394.576 14.0002 394.481 13.8975 394.481 13.6922V2.29617C394.481 2.1055 394.576 2.01017 394.767 2.01017H396.395C396.585 2.01017 396.725 2.11284 396.813 2.31817L399.365 7.79617L401.169 12.0642H401.301L403.369 7.20217L405.569 2.31817C405.657 2.11284 405.796 2.01017 405.987 2.01017Z" fill="#1F202A"/>
<path d="M414.732 1.83417C416.727 1.83417 418.369 2.40617 419.66 3.55017C419.792 3.68217 419.799 3.81417 419.682 3.94617L419.132 4.58417C419.015 4.71617 418.883 4.7235 418.736 4.60617C417.621 3.6235 416.272 3.13217 414.688 3.13217C412.473 3.13217 411.366 3.7555 411.366 5.00217C411.366 5.6035 411.645 6.02884 412.202 6.27817C412.774 6.5275 413.705 6.73284 414.996 6.89417C415.847 7.0115 416.558 7.1435 417.13 7.29017C417.702 7.43684 418.237 7.6495 418.736 7.92817C419.249 8.19217 419.631 8.54417 419.88 8.98417C420.129 9.40951 420.254 9.93017 420.254 10.5462C420.254 11.7048 419.748 12.5995 418.736 13.2302C417.739 13.8608 416.47 14.1762 414.93 14.1762C412.774 14.1762 410.963 13.5308 409.496 12.2402C409.379 12.1228 409.379 11.9908 409.496 11.8442L410.024 11.1182C410.156 10.9715 410.288 10.9642 410.42 11.0962C411.652 12.2695 413.163 12.8562 414.952 12.8562C416.199 12.8562 417.152 12.6508 417.812 12.2402C418.487 11.8148 418.824 11.2502 418.824 10.5462C418.824 9.82751 418.494 9.31417 417.834 9.00617C417.189 8.6835 416.177 8.4415 414.798 8.28017C414.241 8.22151 413.749 8.15551 413.324 8.08217C412.913 7.99417 412.481 7.8695 412.026 7.70817C411.571 7.54684 411.205 7.35617 410.926 7.13617C410.647 6.91617 410.413 6.62284 410.222 6.25617C410.031 5.8895 409.936 5.4715 409.936 5.00217C409.936 4.04884 410.369 3.28617 411.234 2.71417C412.114 2.1275 413.28 1.83417 414.732 1.83417Z" fill="#1F202A"/>
<path d="M422.074 2.01017H422.954C423.145 2.01017 423.24 2.1055 423.24 2.29617V8.23617L429.774 2.18617C429.892 2.06884 430.023 2.01017 430.17 2.01017L431.424 2.01017C431.571 2.01017 431.652 2.06884 431.666 2.18617C431.681 2.28884 431.651 2.3695 431.578 2.42817L426.386 7.13617L432.018 13.5822C432.223 13.8608 432.18 14.0002 431.886 14.0002H430.698C430.522 14.0002 430.383 13.9342 430.28 13.8022L425.396 8.06017L423.24 9.84217V13.7142C423.24 13.9048 423.145 14.0002 422.954 14.0002H422.074C421.883 14.0002 421.788 13.9048 421.788 13.7142V2.29617C421.788 2.1055 421.883 2.01017 422.074 2.01017Z" fill="#1F202A"/>
<path d="M438.135 2.01017H439.851C440.027 2.01017 440.144 2.0835 440.203 2.23017L445.197 13.6922C445.226 13.7655 445.226 13.8388 445.197 13.9122C445.168 13.9708 445.116 14.0002 445.043 14.0002H444.009C443.848 14.0002 443.738 13.9268 443.679 13.7802L442.689 11.4482H435.275L434.263 13.7802C434.219 13.9268 434.109 14.0002 433.933 14.0002H432.877C432.686 14.0002 432.635 13.8975 432.723 13.6922L437.783 2.25217C437.856 2.09084 437.974 2.01017 438.135 2.01017ZM438.773 3.24217L435.825 10.1282H442.139L439.191 3.24217H438.773Z" fill="#1F202A"/>
<path d="M451.32 11.0522V13.6922C451.32 13.8975 451.225 14.0002 451.034 14.0002H450.154C449.964 14.0002 449.868 13.8975 449.868 13.6922V11.0742L444.808 2.29617C444.72 2.10551 444.772 2.01017 444.962 2.01017H446.106C446.253 2.01017 446.363 2.06884 446.436 2.18617L450.528 9.57817H450.726L454.752 2.18617C454.826 2.06884 454.928 2.01017 455.06 2.01017H456.226C456.417 2.01017 456.461 2.10551 456.358 2.29617L451.32 11.0522Z" fill="#1F202A"/>
<path d="M461.403 2.01017H463.119C463.295 2.01017 463.413 2.08351 463.471 2.23017L468.465 13.6922C468.495 13.7655 468.495 13.8388 468.465 13.9122C468.436 13.9708 468.385 14.0002 468.311 14.0002H467.277C467.116 14.0002 467.006 13.9268 466.947 13.7802L465.957 11.4482H458.543L457.531 13.7802C457.487 13.9268 457.377 14.0002 457.201 14.0002H456.145C455.955 14.0002 455.903 13.8975 455.991 13.6922L461.051 2.25217C461.125 2.09084 461.242 2.01017 461.403 2.01017ZM462.041 3.24217L459.093 10.1282H465.407L462.459 3.24217H462.041Z" fill="#1F202A"/>
<path d="M484.566 0.734171L485.27 0.932171C485.446 1.0055 485.504 1.1375 485.446 1.32817L480.276 15.0122C480.202 15.1882 480.078 15.2395 479.902 15.1662L479.198 14.9682C479.022 14.8948 478.97 14.7702 479.044 14.5942L484.192 0.910172C484.28 0.719505 484.404 0.660838 484.566 0.734171Z" fill="#1F202A"/>
<path d="M496.613 8.65417H498.087L498.329 6.98217H496.833C496.642 6.98217 496.547 6.88684 496.547 6.69617V6.05817C496.547 5.86751 496.642 5.77217 496.833 5.77217H498.527L498.769 4.16617C498.842 3.99017 498.96 3.91684 499.121 3.94617L499.803 4.05617C499.994 4.11484 500.06 4.23951 500.001 4.43017L499.781 5.77217H501.519L501.783 4.16617C501.856 3.99017 501.974 3.91684 502.135 3.94617L502.817 4.05617C503.008 4.11484 503.074 4.23951 503.015 4.43017L502.795 5.77217H504.115C504.32 5.77217 504.423 5.86751 504.423 6.05817V6.69617C504.423 6.88684 504.32 6.98217 504.115 6.98217H502.597L502.333 8.65417H503.895C504.1 8.65417 504.203 8.74951 504.203 8.94017V9.57817C504.203 9.76884 504.1 9.86417 503.895 9.86417H502.135L501.871 11.4922C501.812 11.6828 501.695 11.7488 501.519 11.6902L500.881 11.6022C500.69 11.5435 500.624 11.4262 500.683 11.2502L500.903 9.86417H499.143L498.879 11.4922C498.82 11.6828 498.703 11.7488 498.527 11.6902L497.889 11.6022C497.698 11.5435 497.632 11.4262 497.691 11.2502L497.889 9.86417H496.613C496.422 9.86417 496.327 9.76884 496.327 9.57817V8.94017C496.327 8.74951 496.422 8.65417 496.613 8.65417ZM499.583 6.98217L499.319 8.65417H501.079L501.343 6.98217H499.583Z" fill="#1F202A"/>
<path d="M505.16 2.01017H515.236C515.441 2.01017 515.544 2.11284 515.544 2.31817V3.02217C515.544 3.22751 515.441 3.33017 515.236 3.33017H510.924V13.6922C510.924 13.8975 510.821 14.0002 510.616 14.0002H509.78C509.575 14.0002 509.472 13.8975 509.472 13.6922V3.33017H505.16C504.955 3.33017 504.852 3.22751 504.852 3.02217V2.31817C504.852 2.11284 504.955 2.01017 505.16 2.01017Z" fill="#1F202A"/>
<path d="M517.158 2.01017L525.694 2.01017C525.885 2.01017 525.98 2.10551 525.98 2.29617V3.04417C525.98 3.23484 525.885 3.33017 525.694 3.33017H518.324V7.02617L525.276 7.02617C525.467 7.02617 525.562 7.12151 525.562 7.31217V8.06017C525.562 8.25084 525.467 8.34617 525.276 8.34617H518.324V12.6802H525.914C526.105 12.6802 526.2 12.7682 526.2 12.9442V13.7142C526.2 13.9048 526.105 14.0002 525.914 14.0002H517.158C516.967 14.0002 516.872 13.9048 516.872 13.7142V2.29617C516.872 2.10551 516.967 2.01017 517.158 2.01017Z" fill="#1F202A"/>
<path d="M538.744 14.0002H537.732C537.556 14.0002 537.424 13.9342 537.336 13.8022L533.266 8.67617L529.68 3.92417L529.526 3.96817L529.636 8.41217V13.7142C529.636 13.9048 529.533 14.0002 529.328 14.0002H528.47C528.279 14.0002 528.184 13.8975 528.184 13.6922V2.29617C528.184 2.10551 528.279 2.01017 528.47 2.01017H529.438C529.643 2.01017 529.805 2.09084 529.922 2.25217L534.278 7.68617L537.534 12.0422L537.688 12.0202L537.578 7.57617V2.29617C537.578 2.10551 537.673 2.01017 537.864 2.01017H538.744C538.935 2.01017 539.03 2.10551 539.03 2.29617V13.7142C539.03 13.9048 538.935 14.0002 538.744 14.0002Z" fill="#1F202A"/>
<path d="M551.796 14.0002H550.784C550.608 14.0002 550.476 13.9342 550.388 13.8022L546.318 8.67617L542.732 3.92417L542.578 3.96817L542.688 8.41217V13.7142C542.688 13.9048 542.585 14.0002 542.38 14.0002H541.522C541.331 14.0002 541.236 13.8975 541.236 13.6922V2.29617C541.236 2.10551 541.331 2.01017 541.522 2.01017H542.49C542.695 2.01017 542.857 2.09084 542.974 2.25217L547.33 7.68617L550.586 12.0422L550.74 12.0202L550.63 7.57617V2.29617C550.63 2.10551 550.725 2.01017 550.916 2.01017H551.796C551.987 2.01017 552.082 2.10551 552.082 2.29617V13.7142C552.082 13.9048 551.987 14.0002 551.796 14.0002Z" fill="#1F202A"/>
<path d="M554.574 2.01017H555.454C555.645 2.01017 555.74 2.10551 555.74 2.29617V13.7142C555.74 13.9048 555.645 14.0002 555.454 14.0002H554.574C554.384 14.0002 554.288 13.9048 554.288 13.7142V2.29617C554.288 2.10551 554.384 2.01017 554.574 2.01017Z" fill="#1F202A"/>
<path d="M562.594 1.83417C564.589 1.83417 566.232 2.40617 567.522 3.55017C567.654 3.68217 567.662 3.81417 567.544 3.94617L566.994 4.58417C566.877 4.71617 566.745 4.72351 566.598 4.60617C565.484 3.62351 564.134 3.13217 562.55 3.13217C560.336 3.13217 559.228 3.75551 559.228 5.00217C559.228 5.60351 559.507 6.02884 560.064 6.27817C560.636 6.52751 561.568 6.73284 562.858 6.89417C563.709 7.01151 564.42 7.14351 564.992 7.29017C565.564 7.43684 566.1 7.64951 566.598 7.92817C567.112 8.19217 567.493 8.54417 567.742 8.98417C567.992 9.40951 568.116 9.93017 568.116 10.5462C568.116 11.7048 567.61 12.5995 566.598 13.2302C565.601 13.8608 564.332 14.1762 562.792 14.1762C560.636 14.1762 558.825 13.5308 557.358 12.2402C557.241 12.1228 557.241 11.9908 557.358 11.8442L557.886 11.1182C558.018 10.9715 558.15 10.9642 558.282 11.0962C559.514 12.2695 561.025 12.8562 562.814 12.8562C564.061 12.8562 565.014 12.6508 565.674 12.2402C566.349 11.8148 566.686 11.2502 566.686 10.5462C566.686 9.82751 566.356 9.31417 565.696 9.00617C565.051 8.68351 564.039 8.44151 562.66 8.28017C562.103 8.22151 561.612 8.15551 561.186 8.08217C560.776 7.99417 560.343 7.86951 559.888 7.70817C559.434 7.54684 559.067 7.35617 558.788 7.13617C558.51 6.91617 558.275 6.62284 558.084 6.25617C557.894 5.88951 557.798 5.47151 557.798 5.00217C557.798 4.04884 558.231 3.28617 559.096 2.71417C559.976 2.12751 561.142 1.83417 562.594 1.83417Z" fill="#1F202A"/>
<path d="M584.087 0.734172L584.791 0.932172C584.967 1.00551 585.025 1.13751 584.967 1.32817L579.797 15.0122C579.723 15.1882 579.599 15.2395 579.423 15.1662L578.719 14.9682C578.543 14.8948 578.491 14.7702 578.565 14.5942L583.713 0.910172C583.801 0.719505 583.925 0.660839 584.087 0.734172Z" fill="#1F202A"/>
<path d="M595.738 2.01017H596.728C596.933 2.01017 597.072 2.12017 597.146 2.34017L600.292 12.5482H600.424L603.46 2.25217C603.504 2.09084 603.628 2.01017 603.834 2.01017H604.802C604.978 2.01017 605.088 2.09084 605.132 2.25217L608.234 12.5482H608.41L611.556 2.27417C611.614 2.09817 611.746 2.01017 611.952 2.01017H612.92C613.008 2.01017 613.066 2.03951 613.096 2.09817C613.14 2.15684 613.147 2.22284 613.118 2.29617L609.422 13.6262C609.348 13.8755 609.202 14.0002 608.982 14.0002H607.574C607.368 14.0002 607.236 13.8828 607.178 13.6482L604.34 4.29817H604.208L601.48 13.6482C601.421 13.8828 601.282 14.0002 601.062 14.0002H599.676C599.456 14.0002 599.316 13.8902 599.258 13.6702L595.54 2.27417C595.496 2.09817 595.562 2.01017 595.738 2.01017Z" fill="#1F202A"/>
<path d="M615.078 2.01017H615.958C616.148 2.01017 616.244 2.10551 616.244 2.29617V13.7142C616.244 13.9048 616.148 14.0002 615.958 14.0002H615.078C614.887 14.0002 614.792 13.9048 614.792 13.7142V2.29617C614.792 2.10551 614.887 2.01017 615.078 2.01017Z" fill="#1F202A"/>
<path d="M617.862 2.01017H627.938C628.143 2.01017 628.246 2.11284 628.246 2.31817V3.02217C628.246 3.22751 628.143 3.33017 627.938 3.33017L623.626 3.33017V13.6922C623.626 13.8975 623.523 14.0002 623.318 14.0002H622.482C622.276 14.0002 622.174 13.8975 622.174 13.6922V3.33017H617.862C617.656 3.33017 617.554 3.22751 617.554 3.02217V2.31817C617.554 2.11284 617.656 2.01017 617.862 2.01017Z" fill="#1F202A"/>
<path d="M629.86 2.01017H630.718C630.923 2.01017 631.026 2.10551 631.026 2.29617V7.09217H638.506V2.29617C638.506 2.10551 638.609 2.01017 638.814 2.01017H639.65C639.855 2.01017 639.958 2.10551 639.958 2.29617V13.7142C639.958 13.9048 639.855 14.0002 639.65 14.0002H638.814C638.609 14.0002 638.506 13.9048 638.506 13.7142V8.41217H631.026V13.7142C631.026 13.9048 630.923 14.0002 630.718 14.0002H629.86C629.669 14.0002 629.574 13.9048 629.574 13.7142V2.29617C629.574 2.10551 629.669 2.01017 629.86 2.01017Z" fill="#1F202A"/>
<path d="M647.413 2.01017H648.293C648.484 2.01017 648.579 2.10551 648.579 2.29617V12.6802H656.257C656.463 12.6802 656.565 12.7828 656.565 12.9882V13.6922C656.565 13.8975 656.463 14.0002 656.257 14.0002L647.435 14.0002C647.23 14.0002 647.127 13.8975 647.127 13.6922V2.29617C647.127 2.10551 647.223 2.01017 647.413 2.01017Z" fill="#1F202A"/>
<path d="M663.408 3.15417C662.029 3.15417 660.9 3.61617 660.02 4.54017C659.14 5.46417 658.7 6.62284 658.7 8.01617C658.7 9.39484 659.14 10.5462 660.02 11.4702C660.9 12.3942 662.029 12.8562 663.408 12.8562C664.801 12.8562 665.938 12.3942 666.818 11.4702C667.698 10.5462 668.138 9.39484 668.138 8.01617C668.138 6.62284 667.698 5.46417 666.818 4.54017C665.938 3.61617 664.801 3.15417 663.408 3.15417ZM659.008 12.4382C657.82 11.2648 657.226 9.79084 657.226 8.01617C657.226 6.24151 657.82 4.76751 659.008 3.59417C660.196 2.42084 661.663 1.83417 663.408 1.83417C665.183 1.83417 666.657 2.42084 667.83 3.59417C669.018 4.75284 669.612 6.22684 669.612 8.01617C669.612 9.79084 669.018 11.2648 667.83 12.4382C666.657 13.5968 665.183 14.1762 663.408 14.1762C661.663 14.1762 660.196 13.5968 659.008 12.4382Z" fill="#1F202A"/>
<path d="M676.774 14.0002H675.344C675.182 14.0002 675.072 13.9268 675.014 13.7802L669.976 2.31817C669.888 2.11284 669.939 2.01017 670.13 2.01017H671.23C671.376 2.01017 671.486 2.07617 671.56 2.20817L673.936 7.77417L675.982 12.6362H676.18L678.248 7.68617L680.602 2.20817C680.66 2.07617 680.77 2.01017 680.932 2.01017H682.054C682.127 2.01017 682.178 2.04684 682.208 2.12017C682.237 2.17884 682.237 2.24484 682.208 2.31817L677.104 13.7802C677.045 13.9268 676.935 14.0002 676.774 14.0002Z" fill="#1F202A"/>
<path d="M683.97 2.01017H692.506C692.697 2.01017 692.792 2.10551 692.792 2.29617V3.04417C692.792 3.23484 692.697 3.33017 692.506 3.33017H685.136V7.02617H692.088C692.279 7.02617 692.374 7.12151 692.374 7.31217V8.06017C692.374 8.25084 692.279 8.34617 692.088 8.34617H685.136V12.6802H692.726C692.917 12.6802 693.012 12.7682 693.012 12.9442V13.7142C693.012 13.9048 692.917 14.0002 692.726 14.0002H683.97C683.78 14.0002 683.684 13.9048 683.684 13.7142V2.29617C683.684 2.10551 683.78 2.01017 683.97 2.01017Z" fill="#1F202A"/>
<path d="M709.432 0.734172L710.136 0.932172C710.312 1.00551 710.371 1.13751 710.312 1.32817L705.142 15.0122C705.069 15.1882 704.944 15.2395 704.768 15.1662L704.064 14.9682C703.888 14.8948 703.837 14.7702 703.91 14.5942L709.058 0.910173C709.146 0.719506 709.271 0.660839 709.432 0.734172Z" fill="#1F202A"/>
<path d="M722.866 3.33017V12.6582H726.166C727.53 12.6582 728.651 12.2255 729.531 11.3602C730.426 10.4802 730.874 9.35817 730.874 7.99417C730.874 6.63017 730.426 5.51551 729.531 4.65017C728.651 3.77017 727.53 3.33017 726.166 3.33017H722.866ZM721.7 2.01017H726.166C727.94 2.01017 729.414 2.57484 730.588 3.70417C731.776 4.81884 732.37 6.24884 732.37 7.99417C732.37 9.75417 731.776 11.1988 730.588 12.3282C729.414 13.4428 727.94 14.0002 726.166 14.0002H721.7C721.509 14.0002 721.414 13.9048 721.414 13.7142V2.31817C721.414 2.11284 721.509 2.01017 721.7 2.01017Z" fill="#1F202A"/>
<path d="M738.362 2.01017H740.078C740.254 2.01017 740.371 2.08351 740.43 2.23017L745.424 13.6922C745.453 13.7655 745.453 13.8388 745.424 13.9122C745.395 13.9708 745.343 14.0002 745.27 14.0002H744.236C744.075 14.0002 743.965 13.9268 743.906 13.7802L742.916 11.4482H735.502L734.49 13.7802C734.446 13.9268 734.336 14.0002 734.16 14.0002H733.104C732.913 14.0002 732.862 13.8975 732.95 13.6922L738.01 2.25217C738.083 2.09084 738.201 2.01017 738.362 2.01017ZM739 3.24217L736.052 10.1282H742.366L739.418 3.24217H739Z" fill="#1F202A"/>
<path d="M751.547 11.0522V13.6922C751.547 13.8975 751.452 14.0002 751.261 14.0002H750.381C750.191 14.0002 750.095 13.8975 750.095 13.6922V11.0742L745.035 2.29617C744.947 2.10551 744.999 2.01017 745.189 2.01017H746.333C746.48 2.01017 746.59 2.06884 746.663 2.18617L750.755 9.57817H750.953L754.979 2.18617C755.053 2.06884 755.155 2.01017 755.287 2.01017H756.453C756.644 2.01017 756.688 2.10551 756.585 2.29617L751.547 11.0522Z" fill="#1F202A"/>
<path d="M761.63 2.01017H763.346C763.522 2.01017 763.64 2.08351 763.698 2.23017L768.692 13.6922C768.722 13.7655 768.722 13.8388 768.692 13.9122C768.663 13.9708 768.612 14.0002 768.538 14.0002H767.504C767.343 14.0002 767.233 13.9268 767.174 13.7802L766.184 11.4482H758.77L757.758 13.7802C757.714 13.9268 757.604 14.0002 757.428 14.0002H756.372C756.182 14.0002 756.13 13.8975 756.218 13.6922L761.278 2.25217C761.352 2.09084 761.469 2.01017 761.63 2.01017ZM762.268 3.24217L759.32 10.1282H765.634L762.686 3.24217H762.268Z" fill="#1F202A"/>
<path d="M780.917 14.0002H779.905C779.729 14.0002 779.597 13.9342 779.509 13.8022L775.439 8.67617L771.853 3.92417L771.699 3.96817L771.809 8.41217V13.7142C771.809 13.9048 771.706 14.0002 771.501 14.0002H770.643C770.452 14.0002 770.357 13.8975 770.357 13.6922V2.29617C770.357 2.10551 770.452 2.01017 770.643 2.01017H771.611C771.816 2.01017 771.977 2.09084 772.095 2.25217L776.451 7.68617L779.707 12.0422L779.861 12.0202L779.751 7.57617V2.29617C779.751 2.10551 779.846 2.01017 780.037 2.01017H780.917C781.107 2.01017 781.203 2.10551 781.203 2.29617V13.7142C781.203 13.9048 781.107 14.0002 780.917 14.0002Z" fill="#1F202A"/>
<path d="M788.315 2.01017H790.031C790.207 2.01017 790.324 2.08351 790.383 2.23017L795.377 13.6922C795.406 13.7655 795.406 13.8388 795.377 13.9122C795.347 13.9708 795.296 14.0002 795.223 14.0002H794.189C794.028 14.0002 793.917 13.9268 793.859 13.7802L792.869 11.4482H785.455L784.443 13.7802C784.399 13.9268 784.289 14.0002 784.113 14.0002H783.057C782.866 14.0002 782.815 13.8975 782.903 13.6922L787.963 2.25217C788.036 2.09084 788.153 2.01017 788.315 2.01017ZM788.953 3.24217L786.005 10.1282H792.319L789.371 3.24217H788.953Z" fill="#1F202A"/>
<path d="M808.021 11.0522V13.6922C808.021 13.8975 807.926 14.0002 807.735 14.0002H806.855C806.664 14.0002 806.569 13.8975 806.569 13.6922V11.0742L801.509 2.29617C801.421 2.10551 801.472 2.01017 801.663 2.01017H802.807C802.954 2.01017 803.064 2.06884 803.137 2.18617L807.229 9.57817H807.427L811.453 2.18617C811.526 2.06884 811.629 2.01017 811.761 2.01017H812.927C813.118 2.01017 813.162 2.10551 813.059 2.29617L808.021 11.0522Z" fill="#1F202A"/>
<path d="M818.104 2.01017H819.82C819.996 2.01017 820.114 2.08351 820.172 2.23017L825.166 13.6922C825.196 13.7655 825.196 13.8388 825.166 13.9122C825.137 13.9708 825.086 14.0002 825.012 14.0002H823.978C823.817 14.0002 823.707 13.9268 823.648 13.7802L822.658 11.4482H815.244L814.232 13.7802C814.188 13.9268 814.078 14.0002 813.902 14.0002H812.846C812.656 14.0002 812.604 13.8975 812.692 13.6922L817.752 2.25217C817.826 2.09084 817.943 2.01017 818.104 2.01017ZM818.742 3.24217L815.794 10.1282H822.108L819.16 3.24217H818.742Z" fill="#1F202A"/>
<path d="M831.495 1.83417C833.489 1.83417 835.132 2.40617 836.422 3.55017C836.554 3.68217 836.562 3.81417 836.445 3.94617L835.895 4.58417C835.777 4.71617 835.645 4.72351 835.499 4.60617C834.384 3.62351 833.035 3.13217 831.451 3.13217C829.236 3.13217 828.129 3.75551 828.129 5.00217C828.129 5.60351 828.407 6.02884 828.965 6.27817C829.537 6.52751 830.468 6.73284 831.758 6.89417C832.609 7.01151 833.321 7.14351 833.893 7.29017C834.465 7.43684 835 7.64951 835.499 7.92817C836.012 8.19217 836.393 8.54417 836.643 8.98417C836.892 9.40951 837.017 9.93017 837.017 10.5462C837.017 11.7048 836.511 12.5995 835.499 13.2302C834.501 13.8608 833.233 14.1762 831.693 14.1762C829.537 14.1762 827.725 13.5308 826.258 12.2402C826.141 12.1228 826.141 11.9908 826.258 11.8442L826.786 11.1182C826.918 10.9715 827.05 10.9642 827.182 11.0962C828.414 12.2695 829.925 12.8562 831.715 12.8562C832.961 12.8562 833.915 12.6508 834.575 12.2402C835.249 11.8148 835.586 11.2502 835.586 10.5462C835.586 9.82751 835.256 9.31417 834.596 9.00617C833.951 8.68351 832.939 8.44151 831.56 8.28017C831.003 8.22151 830.512 8.15551 830.086 8.08217C829.676 7.99417 829.243 7.86951 828.789 7.70817C828.334 7.54684 827.967 7.35617 827.689 7.13617C827.41 6.91617 827.175 6.62284 826.984 6.25617C826.794 5.88951 826.698 5.47151 826.698 5.00217C826.698 4.04884 827.131 3.28617 827.997 2.71417C828.877 2.12751 830.043 1.83417 831.495 1.83417Z" fill="#1F202A"/>
<path d="M837.979 2.01017L848.055 2.01017C848.26 2.01017 848.363 2.11284 848.363 2.31817V3.02217C848.363 3.22751 848.26 3.33017 848.055 3.33017H843.743V13.6922C843.743 13.8975 843.64 14.0002 843.435 14.0002H842.599C842.393 14.0002 842.291 13.8975 842.291 13.6922V3.33017H837.979C837.773 3.33017 837.671 3.22751 837.671 3.02217V2.31817C837.671 2.11284 837.773 2.01017 837.979 2.01017Z" fill="#1F202A"/>
<path d="M849.977 2.01017H855.477C856.753 2.01017 857.816 2.41351 858.667 3.22017C859.517 4.02684 859.943 5.02417 859.943 6.21217C859.943 7.09217 859.715 7.86951 859.261 8.54417C858.806 9.21884 858.183 9.71751 857.391 10.0402L859.437 13.6922C859.481 13.7802 859.481 13.8535 859.437 13.9122C859.393 13.9708 859.327 14.0002 859.239 14.0002H858.183C858.036 14.0002 857.904 13.9122 857.787 13.7362L856.027 10.3922C855.909 10.4068 855.726 10.4142 855.477 10.4142H851.143V13.7142C851.143 13.9048 851.047 14.0002 850.857 14.0002H849.977C849.786 14.0002 849.691 13.9048 849.691 13.7142V2.29617C849.691 2.10551 849.786 2.01017 849.977 2.01017ZM851.143 9.09417H855.477C856.43 9.09417 857.171 8.83017 857.699 8.30217C858.227 7.75951 858.491 7.06284 858.491 6.21217C858.491 5.36151 858.219 4.67217 857.677 4.14417C857.149 3.60151 856.415 3.33017 855.477 3.33017H851.143V9.09417Z" fill="#1F202A"/>
<path d="M862.213 2.01017L870.749 2.01017C870.939 2.01017 871.035 2.10551 871.035 2.29617V3.04417C871.035 3.23484 870.939 3.33017 870.749 3.33017H863.379V7.02617H870.331C870.521 7.02617 870.617 7.12151 870.617 7.31217V8.06017C870.617 8.25084 870.521 8.34617 870.331 8.34617H863.379V12.6802H870.969C871.159 12.6802 871.255 12.7682 871.255 12.9442V13.7142C871.255 13.9048 871.159 14.0002 870.969 14.0002H862.213C862.022 14.0002 861.927 13.9048 861.927 13.7142V2.29617C861.927 2.10551 862.022 2.01017 862.213 2.01017Z" fill="#1F202A"/>
<path d="M884.744 2.01017H886.35C886.541 2.01017 886.636 2.10551 886.636 2.29617V13.6922C886.636 13.8975 886.541 14.0002 886.35 14.0002H885.492C885.287 14.0002 885.184 13.8975 885.184 13.6922V7.99417L885.272 3.57217L885.162 3.55017L883.314 7.92817L880.63 13.7142C880.542 13.9048 880.418 14.0002 880.256 14.0002H879.64C879.464 14.0002 879.332 13.9048 879.244 13.7142L876.516 7.77417L874.69 3.55017L874.602 3.57217L874.69 7.75217V13.6922C874.69 13.8975 874.595 14.0002 874.404 14.0002H873.524C873.334 14.0002 873.238 13.8975 873.238 13.6922V2.29617C873.238 2.10551 873.334 2.01017 873.524 2.01017H875.152C875.343 2.01017 875.482 2.11284 875.57 2.31817L878.122 7.79617L879.926 12.0642H880.058L882.126 7.20217L884.326 2.31817C884.414 2.11284 884.554 2.01017 884.744 2.01017Z" fill="#1F202A"/>
<path d="M893.49 1.83417C895.484 1.83417 897.127 2.40617 898.418 3.55017C898.55 3.68217 898.557 3.81417 898.44 3.94617L897.89 4.58417C897.772 4.71617 897.641 4.72351 897.494 4.60617C896.379 3.62351 895.03 3.13217 893.446 3.13217C891.231 3.13217 890.124 3.75551 890.124 5.00217C890.124 5.60351 890.403 6.02884 890.96 6.27817C891.532 6.52751 892.463 6.73284 893.754 6.89417C894.604 7.01151 895.316 7.14351 895.888 7.29017C896.46 7.43684 896.995 7.64951 897.494 7.92817C898.007 8.19217 898.388 8.54417 898.638 8.98417C898.887 9.40951 899.012 9.93017 899.012 10.5462C899.012 11.7048 898.506 12.5995 897.494 13.2302C896.497 13.8608 895.228 14.1762 893.688 14.1762C891.532 14.1762 889.72 13.5308 888.254 12.2402C888.136 12.1228 888.136 11.9908 888.254 11.8442L888.782 11.1182C888.914 10.9715 889.046 10.9642 889.178 11.0962C890.41 12.2695 891.921 12.8562 893.71 12.8562C894.957 12.8562 895.91 12.6508 896.57 12.2402C897.244 11.8148 897.582 11.2502 897.582 10.5462C897.582 9.82751 897.252 9.31417 896.592 9.00617C895.946 8.68351 894.934 8.44151 893.556 8.28017C892.998 8.22151 892.507 8.15551 892.082 8.08217C891.671 7.99417 891.238 7.86951 890.784 7.70817C890.329 7.54684 889.963 7.35617 889.684 7.13617C889.405 6.91617 889.17 6.62284 888.98 6.25617C888.789 5.88951 888.694 5.47151 888.694 5.00217C888.694 4.04884 889.126 3.28617 889.992 2.71417C890.872 2.12751 892.038 1.83417 893.49 1.83417Z" fill="#1F202A"/>
<path d="M900.832 2.01017H901.712C901.903 2.01017 901.998 2.10551 901.998 2.29617V8.23617L908.532 2.18617C908.649 2.06884 908.781 2.01017 908.928 2.01017H910.182C910.329 2.01017 910.409 2.06884 910.424 2.18617C910.439 2.28884 910.409 2.36951 910.336 2.42817L905.144 7.13617L910.776 13.5822C910.981 13.8608 910.937 14.0002 910.644 14.0002H909.456C909.28 14.0002 909.141 13.9342 909.038 13.8022L904.154 8.06017L901.998 9.84217V13.7142C901.998 13.9048 901.903 14.0002 901.712 14.0002H900.832C900.641 14.0002 900.546 13.9048 900.546 13.7142V2.29617C900.546 2.10551 900.641 2.01017 900.832 2.01017Z" fill="#1F202A"/>
<path d="M916.893 2.01017H918.609C918.785 2.01017 918.902 2.08351 918.961 2.23017L923.955 13.6922C923.984 13.7655 923.984 13.8388 923.955 13.9122C923.926 13.9708 923.874 14.0002 923.801 14.0002H922.767C922.606 14.0002 922.495 13.9268 922.437 13.7802L921.447 11.4482H914.033L913.021 13.7802C912.977 13.9268 912.867 14.0002 912.691 14.0002H911.635C911.444 14.0002 911.393 13.8975 911.481 13.6922L916.541 2.25217C916.614 2.09084 916.731 2.01017 916.893 2.01017ZM917.531 3.24217L914.583 10.1282H920.897L917.949 3.24217H917.531Z" fill="#1F202A"/>
<path d="M930.078 11.0522V13.6922C930.078 13.8975 929.983 14.0002 929.792 14.0002H928.912C928.722 14.0002 928.626 13.8975 928.626 13.6922V11.0742L923.566 2.29617C923.478 2.10551 923.53 2.01017 923.72 2.01017H924.864C925.011 2.01017 925.121 2.06884 925.194 2.18617L929.286 9.57817H929.484L933.51 2.18617C933.584 2.06884 933.686 2.01017 933.818 2.01017H934.984C935.175 2.01017 935.219 2.10551 935.116 2.29617L930.078 11.0522Z" fill="#1F202A"/>
<path d="M940.161 2.01017H941.877C942.053 2.01017 942.171 2.08351 942.229 2.23017L947.223 13.6922C947.253 13.7655 947.253 13.8388 947.223 13.9122C947.194 13.9708 947.143 14.0002 947.069 14.0002H946.035C945.874 14.0002 945.764 13.9268 945.705 13.7802L944.715 11.4482H937.301L936.289 13.7802C936.245 13.9268 936.135 14.0002 935.959 14.0002H934.903C934.713 14.0002 934.661 13.8975 934.749 13.6922L939.809 2.25217C939.883 2.09084 940 2.01017 940.161 2.01017ZM940.799 3.24217L937.851 10.1282L944.165 10.1282L941.217 3.24217H940.799Z" fill="#1F202A"/>
<path d="M963.324 0.734174L964.028 0.932174C964.204 1.00551 964.262 1.13751 964.204 1.32817L959.034 15.0122C958.96 15.1882 958.836 15.2395 958.66 15.1662L957.956 14.9682C957.78 14.8948 957.728 14.7702 957.802 14.5942L962.95 0.910174C963.038 0.719507 963.162 0.66084 963.324 0.734174Z" fill="#1F202A"/>
<path d="M975.371 8.65417H976.845L977.087 6.98217H975.591C975.4 6.98217 975.305 6.88684 975.305 6.69617V6.05817C975.305 5.86751 975.4 5.77217 975.591 5.77217H977.285L977.527 4.16617C977.6 3.99017 977.717 3.91684 977.879 3.94617L978.561 4.05617C978.751 4.11484 978.817 4.23951 978.759 4.43017L978.539 5.77217H980.277L980.541 4.16617C980.614 3.99017 980.731 3.91684 980.893 3.94617L981.575 4.05617C981.765 4.11484 981.831 4.23951 981.773 4.43017L981.553 5.77217H982.873C983.078 5.77217 983.181 5.86751 983.181 6.05817V6.69617C983.181 6.88684 983.078 6.98217 982.873 6.98217H981.355L981.091 8.65417H982.653C982.858 8.65417 982.961 8.74951 982.961 8.94018V9.57817C982.961 9.76884 982.858 9.86417 982.653 9.86417H980.893L980.629 11.4922C980.57 11.6828 980.453 11.7488 980.277 11.6902L979.639 11.6022C979.448 11.5435 979.382 11.4262 979.441 11.2502L979.661 9.86417H977.901L977.637 11.4922C977.578 11.6828 977.461 11.7488 977.285 11.6902L976.647 11.6022C976.456 11.5435 976.39 11.4262 976.449 11.2502L976.647 9.86417H975.371C975.18 9.86417 975.085 9.76884 975.085 9.57817V8.94018C975.085 8.74951 975.18 8.65417 975.371 8.65417ZM978.341 6.98217L978.077 8.65417H979.837L980.101 6.98217H978.341Z" fill="#1F202A"/>
<path d="M983.918 2.01017H993.994C994.199 2.01017 994.302 2.11284 994.302 2.31817V3.02217C994.302 3.22751 994.199 3.33017 993.994 3.33017L989.682 3.33017V13.6922C989.682 13.8975 989.579 14.0002 989.374 14.0002H988.538C988.332 14.0002 988.23 13.8975 988.23 13.6922V3.33017H983.918C983.712 3.33017 983.61 3.22751 983.61 3.02217V2.31817C983.61 2.11284 983.712 2.01017 983.918 2.01017Z" fill="#1F202A"/>
<path d="M995.916 2.01017H1004.45C1004.64 2.01017 1004.74 2.10551 1004.74 2.29617V3.04417C1004.74 3.23484 1004.64 3.33017 1004.45 3.33017H997.082V7.02618H1004.03C1004.22 7.02618 1004.32 7.12151 1004.32 7.31217V8.06017C1004.32 8.25084 1004.22 8.34617 1004.03 8.34617H997.082V12.6802H1004.67C1004.86 12.6802 1004.96 12.7682 1004.96 12.9442V13.7142C1004.96 13.9048 1004.86 14.0002 1004.67 14.0002H995.916C995.725 14.0002 995.63 13.9048 995.63 13.7142V2.29617C995.63 2.10551 995.725 2.01017 995.916 2.01017Z" fill="#1F202A"/>
<path d="M1017.5 14.0002H1016.49C1016.31 14.0002 1016.18 13.9342 1016.09 13.8022L1012.02 8.67617L1008.44 3.92417L1008.28 3.96817L1008.39 8.41217V13.7142C1008.39 13.9048 1008.29 14.0002 1008.09 14.0002H1007.23C1007.04 14.0002 1006.94 13.8975 1006.94 13.6922V2.29617C1006.94 2.10551 1007.04 2.01017 1007.23 2.01017H1008.2C1008.4 2.01017 1008.56 2.09084 1008.68 2.25217L1013.04 7.68617L1016.29 12.0422L1016.45 12.0202L1016.34 7.57617V2.29617C1016.34 2.10551 1016.43 2.01017 1016.62 2.01017H1017.5C1017.69 2.01017 1017.79 2.10551 1017.79 2.29617V13.7142C1017.79 13.9048 1017.69 14.0002 1017.5 14.0002Z" fill="#1F202A"/>
<path d="M1030.55 14.0002H1029.54C1029.37 14.0002 1029.23 13.9342 1029.15 13.8022L1025.08 8.67617L1021.49 3.92417L1021.34 3.96817L1021.45 8.41217V13.7142C1021.45 13.9048 1021.34 14.0002 1021.14 14.0002H1020.28C1020.09 14.0002 1019.99 13.8975 1019.99 13.6922V2.29617C1019.99 2.10551 1020.09 2.01017 1020.28 2.01017H1021.25C1021.45 2.01017 1021.61 2.09084 1021.73 2.25217L1026.09 7.68617L1029.34 12.0422L1029.5 12.0202L1029.39 7.57617V2.29618C1029.39 2.10551 1029.48 2.01017 1029.67 2.01017H1030.55C1030.74 2.01017 1030.84 2.10551 1030.84 2.29618V13.7142C1030.84 13.9048 1030.74 14.0002 1030.55 14.0002Z" fill="#1F202A"/>
<path d="M1033.33 2.01017H1034.21C1034.4 2.01017 1034.5 2.10551 1034.5 2.29618V13.7142C1034.5 13.9048 1034.4 14.0002 1034.21 14.0002H1033.33C1033.14 14.0002 1033.05 13.9048 1033.05 13.7142V2.29618C1033.05 2.10551 1033.14 2.01017 1033.33 2.01017Z" fill="#1F202A"/>
<path d="M1041.35 1.83417C1043.35 1.83417 1044.99 2.40617 1046.28 3.55017C1046.41 3.68217 1046.42 3.81417 1046.3 3.94617L1045.75 4.58417C1045.63 4.71617 1045.5 4.72351 1045.36 4.60617C1044.24 3.62351 1042.89 3.13217 1041.31 3.13217C1039.09 3.13217 1037.99 3.75551 1037.99 5.00217C1037.99 5.60351 1038.26 6.02884 1038.82 6.27817C1039.39 6.52751 1040.33 6.73284 1041.62 6.89418C1042.47 7.01151 1043.18 7.14351 1043.75 7.29017C1044.32 7.43684 1044.86 7.64951 1045.36 7.92817C1045.87 8.19217 1046.25 8.54417 1046.5 8.98417C1046.75 9.40951 1046.87 9.93017 1046.87 10.5462C1046.87 11.7048 1046.37 12.5995 1045.36 13.2302C1044.36 13.8608 1043.09 14.1762 1041.55 14.1762C1039.39 14.1762 1037.58 13.5308 1036.12 12.2402C1036 12.1228 1036 11.9908 1036.12 11.8442L1036.64 11.1182C1036.78 10.9715 1036.91 10.9642 1037.04 11.0962C1038.27 12.2695 1039.78 12.8562 1041.57 12.8562C1042.82 12.8562 1043.77 12.6508 1044.43 12.2402C1045.11 11.8148 1045.44 11.2502 1045.44 10.5462C1045.44 9.82751 1045.11 9.31418 1044.45 9.00618C1043.81 8.68351 1042.8 8.44151 1041.42 8.28017C1040.86 8.22151 1040.37 8.15551 1039.94 8.08217C1039.53 7.99418 1039.1 7.86951 1038.65 7.70817C1038.19 7.54684 1037.82 7.35617 1037.55 7.13618C1037.27 6.91617 1037.03 6.62284 1036.84 6.25617C1036.65 5.88951 1036.56 5.47151 1036.56 5.00217C1036.56 4.04884 1036.99 3.28617 1037.85 2.71417C1038.73 2.12751 1039.9 1.83417 1041.35 1.83417Z" fill="#1F202A"/>
<path d="M1062.84 0.734174L1063.55 0.932174C1063.72 1.00551 1063.78 1.13751 1063.72 1.32817L1058.55 15.0122C1058.48 15.1882 1058.36 15.2395 1058.18 15.1662L1057.48 14.9682C1057.3 14.8948 1057.25 14.7702 1057.32 14.5942L1062.47 0.910175C1062.56 0.719508 1062.68 0.660841 1062.84 0.734174Z" fill="#1F202A"/>
<path d="M1074.5 2.01017H1075.49C1075.69 2.01017 1075.83 2.12017 1075.9 2.34017L1079.05 12.5482H1079.18L1082.22 2.25217C1082.26 2.09084 1082.39 2.01017 1082.59 2.01017H1083.56C1083.74 2.01017 1083.85 2.09084 1083.89 2.25217L1086.99 12.5482H1087.17L1090.31 2.27417C1090.37 2.09817 1090.5 2.01017 1090.71 2.01017H1091.68C1091.77 2.01017 1091.82 2.03951 1091.85 2.09818C1091.9 2.15684 1091.9 2.22284 1091.88 2.29618L1088.18 13.6262C1088.11 13.8755 1087.96 14.0002 1087.74 14.0002H1086.33C1086.13 14.0002 1085.99 13.8828 1085.94 13.6482L1083.1 4.29818H1082.97L1080.24 13.6482C1080.18 13.8828 1080.04 14.0002 1079.82 14.0002H1078.43C1078.21 14.0002 1078.07 13.8902 1078.02 13.6702L1074.3 2.27417C1074.25 2.09817 1074.32 2.01017 1074.5 2.01017Z" fill="#1F202A"/>
<path d="M1093.84 2.01017H1094.72C1094.91 2.01017 1095 2.10551 1095 2.29618V13.7142C1095 13.9048 1094.91 14.0002 1094.72 14.0002H1093.84C1093.64 14.0002 1093.55 13.9048 1093.55 13.7142V2.29618C1093.55 2.10551 1093.64 2.01017 1093.84 2.01017Z" fill="#1F202A"/>
<path d="M1096.62 2.01017L1106.7 2.01018C1106.9 2.01018 1107 2.11284 1107 2.31818V3.02218C1107 3.22751 1106.9 3.33018 1106.7 3.33018H1102.38V13.6922C1102.38 13.8975 1102.28 14.0002 1102.08 14.0002H1101.24C1101.03 14.0002 1100.93 13.8975 1100.93 13.6922V3.33018H1096.62C1096.41 3.33018 1096.31 3.22751 1096.31 3.02218V2.31817C1096.31 2.11284 1096.41 2.01017 1096.62 2.01017Z" fill="#1F202A"/>
<path d="M1108.62 2.01018H1109.48C1109.68 2.01018 1109.78 2.10551 1109.78 2.29618V7.09218H1117.26V2.29618C1117.26 2.10551 1117.37 2.01018 1117.57 2.01018H1118.41C1118.61 2.01018 1118.72 2.10551 1118.72 2.29618V13.7142C1118.72 13.9048 1118.61 14.0002 1118.41 14.0002H1117.57C1117.37 14.0002 1117.26 13.9048 1117.26 13.7142V8.41218H1109.78V13.7142C1109.78 13.9048 1109.68 14.0002 1109.48 14.0002H1108.62C1108.43 14.0002 1108.33 13.9048 1108.33 13.7142V2.29618C1108.33 2.10551 1108.43 2.01018 1108.62 2.01018Z" fill="#1F202A"/>
<path d="M1126.17 2.01018H1127.05C1127.24 2.01018 1127.34 2.10551 1127.34 2.29618V12.6802H1135.02C1135.22 12.6802 1135.32 12.7828 1135.32 12.9882V13.6922C1135.32 13.8975 1135.22 14.0002 1135.02 14.0002H1126.19C1125.99 14.0002 1125.89 13.8975 1125.89 13.6922V2.29618C1125.89 2.10551 1125.98 2.01018 1126.17 2.01018Z" fill="#1F202A"/>
<path d="M1142.17 3.15418C1140.79 3.15418 1139.66 3.61618 1138.78 4.54018C1137.9 5.46418 1137.46 6.62284 1137.46 8.01618C1137.46 9.39484 1137.9 10.5462 1138.78 11.4702C1139.66 12.3942 1140.79 12.8562 1142.17 12.8562C1143.56 12.8562 1144.7 12.3942 1145.58 11.4702C1146.46 10.5462 1146.9 9.39484 1146.9 8.01618C1146.9 6.62284 1146.46 5.46418 1145.58 4.54018C1144.7 3.61618 1143.56 3.15418 1142.17 3.15418ZM1137.77 12.4382C1136.58 11.2648 1135.98 9.79084 1135.98 8.01618C1135.98 6.24151 1136.58 4.76751 1137.77 3.59418C1138.95 2.42084 1140.42 1.83417 1142.17 1.83417C1143.94 1.83417 1145.41 2.42084 1146.59 3.59418C1147.78 4.75284 1148.37 6.22684 1148.37 8.01618C1148.37 9.79084 1147.78 11.2648 1146.59 12.4382C1145.41 13.5968 1143.94 14.1762 1142.17 14.1762C1140.42 14.1762 1138.95 13.5968 1137.77 12.4382Z" fill="#1F202A"/>
<path d="M1155.53 14.0002H1154.1C1153.94 14.0002 1153.83 13.9268 1153.77 13.7802L1148.73 2.31818C1148.65 2.11284 1148.7 2.01018 1148.89 2.01018H1149.99C1150.13 2.01018 1150.24 2.07618 1150.32 2.20818L1152.69 7.77418L1154.74 12.6362H1154.94L1157.01 7.68618L1159.36 2.20818C1159.42 2.07618 1159.53 2.01018 1159.69 2.01018H1160.81C1160.88 2.01018 1160.94 2.04684 1160.97 2.12018C1160.99 2.17884 1160.99 2.24484 1160.97 2.31818L1155.86 13.7802C1155.8 13.9268 1155.69 14.0002 1155.53 14.0002Z" fill="#1F202A"/>
<path d="M1162.73 2.01018L1171.26 2.01018C1171.45 2.01018 1171.55 2.10551 1171.55 2.29618V3.04418C1171.55 3.23484 1171.45 3.33018 1171.26 3.33018H1163.89V7.02618L1170.85 7.02618C1171.04 7.02618 1171.13 7.12151 1171.13 7.31218V8.06018C1171.13 8.25084 1171.04 8.34618 1170.85 8.34618H1163.89V12.6802H1171.48C1171.67 12.6802 1171.77 12.7682 1171.77 12.9442V13.7142C1171.77 13.9048 1171.67 14.0002 1171.48 14.0002H1162.73C1162.54 14.0002 1162.44 13.9048 1162.44 13.7142V2.29618C1162.44 2.10551 1162.54 2.01018 1162.73 2.01018Z" fill="#1F202A"/>
<path d="M1188.19 0.734175L1188.89 0.932175C1189.07 1.00551 1189.13 1.13751 1189.07 1.32818L1183.9 15.0122C1183.83 15.1882 1183.7 15.2395 1183.53 15.1662L1182.82 14.9682C1182.65 14.8948 1182.6 14.7702 1182.67 14.5942L1187.82 0.910175C1187.9 0.719508 1188.03 0.660842 1188.19 0.734175Z" fill="#1F202A"/>
<path d="M1201.62 3.33018V12.6582H1204.92C1206.29 12.6582 1207.41 12.2255 1208.29 11.3602C1209.18 10.4802 1209.63 9.35818 1209.63 7.99418C1209.63 6.63018 1209.18 5.51551 1208.29 4.65018C1207.41 3.77018 1206.29 3.33018 1204.92 3.33018H1201.62ZM1200.46 2.01018H1204.92C1206.7 2.01018 1208.17 2.57484 1209.35 3.70418C1210.53 4.81884 1211.13 6.24884 1211.13 7.99418C1211.13 9.75418 1210.53 11.1988 1209.35 12.3282C1208.17 13.4428 1206.7 14.0002 1204.92 14.0002H1200.46C1200.27 14.0002 1200.17 13.9048 1200.17 13.7142V2.31818C1200.17 2.11284 1200.27 2.01018 1200.46 2.01018Z" fill="#1F202A"/>
<path d="M1217.12 2.01018H1218.84C1219.01 2.01018 1219.13 2.08351 1219.19 2.23018L1224.18 13.6922C1224.21 13.7655 1224.21 13.8388 1224.18 13.9122C1224.15 13.9708 1224.1 14.0002 1224.03 14.0002H1222.99C1222.83 14.0002 1222.72 13.9268 1222.66 13.7802L1221.67 11.4482H1214.26L1213.25 13.7802C1213.2 13.9268 1213.09 14.0002 1212.92 14.0002H1211.86C1211.67 14.0002 1211.62 13.8975 1211.71 13.6922L1216.77 2.25218C1216.84 2.09084 1216.96 2.01018 1217.12 2.01018ZM1217.76 3.24218L1214.81 10.1282H1221.12L1218.18 3.24218H1217.76Z" fill="#1F202A"/>
<path d="M1230.31 11.0522V13.6922C1230.31 13.8975 1230.21 14.0002 1230.02 14.0002H1229.14C1228.95 14.0002 1228.85 13.8975 1228.85 13.6922V11.0742L1223.79 2.29618C1223.71 2.10551 1223.76 2.01018 1223.95 2.01018H1225.09C1225.24 2.01018 1225.35 2.06884 1225.42 2.18618L1229.51 9.57818H1229.71L1233.74 2.18618C1233.81 2.06884 1233.91 2.01018 1234.05 2.01018L1235.21 2.01018C1235.4 2.01018 1235.45 2.10551 1235.34 2.29618L1230.31 11.0522Z" fill="#1F202A"/>
<path d="M1240.39 2.01018H1242.1C1242.28 2.01018 1242.4 2.08351 1242.46 2.23018L1247.45 13.6922C1247.48 13.7655 1247.48 13.8388 1247.45 13.9122C1247.42 13.9708 1247.37 14.0002 1247.3 14.0002H1246.26C1246.1 14.0002 1245.99 13.9268 1245.93 13.7802L1244.94 11.4482H1237.53L1236.52 13.7802C1236.47 13.9268 1236.36 14.0002 1236.19 14.0002H1235.13C1234.94 14.0002 1234.89 13.8975 1234.98 13.6922L1240.04 2.25218C1240.11 2.09084 1240.23 2.01018 1240.39 2.01018ZM1241.03 3.24218L1238.08 10.1282H1244.39L1241.44 3.24218H1241.03Z" fill="#1F202A"/>
<path d="M1259.67 14.0002H1258.66C1258.49 14.0002 1258.35 13.9342 1258.27 13.8022L1254.2 8.67618L1250.61 3.92418L1250.46 3.96818L1250.57 8.41218V13.7142C1250.57 13.9048 1250.46 14.0002 1250.26 14.0002H1249.4C1249.21 14.0002 1249.11 13.8975 1249.11 13.6922V2.29618C1249.11 2.10551 1249.21 2.01018 1249.4 2.01018H1250.37C1250.57 2.01018 1250.74 2.09084 1250.85 2.25218L1255.21 7.68618L1258.46 12.0422L1258.62 12.0202L1258.51 7.57618V2.29618C1258.51 2.10551 1258.6 2.01018 1258.79 2.01018H1259.67C1259.87 2.01018 1259.96 2.10551 1259.96 2.29618V13.7142C1259.96 13.9048 1259.87 14.0002 1259.67 14.0002Z" fill="#1F202A"/>
<path d="M1267.07 2.01018H1268.79C1268.96 2.01018 1269.08 2.08351 1269.14 2.23018L1274.13 13.6922C1274.16 13.7655 1274.16 13.8388 1274.13 13.9122C1274.11 13.9708 1274.05 14.0002 1273.98 14.0002H1272.95C1272.79 14.0002 1272.68 13.9268 1272.62 13.7802L1271.63 11.4482H1264.21L1263.2 13.7802C1263.16 13.9268 1263.05 14.0002 1262.87 14.0002H1261.81C1261.62 14.0002 1261.57 13.8975 1261.66 13.6922L1266.72 2.25218C1266.79 2.09084 1266.91 2.01018 1267.07 2.01018ZM1267.71 3.24218L1264.76 10.1282H1271.08L1268.13 3.24218H1267.71Z" fill="#1F202A"/>
<path d="M1286.78 11.0522V13.6922C1286.78 13.8975 1286.68 14.0002 1286.49 14.0002H1285.61C1285.42 14.0002 1285.33 13.8975 1285.33 13.6922V11.0742L1280.27 2.29618C1280.18 2.10551 1280.23 2.01018 1280.42 2.01018L1281.57 2.01018C1281.71 2.01018 1281.82 2.06884 1281.9 2.18618L1285.99 9.57818H1286.19L1290.21 2.18618C1290.28 2.06884 1290.39 2.01018 1290.52 2.01018H1291.69C1291.88 2.01018 1291.92 2.10551 1291.82 2.29618L1286.78 11.0522Z" fill="#1F202A"/>
<path d="M1296.86 2.01018H1298.58C1298.75 2.01018 1298.87 2.08351 1298.93 2.23018L1303.92 13.6922C1303.95 13.7655 1303.95 13.8388 1303.92 13.9122C1303.89 13.9708 1303.84 14.0002 1303.77 14.0002H1302.74C1302.57 14.0002 1302.46 13.9268 1302.41 13.7802L1301.42 11.4482H1294L1292.99 13.7802C1292.95 13.9268 1292.84 14.0002 1292.66 14.0002H1291.6C1291.41 14.0002 1291.36 13.8975 1291.45 13.6922L1296.51 2.25218C1296.58 2.09084 1296.7 2.01018 1296.86 2.01018ZM1297.5 3.24218L1294.55 10.1282H1300.87L1297.92 3.24218H1297.5Z" fill="#1F202A"/>
<path d="M1310.25 1.83418C1312.25 1.83418 1313.89 2.40618 1315.18 3.55018C1315.31 3.68218 1315.32 3.81418 1315.2 3.94618L1314.65 4.58418C1314.54 4.71618 1314.4 4.72351 1314.26 4.60618C1313.14 3.62351 1311.79 3.13218 1310.21 3.13218C1307.99 3.13218 1306.89 3.75551 1306.89 5.00218C1306.89 5.60351 1307.16 6.02884 1307.72 6.27818C1308.29 6.52751 1309.23 6.73284 1310.52 6.89418C1311.37 7.01151 1312.08 7.14351 1312.65 7.29018C1313.22 7.43684 1313.76 7.64951 1314.26 7.92818C1314.77 8.19218 1315.15 8.54418 1315.4 8.98418C1315.65 9.40951 1315.77 9.93018 1315.77 10.5462C1315.77 11.7048 1315.27 12.5995 1314.26 13.2302C1313.26 13.8608 1311.99 14.1762 1310.45 14.1762C1308.29 14.1762 1306.48 13.5308 1305.02 12.2402C1304.9 12.1228 1304.9 11.9908 1305.02 11.8442L1305.54 11.1182C1305.68 10.9715 1305.81 10.9642 1305.94 11.0962C1307.17 12.2695 1308.68 12.8562 1310.47 12.8562C1311.72 12.8562 1312.67 12.6508 1313.33 12.2402C1314.01 11.8148 1314.34 11.2502 1314.34 10.5462C1314.34 9.82751 1314.01 9.31418 1313.35 9.00618C1312.71 8.68351 1311.7 8.44151 1310.32 8.28018C1309.76 8.22151 1309.27 8.15551 1308.84 8.08218C1308.43 7.99418 1308 7.86951 1307.55 7.70818C1307.09 7.54684 1306.72 7.35618 1306.45 7.13618C1306.17 6.91618 1305.93 6.62284 1305.74 6.25618C1305.55 5.88951 1305.46 5.47151 1305.46 5.00218C1305.46 4.04884 1305.89 3.28618 1306.75 2.71418C1307.63 2.12751 1308.8 1.83418 1310.25 1.83418Z" fill="#1F202A"/>
<path d="M1316.74 2.01018L1326.81 2.01018C1327.02 2.01018 1327.12 2.11284 1327.12 2.31818V3.02218C1327.12 3.22751 1327.02 3.33018 1326.81 3.33018H1322.5V13.6922C1322.5 13.8975 1322.4 14.0002 1322.19 14.0002H1321.36C1321.15 14.0002 1321.05 13.8975 1321.05 13.6922V3.33018H1316.74C1316.53 3.33018 1316.43 3.22751 1316.43 3.02218V2.31818C1316.43 2.11284 1316.53 2.01018 1316.74 2.01018Z" fill="#1F202A"/>
<path d="M1328.73 2.01018H1334.23C1335.51 2.01018 1336.57 2.41351 1337.42 3.22018C1338.28 4.02684 1338.7 5.02418 1338.7 6.21218C1338.7 7.09218 1338.47 7.86951 1338.02 8.54418C1337.56 9.21884 1336.94 9.71751 1336.15 10.0402L1338.19 13.6922C1338.24 13.7802 1338.24 13.8535 1338.19 13.9122C1338.15 13.9708 1338.08 14.0002 1338 14.0002H1336.94C1336.79 14.0002 1336.66 13.9122 1336.54 13.7362L1334.78 10.3922C1334.67 10.4068 1334.48 10.4142 1334.23 10.4142H1329.9V13.7142C1329.9 13.9048 1329.81 14.0002 1329.61 14.0002H1328.73C1328.54 14.0002 1328.45 13.9048 1328.45 13.7142V2.29618C1328.45 2.10551 1328.54 2.01018 1328.73 2.01018ZM1329.9 9.09418H1334.23C1335.19 9.09418 1335.93 8.83018 1336.46 8.30218C1336.98 7.75951 1337.25 7.06284 1337.25 6.21218C1337.25 5.36151 1336.98 4.67218 1336.43 4.14418C1335.91 3.60151 1335.17 3.33018 1334.23 3.33018H1329.9V9.09418Z" fill="#1F202A"/>
<path d="M1340.97 2.01018H1349.51C1349.7 2.01018 1349.79 2.10551 1349.79 2.29618V3.04418C1349.79 3.23484 1349.7 3.33018 1349.51 3.33018H1342.14V7.02618H1349.09C1349.28 7.02618 1349.37 7.12151 1349.37 7.31218V8.06018C1349.37 8.25084 1349.28 8.34618 1349.09 8.34618H1342.14V12.6802H1349.73C1349.92 12.6802 1350.01 12.7682 1350.01 12.9442V13.7142C1350.01 13.9048 1349.92 14.0002 1349.73 14.0002H1340.97C1340.78 14.0002 1340.68 13.9048 1340.68 13.7142V2.29618C1340.68 2.10551 1340.78 2.01018 1340.97 2.01018Z" fill="#1F202A"/>
<path d="M1363.5 2.01018H1365.11C1365.3 2.01018 1365.39 2.10551 1365.39 2.29618V13.6922C1365.39 13.8975 1365.3 14.0002 1365.11 14.0002H1364.25C1364.04 14.0002 1363.94 13.8975 1363.94 13.6922V7.99418L1364.03 3.57218L1363.92 3.55018L1362.07 7.92818L1359.39 13.7142C1359.3 13.9048 1359.18 14.0002 1359.01 14.0002H1358.4C1358.22 14.0002 1358.09 13.9048 1358 13.7142L1355.27 7.77418L1353.45 3.55018L1353.36 3.57218L1353.45 7.75218V13.6922C1353.45 13.8975 1353.35 14.0002 1353.16 14.0002H1352.28C1352.09 14.0002 1352 13.8975 1352 13.6922V2.29618C1352 2.10551 1352.09 2.01018 1352.28 2.01018H1353.91C1354.1 2.01018 1354.24 2.11284 1354.33 2.31818L1356.88 7.79618L1358.68 12.0642H1358.82L1360.88 7.20218L1363.08 2.31818C1363.17 2.11284 1363.31 2.01018 1363.5 2.01018Z" fill="#1F202A"/>
<path d="M1372.25 1.83418C1374.24 1.83418 1375.88 2.40618 1377.18 3.55018C1377.31 3.68218 1377.31 3.81418 1377.2 3.94618L1376.65 4.58418C1376.53 4.71618 1376.4 4.72351 1376.25 4.60618C1375.14 3.62351 1373.79 3.13218 1372.2 3.13218C1369.99 3.13218 1368.88 3.75551 1368.88 5.00218C1368.88 5.60351 1369.16 6.02884 1369.72 6.27818C1370.29 6.52751 1371.22 6.73284 1372.51 6.89418C1373.36 7.01151 1374.07 7.14351 1374.65 7.29018C1375.22 7.43684 1375.75 7.64951 1376.25 7.92818C1376.76 8.19218 1377.15 8.54418 1377.4 8.98418C1377.64 9.40951 1377.77 9.93018 1377.77 10.5462C1377.77 11.7048 1377.26 12.5995 1376.25 13.2302C1375.25 13.8608 1373.99 14.1762 1372.45 14.1762C1370.29 14.1762 1368.48 13.5308 1367.01 12.2402C1366.89 12.1228 1366.89 11.9908 1367.01 11.8442L1367.54 11.1182C1367.67 10.9715 1367.8 10.9642 1367.94 11.0962C1369.17 12.2695 1370.68 12.8562 1372.47 12.8562C1373.71 12.8562 1374.67 12.6508 1375.33 12.2402C1376 11.8148 1376.34 11.2502 1376.34 10.5462C1376.34 9.82751 1376.01 9.31418 1375.35 9.00618C1374.7 8.68351 1373.69 8.44151 1372.31 8.28018C1371.76 8.22151 1371.26 8.15551 1370.84 8.08218C1370.43 7.99418 1370 7.86951 1369.54 7.70818C1369.09 7.54684 1368.72 7.35618 1368.44 7.13618C1368.16 6.91618 1367.93 6.62284 1367.74 6.25618C1367.55 5.88951 1367.45 5.47151 1367.45 5.00218C1367.45 4.04884 1367.88 3.28618 1368.75 2.71418C1369.63 2.12751 1370.8 1.83418 1372.25 1.83418Z" fill="#1F202A"/>
<path d="M1379.59 2.01018H1380.47C1380.66 2.01018 1380.76 2.10551 1380.76 2.29618V8.23618L1387.29 2.18618C1387.41 2.06884 1387.54 2.01018 1387.69 2.01018H1388.94C1389.09 2.01018 1389.17 2.06884 1389.18 2.18618C1389.2 2.28884 1389.17 2.36951 1389.09 2.42818L1383.9 7.13618L1389.53 13.5822C1389.74 13.8608 1389.7 14.0002 1389.4 14.0002H1388.21C1388.04 14.0002 1387.9 13.9342 1387.8 13.8022L1382.91 8.06018L1380.76 9.84218V13.7142C1380.76 13.9048 1380.66 14.0002 1380.47 14.0002H1379.59C1379.4 14.0002 1379.3 13.9048 1379.3 13.7142V2.29618C1379.3 2.10551 1379.4 2.01018 1379.59 2.01018Z" fill="#1F202A"/>
<path d="M1395.65 2.01018H1397.37C1397.54 2.01018 1397.66 2.08351 1397.72 2.23018L1402.71 13.6922C1402.74 13.7655 1402.74 13.8388 1402.71 13.9122C1402.68 13.9708 1402.63 14.0002 1402.56 14.0002H1401.52C1401.36 14.0002 1401.25 13.9268 1401.19 13.7802L1400.2 11.4482H1392.79L1391.78 13.7802C1391.73 13.9268 1391.62 14.0002 1391.45 14.0002H1390.39C1390.2 14.0002 1390.15 13.8975 1390.24 13.6922L1395.3 2.25218C1395.37 2.09084 1395.49 2.01018 1395.65 2.01018ZM1396.29 3.24218L1393.34 10.1282H1399.65L1396.71 3.24218H1396.29Z" fill="#1F202A"/>
<path d="M1408.84 11.0522V13.6922C1408.84 13.8975 1408.74 14.0002 1408.55 14.0002H1407.67C1407.48 14.0002 1407.38 13.8975 1407.38 13.6922V11.0742L1402.32 2.29618C1402.24 2.10551 1402.29 2.01018 1402.48 2.01018H1403.62C1403.77 2.01018 1403.88 2.06884 1403.95 2.18618L1408.04 9.57818H1408.24L1412.27 2.18618C1412.34 2.06884 1412.44 2.01018 1412.58 2.01018H1413.74C1413.93 2.01018 1413.98 2.10551 1413.87 2.29618L1408.84 11.0522Z" fill="#1F202A"/>
<path d="M1418.92 2.01018H1420.64C1420.81 2.01018 1420.93 2.08351 1420.99 2.23018L1425.98 13.6922C1426.01 13.7655 1426.01 13.8388 1425.98 13.9122C1425.95 13.9708 1425.9 14.0002 1425.83 14.0002H1424.79C1424.63 14.0002 1424.52 13.9268 1424.46 13.7802L1423.47 11.4482H1416.06L1415.05 13.7802C1415 13.9268 1414.89 14.0002 1414.72 14.0002H1413.66C1413.47 14.0002 1413.42 13.8975 1413.51 13.6922L1418.57 2.25218C1418.64 2.09084 1418.76 2.01018 1418.92 2.01018ZM1419.56 3.24218L1416.61 10.1282H1422.92L1419.97 3.24218H1419.56Z" fill="#1F202A"/>
<path d="M1442.08 0.734176L1442.79 0.932176C1442.96 1.00551 1443.02 1.13751 1442.96 1.32818L1437.79 15.0122C1437.72 15.1882 1437.59 15.2395 1437.42 15.1662L1436.71 14.9682C1436.54 14.8948 1436.49 14.7702 1436.56 14.5942L1441.71 0.910177C1441.8 0.71951 1441.92 0.660843 1442.08 0.734176Z" fill="#1F202A"/>
<path d="M1459.1 8.65418H1460.58L1460.82 6.98218H1459.32C1459.13 6.98218 1459.04 6.88684 1459.04 6.69618V6.05818C1459.04 5.86751 1459.13 5.77218 1459.32 5.77218H1461.02L1461.26 4.16618C1461.33 3.99018 1461.45 3.91684 1461.61 3.94618L1462.29 4.05618C1462.48 4.11484 1462.55 4.23951 1462.49 4.43018L1462.27 5.77218H1464.01L1464.27 4.16618C1464.35 3.99018 1464.46 3.91684 1464.62 3.94618L1465.31 4.05618C1465.5 4.11484 1465.56 4.23951 1465.5 4.43018L1465.28 5.77218H1466.6C1466.81 5.77218 1466.91 5.86751 1466.91 6.05818V6.69618C1466.91 6.88684 1466.81 6.98218 1466.6 6.98218H1465.09L1464.82 8.65418H1466.38C1466.59 8.65418 1466.69 8.74951 1466.69 8.94018V9.57818C1466.69 9.76884 1466.59 9.86418 1466.38 9.86418H1464.62L1464.36 11.4922C1464.3 11.6828 1464.18 11.7488 1464.01 11.6902L1463.37 11.6022C1463.18 11.5435 1463.11 11.4262 1463.17 11.2502L1463.39 9.86418H1461.63L1461.37 11.4922C1461.31 11.6828 1461.19 11.7488 1461.02 11.6902L1460.38 11.6022C1460.19 11.5435 1460.12 11.4262 1460.18 11.2502L1460.38 9.86418H1459.1C1458.91 9.86418 1458.82 9.76884 1458.82 9.57818V8.94018C1458.82 8.74951 1458.91 8.65418 1459.1 8.65418ZM1462.07 6.98218L1461.81 8.65418H1463.57L1463.83 6.98218H1462.07Z" fill="#1F202A"/>
<path d="M1467.65 2.01018H1477.73C1477.93 2.01018 1478.03 2.11284 1478.03 2.31818V3.02218C1478.03 3.22751 1477.93 3.33018 1477.73 3.33018H1473.41V13.6922C1473.41 13.8975 1473.31 14.0002 1473.11 14.0002H1472.27C1472.06 14.0002 1471.96 13.8975 1471.96 13.6922V3.33018H1467.65C1467.44 3.33018 1467.34 3.22751 1467.34 3.02218V2.31818C1467.34 2.11284 1467.44 2.01018 1467.65 2.01018Z" fill="#1F202A"/>
<path d="M1479.65 2.01018L1488.18 2.01018C1488.37 2.01018 1488.47 2.10551 1488.47 2.29618V3.04418C1488.47 3.23484 1488.37 3.33018 1488.18 3.33018H1480.81V7.02618H1487.77C1487.96 7.02618 1488.05 7.12151 1488.05 7.31218V8.06018C1488.05 8.25084 1487.96 8.34618 1487.77 8.34618H1480.81V12.6802H1488.4C1488.59 12.6802 1488.69 12.7682 1488.69 12.9442V13.7142C1488.69 13.9048 1488.59 14.0002 1488.4 14.0002H1479.65C1479.46 14.0002 1479.36 13.9048 1479.36 13.7142V2.29618C1479.36 2.10551 1479.46 2.01018 1479.65 2.01018Z" fill="#1F202A"/>
<path d="M1501.23 14.0002H1500.22C1500.05 14.0002 1499.91 13.9342 1499.83 13.8022L1495.76 8.67618L1492.17 3.92418L1492.02 3.96818L1492.13 8.41218V13.7142C1492.13 13.9048 1492.02 14.0002 1491.82 14.0002H1490.96C1490.77 14.0002 1490.67 13.8975 1490.67 13.6922V2.29618C1490.67 2.10551 1490.77 2.01018 1490.96 2.01018H1491.93C1492.13 2.01018 1492.29 2.09084 1492.41 2.25218L1496.77 7.68618L1500.02 12.0422L1500.18 12.0202L1500.07 7.57618V2.29618C1500.07 2.10551 1500.16 2.01018 1500.35 2.01018H1501.23C1501.42 2.01018 1501.52 2.10551 1501.52 2.29618V13.7142C1501.52 13.9048 1501.42 14.0002 1501.23 14.0002Z" fill="#1F202A"/>
<path d="M1514.29 14.0002H1513.27C1513.1 14.0002 1512.97 13.9342 1512.88 13.8022L1508.81 8.67618L1505.22 3.92418L1505.07 3.96818L1505.18 8.41218V13.7142C1505.18 13.9048 1505.08 14.0002 1504.87 14.0002H1504.01C1503.82 14.0002 1503.73 13.8975 1503.73 13.6922V2.29618C1503.73 2.10551 1503.82 2.01018 1504.01 2.01018H1504.98C1505.19 2.01018 1505.35 2.09084 1505.46 2.25218L1509.82 7.68618L1513.08 12.0422L1513.23 12.0202L1513.12 7.57618V2.29618C1513.12 2.10551 1513.22 2.01018 1513.41 2.01018H1514.29C1514.48 2.01018 1514.57 2.10551 1514.57 2.29618V13.7142C1514.57 13.9048 1514.48 14.0002 1514.29 14.0002Z" fill="#1F202A"/>
<path d="M1517.06 2.01018H1517.94C1518.13 2.01018 1518.23 2.10551 1518.23 2.29618V13.7142C1518.23 13.9048 1518.13 14.0002 1517.94 14.0002H1517.06C1516.87 14.0002 1516.78 13.9048 1516.78 13.7142V2.29618C1516.78 2.10551 1516.87 2.01018 1517.06 2.01018Z" fill="#1F202A"/>
<path d="M1525.08 1.83418C1527.08 1.83418 1528.72 2.40618 1530.01 3.55018C1530.14 3.68218 1530.15 3.81418 1530.03 3.94618L1529.48 4.58418C1529.37 4.71618 1529.23 4.72351 1529.09 4.60618C1527.97 3.62351 1526.62 3.13218 1525.04 3.13218C1522.83 3.13218 1521.72 3.75551 1521.72 5.00218C1521.72 5.60351 1522 6.02884 1522.55 6.27818C1523.13 6.52751 1524.06 6.73284 1525.35 6.89418C1526.2 7.01151 1526.91 7.14351 1527.48 7.29018C1528.05 7.43684 1528.59 7.64951 1529.09 7.92818C1529.6 8.19218 1529.98 8.54418 1530.23 8.98418C1530.48 9.40951 1530.61 9.93018 1530.61 10.5462C1530.61 11.7048 1530.1 12.5995 1529.09 13.2302C1528.09 13.8608 1526.82 14.1762 1525.28 14.1762C1523.13 14.1762 1521.31 13.5308 1519.85 12.2402C1519.73 12.1228 1519.73 11.9908 1519.85 11.8442L1520.38 11.1182C1520.51 10.9715 1520.64 10.9642 1520.77 11.0962C1522 12.2695 1523.51 12.8562 1525.3 12.8562C1526.55 12.8562 1527.5 12.6508 1528.16 12.2402C1528.84 11.8148 1529.18 11.2502 1529.18 10.5462C1529.18 9.82751 1528.85 9.31418 1528.19 9.00618C1527.54 8.68351 1526.53 8.44151 1525.15 8.28018C1524.59 8.22151 1524.1 8.15551 1523.68 8.08218C1523.27 7.99418 1522.83 7.86951 1522.38 7.70818C1521.92 7.54684 1521.56 7.35618 1521.28 7.13618C1521 6.91618 1520.76 6.62284 1520.57 6.25618C1520.38 5.88951 1520.29 5.47151 1520.29 5.00218C1520.29 4.04884 1520.72 3.28618 1521.59 2.71418C1522.47 2.12751 1523.63 1.83418 1525.08 1.83418Z" fill="#1F202A"/>
<path d="M1546.58 0.734177L1547.28 0.932177C1547.46 1.00551 1547.51 1.13751 1547.46 1.32818L1542.29 15.0122C1542.21 15.1882 1542.09 15.2395 1541.91 15.1662L1541.21 14.9682C1541.03 14.8948 1540.98 14.7702 1541.05 14.5942L1546.2 0.910177C1546.29 0.71951 1546.41 0.660844 1546.58 0.734177Z" fill="#1F202A"/>
<path d="M1558.23 2.01018H1559.22C1559.42 2.01018 1559.56 2.12018 1559.64 2.34018L1562.78 12.5482H1562.91L1565.95 2.25218C1565.99 2.09084 1566.12 2.01018 1566.32 2.01018H1567.29C1567.47 2.01018 1567.58 2.09084 1567.62 2.25218L1570.72 12.5482H1570.9L1574.05 2.27418C1574.1 2.09818 1574.24 2.01018 1574.44 2.01018H1575.41C1575.5 2.01018 1575.56 2.03951 1575.59 2.09818C1575.63 2.15684 1575.64 2.22284 1575.61 2.29618L1571.91 13.6262C1571.84 13.8755 1571.69 14.0002 1571.47 14.0002H1570.06C1569.86 14.0002 1569.73 13.8828 1569.67 13.6482L1566.83 4.29818H1566.7L1563.97 13.6482C1563.91 13.8828 1563.77 14.0002 1563.55 14.0002H1562.17C1561.95 14.0002 1561.81 13.8902 1561.75 13.6702L1558.03 2.27418C1557.99 2.09818 1558.05 2.01018 1558.23 2.01018Z" fill="#1F202A"/>
<path d="M1577.57 2.01018H1578.45C1578.64 2.01018 1578.73 2.10551 1578.73 2.29618V13.7142C1578.73 13.9048 1578.64 14.0002 1578.45 14.0002H1577.57C1577.38 14.0002 1577.28 13.9048 1577.28 13.7142V2.29618C1577.28 2.10551 1577.38 2.01018 1577.57 2.01018Z" fill="#1F202A"/>
<path d="M1580.35 2.01018H1590.43C1590.63 2.01018 1590.74 2.11284 1590.74 2.31818V3.02218C1590.74 3.22751 1590.63 3.33018 1590.43 3.33018H1586.12V13.6922C1586.12 13.8975 1586.01 14.0002 1585.81 14.0002H1584.97C1584.77 14.0002 1584.66 13.8975 1584.66 13.6922V3.33018H1580.35C1580.15 3.33018 1580.04 3.22751 1580.04 3.02218V2.31818C1580.04 2.11284 1580.15 2.01018 1580.35 2.01018Z" fill="#1F202A"/>
<path d="M1592.35 2.01018H1593.21C1593.41 2.01018 1593.52 2.10551 1593.52 2.29618V7.09218H1601V2.29618C1601 2.10551 1601.1 2.01018 1601.3 2.01018H1602.14C1602.34 2.01018 1602.45 2.10551 1602.45 2.29618V13.7142C1602.45 13.9048 1602.34 14.0002 1602.14 14.0002H1601.3C1601.1 14.0002 1601 13.9048 1601 13.7142V8.41218H1593.52V13.7142C1593.52 13.9048 1593.41 14.0002 1593.21 14.0002H1592.35C1592.16 14.0002 1592.06 13.9048 1592.06 13.7142V2.29618C1592.06 2.10551 1592.16 2.01018 1592.35 2.01018Z" fill="#1F202A"/>
<path d="M1609.9 2.01018H1610.78C1610.97 2.01018 1611.07 2.10551 1611.07 2.29618V12.6802H1618.75C1618.95 12.6802 1619.06 12.7828 1619.06 12.9882V13.6922C1619.06 13.8975 1618.95 14.0002 1618.75 14.0002H1609.93C1609.72 14.0002 1609.62 13.8975 1609.62 13.6922V2.29618C1609.62 2.10551 1609.71 2.01018 1609.9 2.01018Z" fill="#1F202A"/>
<path d="M1625.9 3.15418C1624.52 3.15418 1623.39 3.61618 1622.51 4.54018C1621.63 5.46418 1621.19 6.62284 1621.19 8.01618C1621.19 9.39484 1621.63 10.5462 1622.51 11.4702C1623.39 12.3942 1624.52 12.8562 1625.9 12.8562C1627.29 12.8562 1628.43 12.3942 1629.31 11.4702C1630.19 10.5462 1630.63 9.39484 1630.63 8.01618C1630.63 6.62284 1630.19 5.46418 1629.31 4.54018C1628.43 3.61618 1627.29 3.15418 1625.9 3.15418ZM1621.5 12.4382C1620.31 11.2648 1619.72 9.79084 1619.72 8.01618C1619.72 6.24151 1620.31 4.76751 1621.5 3.59418C1622.69 2.42084 1624.15 1.83418 1625.9 1.83418C1627.67 1.83418 1629.15 2.42084 1630.32 3.59418C1631.51 4.75284 1632.1 6.22684 1632.1 8.01618C1632.1 9.79084 1631.51 11.2648 1630.32 12.4382C1629.15 13.5968 1627.67 14.1762 1625.9 14.1762C1624.15 14.1762 1622.69 13.5968 1621.5 12.4382Z" fill="#1F202A"/>
<path d="M1639.26 14.0002H1637.83C1637.67 14.0002 1637.56 13.9268 1637.5 13.7802L1632.47 2.31818C1632.38 2.11284 1632.43 2.01018 1632.62 2.01018H1633.72C1633.87 2.01018 1633.98 2.07618 1634.05 2.20818L1636.43 7.77418L1638.47 12.6362H1638.67L1640.74 7.68618L1643.09 2.20818C1643.15 2.07618 1643.26 2.01018 1643.42 2.01018H1644.54C1644.62 2.01018 1644.67 2.04684 1644.7 2.12018C1644.73 2.17884 1644.73 2.24484 1644.7 2.31818L1639.59 13.7802C1639.53 13.9268 1639.42 14.0002 1639.26 14.0002Z" fill="#1F202A"/>
<path d="M1646.46 2.01018L1655 2.01018C1655.19 2.01018 1655.28 2.10551 1655.28 2.29618V3.04418C1655.28 3.23484 1655.19 3.33018 1655 3.33018H1647.63V7.02618H1654.58C1654.77 7.02618 1654.86 7.12151 1654.86 7.31218V8.06018C1654.86 8.25085 1654.77 8.34618 1654.58 8.34618L1647.63 8.34618V12.6802H1655.22C1655.41 12.6802 1655.5 12.7682 1655.5 12.9442V13.7142C1655.5 13.9048 1655.41 14.0002 1655.22 14.0002H1646.46C1646.27 14.0002 1646.17 13.9048 1646.17 13.7142V2.29618C1646.17 2.10551 1646.27 2.01018 1646.46 2.01018Z" fill="#1F202A"/>
<path d="M1671.92 0.734177L1672.63 0.932177C1672.8 1.00551 1672.86 1.13751 1672.8 1.32818L1667.63 15.0122C1667.56 15.1882 1667.43 15.2395 1667.26 15.1662L1666.55 14.9682C1666.38 14.8948 1666.33 14.7702 1666.4 14.5942L1671.55 0.910178C1671.64 0.719511 1671.76 0.660844 1671.92 0.734177Z" fill="#1F202A"/>
<path d="M1685.36 3.33018V12.6582H1688.66C1690.02 12.6582 1691.14 12.2255 1692.02 11.3602C1692.92 10.4802 1693.36 9.35818 1693.36 7.99418C1693.36 6.63018 1692.92 5.51551 1692.02 4.65018C1691.14 3.77018 1690.02 3.33018 1688.66 3.33018H1685.36ZM1684.19 2.01018H1688.66C1690.43 2.01018 1691.9 2.57484 1693.08 3.70418C1694.27 4.81884 1694.86 6.24884 1694.86 7.99418C1694.86 9.75418 1694.27 11.1988 1693.08 12.3282C1691.9 13.4428 1690.43 14.0002 1688.66 14.0002H1684.19C1684 14.0002 1683.9 13.9048 1683.9 13.7142V2.31818C1683.9 2.11284 1684 2.01018 1684.19 2.01018Z" fill="#1F202A"/>
<path d="M1700.85 2.01018H1702.57C1702.74 2.01018 1702.86 2.08351 1702.92 2.23018L1707.91 13.6922C1707.94 13.7655 1707.94 13.8388 1707.91 13.9122C1707.88 13.9708 1707.83 14.0002 1707.76 14.0002H1706.73C1706.56 14.0002 1706.45 13.9268 1706.4 13.7802L1705.41 11.4482H1697.99L1696.98 13.7802C1696.94 13.9268 1696.83 14.0002 1696.65 14.0002H1695.59C1695.4 14.0002 1695.35 13.8975 1695.44 13.6922L1700.5 2.25218C1700.57 2.09084 1700.69 2.01018 1700.85 2.01018ZM1701.49 3.24218L1698.54 10.1282H1704.86L1701.91 3.24218H1701.49Z" fill="#1F202A"/>
<path d="M1714.04 11.0522V13.6922C1714.04 13.8975 1713.94 14.0002 1713.75 14.0002H1712.87C1712.68 14.0002 1712.59 13.8975 1712.59 13.6922V11.0742L1707.53 2.29618C1707.44 2.10551 1707.49 2.01018 1707.68 2.01018H1708.82C1708.97 2.01018 1709.08 2.06884 1709.15 2.18618L1713.25 9.57818H1713.44L1717.47 2.18618C1717.54 2.06885 1717.65 2.01018 1717.78 2.01018H1718.94C1719.13 2.01018 1719.18 2.10551 1719.08 2.29618L1714.04 11.0522Z" fill="#1F202A"/>
<path d="M1724.12 2.01018H1725.84C1726.01 2.01018 1726.13 2.08351 1726.19 2.23018L1731.18 13.6922C1731.21 13.7655 1731.21 13.8388 1731.18 13.9122C1731.15 13.9708 1731.1 14.0002 1731.03 14.0002H1729.99C1729.83 14.0002 1729.72 13.9268 1729.66 13.7802L1728.67 11.4482H1721.26L1720.25 13.7802C1720.2 13.9268 1720.09 14.0002 1719.92 14.0002H1718.86C1718.67 14.0002 1718.62 13.8975 1718.71 13.6922L1723.77 2.25218C1723.84 2.09084 1723.96 2.01018 1724.12 2.01018ZM1724.76 3.24218L1721.81 10.1282H1728.12L1725.18 3.24218H1724.76Z" fill="#1F202A"/>
<path d="M1743.41 14.0002H1742.39C1742.22 14.0002 1742.09 13.9342 1742 13.8022L1737.93 8.67618L1734.34 3.92418L1734.19 3.96818L1734.3 8.41218V13.7142C1734.3 13.9048 1734.2 14.0002 1733.99 14.0002H1733.13C1732.94 14.0002 1732.85 13.8975 1732.85 13.6922V2.29618C1732.85 2.10551 1732.94 2.01018 1733.13 2.01018H1734.1C1734.31 2.01018 1734.47 2.09084 1734.58 2.25218L1738.94 7.68618L1742.2 12.0422L1742.35 12.0202L1742.24 7.57618V2.29618C1742.24 2.10551 1742.34 2.01018 1742.53 2.01018H1743.41C1743.6 2.01018 1743.69 2.10551 1743.69 2.29618V13.7142C1743.69 13.9048 1743.6 14.0002 1743.41 14.0002Z" fill="#1F202A"/>
<path d="M1750.8 2.01018H1752.52C1752.7 2.01018 1752.81 2.08351 1752.87 2.23018L1757.87 13.6922C1757.9 13.7655 1757.9 13.8388 1757.87 13.9122C1757.84 13.9708 1757.79 14.0002 1757.71 14.0002H1756.68C1756.52 14.0002 1756.41 13.9268 1756.35 13.7802L1755.36 11.4482H1747.94L1746.93 13.7802C1746.89 13.9268 1746.78 14.0002 1746.6 14.0002H1745.55C1745.36 14.0002 1745.3 13.8975 1745.39 13.6922L1750.45 2.25218C1750.53 2.09084 1750.64 2.01018 1750.8 2.01018ZM1751.44 3.24218L1748.49 10.1282H1754.81L1751.86 3.24218L1751.44 3.24218Z" fill="#1F202A"/>
<path d="M1770.51 11.0522V13.6922C1770.51 13.8975 1770.42 14.0002 1770.22 14.0002H1769.34C1769.15 14.0002 1769.06 13.8975 1769.06 13.6922V11.0742L1764 2.29618C1763.91 2.10551 1763.96 2.01018 1764.15 2.01018H1765.3C1765.44 2.01018 1765.55 2.06885 1765.63 2.18618L1769.72 9.57818H1769.92L1773.94 2.18618C1774.02 2.06885 1774.12 2.01018 1774.25 2.01018H1775.42C1775.61 2.01018 1775.65 2.10551 1775.55 2.29618L1770.51 11.0522Z" fill="#1F202A"/>
<path d="M1780.59 2.01018H1782.31C1782.49 2.01018 1782.6 2.08351 1782.66 2.23018L1787.66 13.6922C1787.69 13.7655 1787.69 13.8388 1787.66 13.9122C1787.63 13.9708 1787.58 14.0002 1787.5 14.0002H1786.47C1786.31 14.0002 1786.2 13.9268 1786.14 13.7802L1785.15 11.4482H1777.73L1776.72 13.7802C1776.68 13.9268 1776.57 14.0002 1776.39 14.0002H1775.34C1775.15 14.0002 1775.09 13.8975 1775.18 13.6922L1780.24 2.25218C1780.32 2.09085 1780.43 2.01018 1780.59 2.01018ZM1781.23 3.24218L1778.28 10.1282H1784.6L1781.65 3.24218H1781.23Z" fill="#1F202A"/>
<path d="M1793.98 1.83418C1795.98 1.83418 1797.62 2.40618 1798.91 3.55018C1799.04 3.68218 1799.05 3.81418 1798.93 3.94618L1798.38 4.58418C1798.27 4.71618 1798.13 4.72351 1797.99 4.60618C1796.87 3.62351 1795.52 3.13218 1793.94 3.13218C1791.73 3.13218 1790.62 3.75551 1790.62 5.00218C1790.62 5.60351 1790.9 6.02885 1791.45 6.27818C1792.03 6.52751 1792.96 6.73285 1794.25 6.89418C1795.1 7.01151 1795.81 7.14351 1796.38 7.29018C1796.95 7.43685 1797.49 7.64951 1797.99 7.92818C1798.5 8.19218 1798.88 8.54418 1799.13 8.98418C1799.38 9.40951 1799.51 9.93018 1799.51 10.5462C1799.51 11.7048 1799 12.5995 1797.99 13.2302C1796.99 13.8608 1795.72 14.1762 1794.18 14.1762C1792.03 14.1762 1790.21 13.5308 1788.75 12.2402C1788.63 12.1228 1788.63 11.9908 1788.75 11.8442L1789.28 11.1182C1789.41 10.9715 1789.54 10.9642 1789.67 11.0962C1790.9 12.2695 1792.41 12.8562 1794.2 12.8562C1795.45 12.8562 1796.4 12.6508 1797.06 12.2402C1797.74 11.8148 1798.08 11.2502 1798.08 10.5462C1798.08 9.82751 1797.75 9.31418 1797.09 9.00618C1796.44 8.68351 1795.43 8.44151 1794.05 8.28018C1793.49 8.22151 1793 8.15551 1792.58 8.08218C1792.17 7.99418 1791.73 7.86951 1791.28 7.70818C1790.82 7.54685 1790.46 7.35618 1790.18 7.13618C1789.9 6.91618 1789.66 6.62285 1789.47 6.25618C1789.28 5.88951 1789.19 5.47151 1789.19 5.00218C1789.19 4.04884 1789.62 3.28618 1790.49 2.71418C1791.37 2.12751 1792.53 1.83418 1793.98 1.83418Z" fill="#1F202A"/>
<path d="M1800.47 2.01018L1810.54 2.01018C1810.75 2.01018 1810.85 2.11285 1810.85 2.31818V3.02218C1810.85 3.22751 1810.75 3.33018 1810.54 3.33018H1806.23V13.6922C1806.23 13.8975 1806.13 14.0002 1805.92 14.0002H1805.09C1804.88 14.0002 1804.78 13.8975 1804.78 13.6922V3.33018H1800.47C1800.26 3.33018 1800.16 3.22751 1800.16 3.02218V2.31818C1800.16 2.11285 1800.26 2.01018 1800.47 2.01018Z" fill="#1F202A"/>
<path d="M1812.47 2.01018H1817.97C1819.24 2.01018 1820.31 2.41351 1821.16 3.22018C1822.01 4.02685 1822.43 5.02418 1822.43 6.21218C1822.43 7.09218 1822.21 7.86951 1821.75 8.54418C1821.3 9.21885 1820.67 9.71751 1819.88 10.0402L1821.93 13.6922C1821.97 13.7802 1821.97 13.8535 1821.93 13.9122C1821.88 13.9708 1821.82 14.0002 1821.73 14.0002H1820.67C1820.53 14.0002 1820.39 13.9122 1820.28 13.7362L1818.52 10.3922C1818.4 10.4068 1818.22 10.4142 1817.97 10.4142H1813.63V13.7142C1813.63 13.9048 1813.54 14.0002 1813.35 14.0002H1812.47C1812.28 14.0002 1812.18 13.9048 1812.18 13.7142V2.29618C1812.18 2.10551 1812.28 2.01018 1812.47 2.01018ZM1813.63 9.09418H1817.97C1818.92 9.09418 1819.66 8.83018 1820.19 8.30218C1820.72 7.75951 1820.98 7.06285 1820.98 6.21218C1820.98 5.36151 1820.71 4.67218 1820.17 4.14418C1819.64 3.60151 1818.9 3.33018 1817.97 3.33018H1813.63V9.09418Z" fill="#1F202A"/>
<path d="M1824.7 2.01018L1833.24 2.01018C1833.43 2.01018 1833.52 2.10551 1833.52 2.29618V3.04418C1833.52 3.23485 1833.43 3.33018 1833.24 3.33018H1825.87V7.02618H1832.82C1833.01 7.02618 1833.11 7.12151 1833.11 7.31218V8.06018C1833.11 8.25085 1833.01 8.34618 1832.82 8.34618L1825.87 8.34618V12.6802H1833.46C1833.65 12.6802 1833.74 12.7682 1833.74 12.9442V13.7142C1833.74 13.9048 1833.65 14.0002 1833.46 14.0002H1824.7C1824.51 14.0002 1824.42 13.9048 1824.42 13.7142V2.29618C1824.42 2.10551 1824.51 2.01018 1824.7 2.01018Z" fill="#1F202A"/>
<path d="M1847.23 2.01018H1848.84C1849.03 2.01018 1849.13 2.10551 1849.13 2.29618V13.6922C1849.13 13.8975 1849.03 14.0002 1848.84 14.0002H1847.98C1847.78 14.0002 1847.67 13.8975 1847.67 13.6922V7.99418L1847.76 3.57218L1847.65 3.55018L1845.8 7.92818L1843.12 13.7142C1843.03 13.9048 1842.91 14.0002 1842.75 14.0002H1842.13C1841.95 14.0002 1841.82 13.9048 1841.73 13.7142L1839.01 7.77418L1837.18 3.55018L1837.09 3.57218L1837.18 7.75218V13.6922C1837.18 13.8975 1837.08 14.0002 1836.89 14.0002H1836.01C1835.82 14.0002 1835.73 13.8975 1835.73 13.6922V2.29618C1835.73 2.10551 1835.82 2.01018 1836.01 2.01018H1837.64C1837.83 2.01018 1837.97 2.11285 1838.06 2.31818L1840.61 7.79618L1842.42 12.0642H1842.55L1844.62 7.20218L1846.82 2.31818C1846.9 2.11285 1847.04 2.01018 1847.23 2.01018Z" fill="#1F202A"/>
<path d="M1855.98 1.83418C1857.97 1.83418 1859.62 2.40618 1860.91 3.55018C1861.04 3.68218 1861.05 3.81418 1860.93 3.94618L1860.38 4.58418C1860.26 4.71618 1860.13 4.72351 1859.98 4.60618C1858.87 3.62351 1857.52 3.13218 1855.94 3.13218C1853.72 3.13218 1852.61 3.75551 1852.61 5.00218C1852.61 5.60351 1852.89 6.02885 1853.45 6.27818C1854.02 6.52751 1854.95 6.73285 1856.24 6.89418C1857.09 7.01151 1857.81 7.14351 1858.38 7.29018C1858.95 7.43685 1859.48 7.64951 1859.98 7.92818C1860.5 8.19218 1860.88 8.54418 1861.13 8.98418C1861.38 9.40951 1861.5 9.93018 1861.5 10.5462C1861.5 11.7048 1861 12.5995 1859.98 13.2302C1858.99 13.8608 1857.72 14.1762 1856.18 14.1762C1854.02 14.1762 1852.21 13.5308 1850.74 12.2402C1850.63 12.1228 1850.63 11.9908 1850.74 11.8442L1851.27 11.1182C1851.4 10.9715 1851.54 10.9642 1851.67 11.0962C1852.9 12.2695 1854.41 12.8562 1856.2 12.8562C1857.45 12.8562 1858.4 12.6508 1859.06 12.2402C1859.73 11.8148 1860.07 11.2502 1860.07 10.5462C1860.07 9.82751 1859.74 9.31418 1859.08 9.00618C1858.44 8.68351 1857.42 8.44151 1856.05 8.28018C1855.49 8.22151 1855 8.15551 1854.57 8.08218C1854.16 7.99418 1853.73 7.86951 1853.27 7.70818C1852.82 7.54685 1852.45 7.35618 1852.17 7.13618C1851.89 6.91618 1851.66 6.62285 1851.47 6.25618C1851.28 5.88951 1851.18 5.47151 1851.18 5.00218C1851.18 4.04885 1851.62 3.28618 1852.48 2.71418C1853.36 2.12751 1854.53 1.83418 1855.98 1.83418Z" fill="#1F202A"/>
<path d="M1863.32 2.01018H1864.2C1864.39 2.01018 1864.49 2.10551 1864.49 2.29618V8.23618L1871.02 2.18618C1871.14 2.06885 1871.27 2.01018 1871.42 2.01018H1872.67C1872.82 2.01018 1872.9 2.06885 1872.91 2.18618C1872.93 2.28885 1872.9 2.36951 1872.83 2.42818L1867.63 7.13618L1873.27 13.5822C1873.47 13.8608 1873.43 14.0002 1873.13 14.0002H1871.95C1871.77 14.0002 1871.63 13.9342 1871.53 13.8022L1866.64 8.06018L1864.49 9.84218V13.7142C1864.49 13.9048 1864.39 14.0002 1864.2 14.0002H1863.32C1863.13 14.0002 1863.04 13.9048 1863.04 13.7142V2.29618C1863.04 2.10551 1863.13 2.01018 1863.32 2.01018Z" fill="#1F202A"/>
<path d="M1879.38 2.01018H1881.1C1881.27 2.01018 1881.39 2.08351 1881.45 2.23018L1886.44 13.6922C1886.47 13.7655 1886.47 13.8388 1886.44 13.9122C1886.42 13.9708 1886.36 14.0002 1886.29 14.0002H1885.26C1885.1 14.0002 1884.99 13.9268 1884.93 13.7802L1883.94 11.4482H1876.52L1875.51 13.7802C1875.47 13.9268 1875.36 14.0002 1875.18 14.0002H1874.12C1873.93 14.0002 1873.88 13.8975 1873.97 13.6922L1879.03 2.25218C1879.1 2.09085 1879.22 2.01018 1879.38 2.01018ZM1880.02 3.24218L1877.07 10.1282H1883.39L1880.44 3.24218H1880.02Z" fill="#1F202A"/>
<path d="M1892.57 11.0522V13.6922C1892.57 13.8975 1892.47 14.0002 1892.28 14.0002H1891.4C1891.21 14.0002 1891.12 13.8975 1891.12 13.6922V11.0742L1886.06 2.29618C1885.97 2.10551 1886.02 2.01018 1886.21 2.01018H1887.35C1887.5 2.01018 1887.61 2.06885 1887.68 2.18618L1891.78 9.57818H1891.97L1896 2.18618C1896.07 2.06885 1896.18 2.01018 1896.31 2.01018H1897.47C1897.66 2.01018 1897.71 2.10551 1897.61 2.29618L1892.57 11.0522Z" fill="#1F202A"/>
<path d="M1902.65 2.01018H1904.37C1904.54 2.01018 1904.66 2.08351 1904.72 2.23018L1909.71 13.6922C1909.74 13.7655 1909.74 13.8388 1909.71 13.9122C1909.68 13.9708 1909.63 14.0002 1909.56 14.0002H1908.52C1908.36 14.0002 1908.25 13.9268 1908.19 13.7802L1907.2 11.4482H1899.79L1898.78 13.7802C1898.73 13.9268 1898.62 14.0002 1898.45 14.0002H1897.39C1897.2 14.0002 1897.15 13.8975 1897.24 13.6922L1902.3 2.25218C1902.37 2.09085 1902.49 2.01018 1902.65 2.01018ZM1903.29 3.24218L1900.34 10.1282H1906.65L1903.71 3.24218H1903.29Z" fill="#1F202A"/>
<path d="M1925.81 0.734179L1926.52 0.932179C1926.69 1.00551 1926.75 1.13751 1926.69 1.32818L1921.52 15.0122C1921.45 15.1882 1921.33 15.2395 1921.15 15.1662L1920.45 14.9682C1920.27 14.8948 1920.22 14.7702 1920.29 14.5942L1925.44 0.910179C1925.53 0.719512 1925.65 0.660845 1925.81 0.734179Z" fill="#1F202A"/>
</svg>