<svg width="13" height="13" viewBox="0 0 13 13" fill="none" xmlns="http://www.w3.org/2000/svg">
<path d="M9.75 8.125C9.40923 8.1258 9.07347 8.20718 8.77016 8.36251C8.46684 8.51784 8.20457 8.74271 8.00475 9.01875L5.28829 7.20796C5.45948 6.75151 5.45948 6.2485 5.28829 5.79205L8.00475 3.98125C8.30965 4.39462 8.75196 4.6857 9.25222 4.80222C9.75248 4.91873 10.2779 4.85303 10.7341 4.61693C11.1902 4.38083 11.5472 3.98979 11.741 3.51408C11.9347 3.03837 11.9525 2.50916 11.791 2.02154C11.6296 1.53392 11.2996 1.11985 10.8602 0.85372C10.4209 0.587591 9.90107 0.486849 9.39413 0.569594C8.88719 0.652339 8.42638 0.913146 8.09447 1.30516C7.76257 1.69717 7.58133 2.19469 7.58333 2.70834C7.58684 2.78726 7.5948 2.86593 7.60717 2.94396L4.68704 4.89071C4.37584 4.61018 3.98999 4.42589 3.5762 4.36016C3.16241 4.29444 2.73843 4.3501 2.35563 4.5204C1.97282 4.6907 1.64761 4.96833 1.41936 5.31968C1.19112 5.67104 1.06964 6.08103 1.06964 6.5C1.06964 6.91898 1.19112 7.32897 1.41936 7.68032C1.64761 8.03167 1.97282 8.30931 2.35563 8.47961C2.73843 8.64991 3.16241 8.70557 3.5762 8.63984C3.98999 8.57412 4.37584 8.38983 4.68704 8.1093L7.60717 10.056C7.5948 10.1341 7.58684 10.2127 7.58333 10.2917C7.58333 10.7202 7.7104 11.1391 7.94848 11.4954C8.18656 11.8517 8.52495 12.1294 8.92085 12.2934C9.31676 12.4574 9.7524 12.5003 10.1727 12.4167C10.593 12.3331 10.979 12.1267 11.2821 11.8237C11.5851 11.5207 11.7914 11.1347 11.875 10.7144C11.9586 10.2941 11.9157 9.85843 11.7517 9.46252C11.5877 9.06662 11.31 8.72823 10.9537 8.49015C10.5974 8.25208 10.1785 8.125 9.75 8.125ZM9.75 1.625C9.96426 1.625 10.1737 1.68854 10.3519 1.80758C10.53 1.92662 10.6689 2.09581 10.7509 2.29376C10.8329 2.49172 10.8543 2.70954 10.8125 2.91968C10.7707 3.12983 10.6675 3.32286 10.516 3.47437C10.3645 3.62588 10.1715 3.72905 9.96135 3.77085C9.7512 3.81266 9.53338 3.7912 9.33542 3.70921C9.13747 3.62721 8.96828 3.48836 8.84924 3.3102C8.7302 3.13205 8.66667 2.9226 8.66667 2.70834C8.66667 2.42102 8.7808 2.14547 8.98397 1.9423C9.18713 1.73914 9.46268 1.625 9.75 1.625ZM3.25 7.58334C3.03574 7.58334 2.82628 7.5198 2.64813 7.40076C2.46998 7.28172 2.33112 7.11253 2.24913 6.91458C2.16713 6.71662 2.14568 6.4988 2.18748 6.28866C2.22928 6.07851 2.33246 5.88548 2.48397 5.73397C2.63547 5.58246 2.8285 5.47929 3.03865 5.43749C3.2488 5.39569 3.46662 5.41714 3.66457 5.49913C3.86253 5.58113 4.03172 5.71998 4.15076 5.89814C4.2698 6.07629 4.33333 6.28574 4.33333 6.5C4.33333 6.78732 4.2192 7.06287 4.01603 7.26604C3.81287 7.4692 3.53732 7.58334 3.25 7.58334ZM9.75 11.375C9.53574 11.375 9.32628 11.3115 9.14813 11.1924C8.96998 11.0734 8.83112 10.9042 8.74913 10.7062C8.66713 10.5083 8.64568 10.2905 8.68748 10.0803C8.72928 9.87018 8.83246 9.67715 8.98397 9.52564C9.13547 9.37413 9.3285 9.27095 9.53865 9.22915C9.7488 9.18735 9.96662 9.20881 10.1646 9.2908C10.3625 9.3728 10.5317 9.51165 10.6508 9.6898C10.7698 9.86796 10.8333 10.0774 10.8333 10.2917C10.8333 10.579 10.7192 10.8545 10.516 11.0577C10.3129 11.2609 10.0373 11.375 9.75 11.375Z" fill="#717485"/>
</svg>
