<svg width="16" height="16" viewBox="0 0 16 16" fill="none" xmlns="http://www.w3.org/2000/svg">
<path d="M6.46498 8.83197C6.41698 8.83197 5.36098 8.83197 4.88098 8.83197C4.62498 8.83197 4.54498 8.73597 4.54498 8.49597C4.54498 7.85597 4.54498 7.19997 4.54498 6.55997C4.54498 6.30397 4.64098 6.22397 4.88098 6.22397H6.46498C6.46498 6.17597 6.46498 5.24797 6.46498 4.81597C6.46498 4.17597 6.57698 3.56797 6.89698 3.00797C7.23298 2.43197 7.71298 2.04797 8.32098 1.82397C8.72098 1.67997 9.12098 1.61597 9.55298 1.61597H11.121C11.345 1.61597 11.441 1.71197 11.441 1.93597V3.75997C11.441 3.98397 11.345 4.07997 11.121 4.07997C10.689 4.07997 10.257 4.07997 9.82498 4.09597C9.39298 4.09597 9.16898 4.30397 9.16898 4.75197C9.15298 5.23197 9.16898 5.69597 9.16898 6.19197H11.025C11.281 6.19197 11.377 6.28797 11.377 6.54397V8.47997C11.377 8.73597 11.297 8.81597 11.025 8.81597C10.449 8.81597 9.21698 8.81597 9.16898 8.81597V14.032C9.16898 14.304 9.08898 14.4 8.80098 14.4C8.12898 14.4 7.47298 14.4 6.80098 14.4C6.56098 14.4 6.46498 14.304 6.46498 14.064C6.46498 12.384 6.46498 8.87997 6.46498 8.83197Z" fill="white"/>
</svg>
