<svg width="13" height="13" viewBox="0 0 13 13" fill="none" xmlns="http://www.w3.org/2000/svg">
<g clip-path="url(#clip0_52_4536)">
<path d="M9.546 0H3.18204C1.43211 0 6.10352e-05 1.43143 6.10352e-05 3.18198V9.54594C6.10352e-05 11.2959 1.43211 12.7279 3.18204 12.7279H9.546C11.2959 12.7279 12.728 11.2959 12.728 9.54594V3.18198C12.728 1.43143 11.2959 0 9.546 0ZM6.36402 9.01551C4.89935 9.01551 3.71232 7.82798 3.71232 6.36396C3.71232 4.89929 4.89935 3.71226 6.36402 3.71226C7.82804 3.71226 9.01572 4.89929 9.01572 6.36396C9.01572 7.82798 7.82804 9.01551 6.36402 9.01551ZM9.81122 3.71226C9.37146 3.71226 9.01572 3.35603 9.01572 2.91676C9.01572 2.4775 9.37146 2.12127 9.81122 2.12127C10.251 2.12127 10.6067 2.4775 10.6067 2.91676C10.6067 3.35603 10.251 3.71226 9.81122 3.71226Z" fill="white"/>
</g>
<defs>
<clipPath id="clip0_52_4536">
<rect width="12.7279" height="12.7279" fill="white"/>
</clipPath>
</defs>
</svg>
