<svg width="15" height="15" viewBox="0 0 15 15" fill="none" xmlns="http://www.w3.org/2000/svg">
<g clip-path="url(#clip0_52_4532)">
<path d="M2.11645 0.743652C1.10956 0.743652 0.451233 1.40483 0.451233 2.27385C0.451233 3.12369 1.08995 3.80372 2.07781 3.80372H2.09692C3.12351 3.80372 3.76239 3.12369 3.76239 2.27385C3.7432 1.40483 3.12351 0.743652 2.11645 0.743652Z" fill="white"/>
<path d="M0.625061 5.01343H3.56863V13.8693H0.625061V5.01343Z" fill="white"/>
<path d="M10.7937 4.80469C9.20579 4.80469 8.14098 6.29684 8.14098 6.29684V5.01254H5.19733V13.8684H8.14081V8.92294C8.14081 8.65818 8.16001 8.39385 8.23778 8.20452C8.45057 7.67585 8.93483 7.12815 9.74803 7.12815C10.8132 7.12815 11.2392 7.94027 11.2392 9.13079V13.8684H14.1825V8.7906C14.1825 6.07047 12.7302 4.80469 10.7937 4.80469Z" fill="white"/>
</g>
<defs>
<clipPath id="clip0_52_4532">
<rect width="14.6468" height="14.6468" fill="white"/>
</clipPath>
</defs>
</svg>
