<svg width="14" height="14" viewBox="0 0 14 14" fill="none" xmlns="http://www.w3.org/2000/svg">
<g clip-path="url(#clip0_52_4530)">
<path d="M12.0864 3.99225C12.6342 3.6033 13.095 3.1178 13.4704 2.55878V2.55822C12.9692 2.77767 12.436 2.9236 11.8793 2.99432C12.4517 2.65251 12.889 2.11538 13.0944 1.46824C12.5606 1.78648 11.9713 2.01098 11.3432 2.13671C10.8364 1.59677 10.1141 1.26282 9.32606 1.26282C7.79717 1.26282 6.56631 2.50378 6.56631 4.02481C6.56631 4.2437 6.58483 4.45418 6.6303 4.65455C4.33472 4.54229 2.30294 3.44221 0.937937 1.76571C0.69996 2.17936 0.559643 2.65251 0.559643 3.16158C0.559643 4.11798 1.05187 4.96549 1.78657 5.4566C1.34261 5.44818 0.907628 5.31909 0.538876 5.11647V5.14678C0.538876 6.48877 1.49583 7.60344 2.75139 7.8605C2.52632 7.92224 2.28161 7.95142 2.02735 7.95142C1.85056 7.95142 1.67207 7.94132 1.50482 7.90428C1.86234 8.99762 2.87823 9.80192 4.08495 9.8283C3.1454 10.563 1.95214 11.0058 0.660671 11.0058C0.434481 11.0058 0.217271 10.9957 6.10352e-05 10.9682C1.22362 11.7568 2.67281 12.2075 4.2365 12.2075C9.10997 12.2075 12.2862 8.14169 12.0864 3.99225Z" fill="white"/>
</g>
<defs>
<clipPath id="clip0_52_4530">
<rect width="13.4704" height="13.4704" fill="white"/>
</clipPath>
</defs>
</svg>
